<?xml version="1.0" standalone="no"?>
<!DOCTYPE svg PUBLIC "-//W3C//DTD SVG 1.1//EN" "http://www.w3.org/Graphics/SVG/1.1/DTD/svg11.dtd" >
<svg>
<metadata>
Created by FontForge 20090914 at Thu Aug 24 13:20:42 2017
 By www-data
Copyright 2016 The Nunito Project Authors (contact@sansoxygen.com)
</metadata>
<defs>
<font id="NunitoSans-SemiBoldItalic" horiz-adv-x="600" >
  <font-face 
    font-family="Nunito Sans SemiBold"
    font-weight="600"
    font-style="italic"
    font-stretch="normal"
    units-per-em="1000"
    panose-1="0 0 7 0 0 0 0 0 0 0"
    ascent="800"
    descent="-200"
    x-height="487"
    cap-height="705"
    bbox="-346.001 -270 1316 1078"
    underline-thickness="50"
    underline-position="-50"
    slope="-4.541"
    unicode-range="U+000D-U+FB02"
  />
<missing-glyph horiz-adv-x="443" 
d="M363 705v-885h-281v885h281zM295 646h-146v-29h57v-33h-58v-29h147v29h-59v33h59v29zM236 532h-88v-92h147v30h-59v62zM206 501v-31h-29v31h29zM295 416h-147v-30h58v-32h-58v-30h88v62h59v30zM295 363h-29v-59h-118v-30h147v89zM295 255h-89v-50h30v20h30v-41h-89v71
h-29v-100h147v100zM295 101h-147v-100h147v100zM266 72v-41h-89v41h89zM295 -19h-147v-29h62l-62 -42v-29h147v29h-91l62 42h29v29z" />
    <glyph glyph-name="fi" unicode="fi" horiz-adv-x="583" 
d="M222 488l310.003 -0.000976562l-39 -488h-101l33 410h-209l-33 -410h-101l32 410h-94l6 78h94l2 20c4.66699 64 25.167 112 61.5 144s90.166 50 161.499 54l43 2l-1 -76l-51 -3c-36.667 -2.66699 -63.834 -12.667 -81.501 -30s-27.834 -44.666 -30.501 -81.999z
M439.003 706.999h118l-8 -107h-118z" />
    <glyph glyph-name="fl" unicode="fl" horiz-adv-x="584" 
d="M222 488l133.003 -0.000976562l-6 -78h-133l-33 -410h-101l32 410h-94l6 78h94l2 20c4.66699 64 25.167 112 61.5 144s90.166 50 161.499 54l45 2l2 -76l-56 -3c-36.667 -2.66699 -63.834 -12.667 -81.501 -30s-27.834 -44.666 -30.501 -81.999zM393.003 -0.000976562
l56 705h101l-56 -705h-101z" />
    <glyph glyph-name=".notdef" horiz-adv-x="443" 
d="M363 705v-885h-281v885h281zM295 646h-146v-29h57v-33h-58v-29h147v29h-59v33h59v29zM236 532h-88v-92h147v30h-59v62zM206 501v-31h-29v31h29zM295 416h-147v-30h58v-32h-58v-30h88v62h59v30zM295 363h-29v-59h-118v-30h147v89zM295 255h-89v-50h30v20h30v-41h-89v71
h-29v-100h147v100zM295 101h-147v-100h147v100zM266 72v-41h-89v41h89zM295 -19h-147v-29h62l-62 -42v-29h147v29h-91l62 42h29v29z" />
    <glyph glyph-name="NULL" horiz-adv-x="0" 
 />
    <glyph glyph-name="NULL" horiz-adv-x="0" 
 />
    <glyph glyph-name="nonmarkingreturn" unicode="&#xd;" horiz-adv-x="264" 
 />
    <glyph glyph-name="space" unicode=" " horiz-adv-x="264" 
 />
    <glyph glyph-name="exclam" unicode="!" horiz-adv-x="238" 
d="M84 198l8 507h125l-71 -507h-62zM50 119h119l-10 -119h-119z" />
    <glyph glyph-name="quotedbl" unicode="&#x22;" horiz-adv-x="435" 
d="M96 422l-4 283h118l-46 -283h-68zM300 422l-4 283h118l-46 -283h-68z" />
    <glyph glyph-name="numbersign" unicode="#" 
d="M579 467h-93l-61 -221h115l-5 -69h-129l-48 -177h-74l48 177h-144l-48 -177h-74l48 177h-80l5 69h94l61 221h-116l5 69h130l46 169h74l-46 -169h144l46 169h74l-46 -169h79zM351 246l61 221h-144l-61 -221h144z" />
    <glyph glyph-name="dollar" unicode="$" 
d="M201.5 453.5c14.333 -15 32.167 -26.998 53.5 -35.998s51 -19.5 89 -31.5c46 -14.667 82.833 -28.334 110.5 -41.001s51.334 -30.834 71.001 -54.501s29.5 -54.167 29.5 -91.5c0 -57.333 -20.167 -104.833 -60.5 -142.5s-94.5 -59.167 -162.5 -64.5l-8 -107h-84l8 108
c-91.333 8 -164.333 36.667 -219 86l43 77c32.667 -28 66.667 -48.333 102 -61s75.666 -19 120.999 -19c50 0 88.333 10.167 115 30.5s40 48.833 40 85.5c0 20 -6.66699 36.667 -20 50s-30 24.166 -50 32.499s-48 18.166 -84 29.499
c-47.333 14.667 -85.666 28.667 -114.999 42s-54.333 32.666 -75 57.999s-31 58 -31 98c0 38.667 9.66699 73.334 29 104.001s46.333 55.334 81 74.001s74.334 29.334 119.001 32.001l9 108h84l-9 -110c40.667 -5.33301 77.167 -15 109.5 -29s59.166 -32 80.499 -54l-43 -76
c-54.667 52 -124.334 78 -209.001 78c-44.667 0 -80.167 -10.667 -106.5 -32s-39.5 -50 -39.5 -86c0 -23.333 7.16699 -42.5 21.5 -57.5z" />
    <glyph glyph-name="percent" unicode="%" horiz-adv-x="937" 
d="M275 -26l-65 43l470 714l65 -43zM113.5 333.5c-29 33 -43.499 80.5 -43.499 142.5c0 74.667 15.833 133.167 47.5 175.5s75.5 63.5 131.5 63.5c54.667 0 96.667 -16.5 126 -49.5s44 -80.833 44 -143.5c0 -75.333 -15.833 -133.833 -47.5 -175.5
s-75.834 -62.5 -132.501 -62.5c-54.667 0 -96.5 16.5 -125.5 49.5zM307.501 398.5c15.667 31 23.5 75.501 23.5 133.501c0 38.667 -6.66699 67.334 -20 86.001s-34 28 -62 28c-30.667 0 -53.667 -15.333 -69 -46s-23 -75.334 -23 -134.001
c0 -38.667 6.66699 -67.334 20 -86.001s34 -28 62 -28c30 0 52.833 15.5 68.5 46.5zM580.001 42.501c-29.333 33 -44 80.5 -44 142.5c0 74.667 15.833 133.167 47.5 175.5s75.5 63.5 131.5 63.5c55.333 0 97.5 -16.5 126.5 -49.5s43.5 -80.833 43.5 -143.5
c0 -75.333 -15.667 -133.833 -47 -175.5s-75.333 -62.5 -132 -62.5c-54.667 0 -96.667 16.5 -126 49.5zM774.001 107.501c15.333 31 23 75.501 23 133.501c0 39.333 -6.5 68.333 -19.5 87s-33.5 28 -61.5 28c-30.667 0 -53.667 -15.333 -69 -46s-23 -75.334 -23 -134.001
c0 -39.333 6.5 -68.333 19.5 -87s33.833 -28 62.5 -28c30 0 52.667 15.5 68 46.5z" />
    <glyph glyph-name="ampersand" unicode="&#x26;" horiz-adv-x="671" 
d="M564 0l-71.9971 79.999c-30 -28 -63.167 -49.5 -99.5 -64.5s-74.833 -22.5 -115.5 -22.5c-46 0 -86.5 7.83301 -121.5 23.5s-62.333 37.667 -82 66s-29.5 60.5 -29.5 96.5c0 45.333 13.667 84.833 41 118.5s68.666 65.834 123.999 96.501
c-27.333 30.667 -46.5 58.167 -57.5 82.5s-16.5 49.166 -16.5 74.499c0 48.667 16.5 87.667 49.5 117s76.5 44 130.5 44c51.333 0 92 -13.167 122 -39.5s45 -61.5 45 -105.5c0 -37.333 -10.833 -70.166 -32.5 -98.499s-58.834 -57.833 -111.501 -88.5l152 -167
c29.333 56 46.666 124.667 51.999 206h87c-8 -106 -35 -195.667 -81 -269l137 -150h-121zM253.003 614.999c-16.667 -16 -24.999 -37.001 -24.999 -63.001c0 -17.333 4.16699 -34.166 12.5 -50.499s23.833 -37.833 46.5 -64.5c41.333 24 70 45.167 86 63.5
s24 38.833 24 61.5c0 23.333 -7.16699 42 -21.5 56s-33.5 21 -57.5 21c-26.667 0 -48.334 -8 -65.001 -24zM438.004 139.998l-177.999 197c-40.667 -23.333 -70.334 -46.833 -89.001 -70.5s-28 -51.167 -28 -82.5c0 -34 12.5 -61.167 37.5 -81.5s58.833 -30.5 101.5 -30.5
c60 0 112 22.667 156 68z" />
    <glyph glyph-name="quotesingle" unicode="'" horiz-adv-x="231" 
d="M96 422l-4 283h118l-46 -283h-68z" />
    <glyph glyph-name="parenleft" unicode="(" horiz-adv-x="332" 
d="M123 0.5c-14.667 61.667 -21.999 124.169 -21.999 187.502c0 191.333 54.667 368.666 164 531.999l67 -32c-43.333 -85.333 -75.5 -169.333 -96.5 -252s-31.5 -169.334 -31.5 -260.001c0 -108 20 -222 60 -342l-70 -28c-32.667 68 -56.334 132.833 -71.001 194.5z" />
    <glyph glyph-name="parenright" unicode=")" horiz-adv-x="332" 
d="M3 -162c43.333 85.333 75.5 169.332 96.5 251.999s31.5 169.334 31.5 260.001c0 108 -20 222 -60 342l71 28c32 -68 55.333 -132.833 70 -194.5s22 -124.167 22 -187.5c0 -190 -55 -367.333 -165 -532z" />
    <glyph glyph-name="asterisk" unicode="*" horiz-adv-x="451" 
d="M442 568v-74l-140 6l75 -118l-64 -37l-65 125l-65 -125l-63 37l75 118l-140 -6v74l141 -7l-75 119l63 37l65 -125l64 125l64 -38l-75 -118z" />
    <glyph glyph-name="plus" unicode="+" 
d="M550 322l-6 -74h-206l-17 -207h-74l17 207h-207l5 74h207l17 207h74l-17 -207h207z" />
    <glyph glyph-name="comma" unicode="," horiz-adv-x="238" 
d="M169 119l-7 -80.998c-2.66699 -31.333 -10.167 -59.833 -22.5 -85.5s-31.833 -50.834 -58.5 -75.501l-41 35c30 29.333 48.667 58.666 56 87.999h-56l10 119h119z" />
    <glyph glyph-name="hyphen" unicode="-" horiz-adv-x="429" 
d="M69 226l7 81h288l-7 -81h-288z" />
    <glyph glyph-name="period" unicode="." horiz-adv-x="238" 
d="M50 119h119l-10 -119h-119z" />
    <glyph glyph-name="slash" unicode="/" horiz-adv-x="296" 
d="M35 -68l-76 28l317 796l77 -28z" />
    <glyph glyph-name="zero" unicode="0" 
d="M116 71c-40.667 52.667 -61 129.667 -61 231c0 86 10.5 159.833 31.5 221.5s51.667 108.667 92 141s88.5 48.5 144.5 48.5c78 0 137.5 -26.5 178.5 -79.5s61.5 -129.833 61.5 -230.5c0 -86 -10.667 -159.833 -32 -221.5s-52 -108.667 -92 -141s-88.333 -48.5 -145 -48.5
c-78 0 -137.333 26.333 -178 79zM418.5 163c27.667 58 41.499 143 41.499 255c0 72.667 -11.167 126 -33.5 160s-57.166 51 -104.499 51c-53.333 0 -94 -29 -122 -87s-42 -143 -42 -255c0 -72 11.333 -125.167 34 -159.5s57.667 -51.5 105 -51.5
c53.333 0 93.833 29 121.5 87z" />
    <glyph glyph-name="one" unicode="1" 
d="M367 85h155l-6 -85h-412l7 85h153l40 495l-127 -74l-42 77l207 122h74z" />
    <glyph glyph-name="two" unicode="2" 
d="M201 85h328.998l-7 -85h-462l5 77l266 264c36.667 37.333 63.167 70.5 79.5 99.5s24.5 58.167 24.5 87.5c0 31.333 -10 56 -30 74s-48.333 27 -85 27c-68 0 -135 -25.667 -201 -77l-30 76c30.667 27.333 66.834 48.333 108.501 63s85.834 22 132.501 22
c63.333 0 113.666 -16.5 150.999 -49.5s56 -77.833 56 -134.5c0 -40.667 -10.167 -79.5 -30.5 -116.5s-55.166 -80.167 -104.499 -129.5z" />
    <glyph glyph-name="three" unicode="3" 
d="M496.5 304c21 -26.667 31.499 -59.667 31.499 -99c0 -42 -10 -79 -30 -111s-48.833 -56.833 -86.5 -74.5s-82.167 -26.5 -133.5 -26.5c-47.333 0 -91.666 7.33301 -132.999 22s-77.333 35.667 -108 63l42 76c32 -26 64.333 -45.333 97 -58s67.334 -19 104.001 -19
c47.333 0 83.833 11 109.5 33s38.5 53.333 38.5 94c0 74.667 -47.667 112 -143 112h-86l7 83h76c48 0 85.667 11.5 113 34.5s41 54.833 41 95.5c0 31.333 -10.333 55.833 -31 73.5s-49.334 26.5 -86.001 26.5c-68.667 0 -135 -25.667 -199 -77l-30 76
c30 26.667 66.167 47.5 108.5 62.5s86.5 22.5 132.5 22.5c62 0 112 -15.833 150 -47.5s57 -73.5 57 -125.5c0 -42 -11.333 -78.667 -34 -110s-54 -54.666 -94 -69.999c36.667 -10.667 65.5 -29.334 86.5 -56.001z" />
    <glyph glyph-name="four" unicode="4" 
d="M568 228l-7 -82h-104l-11 -146h-102l12 146h-317l5 77l372 482h85l-37 -477h104zM149 228h213l25 309z" />
    <glyph glyph-name="five" unicode="5" 
d="M225 622l-17.998 -218.001c39.333 28 84.333 42 135 42c42 0 79 -8.66699 111 -26s56.833 -41.5 74.5 -72.5s26.5 -66.5 26.5 -106.5c0 -50 -10.667 -93.667 -32 -131s-51.333 -66.166 -90 -86.499s-83.334 -30.5 -134.001 -30.5c-46 0 -89.5 7.33301 -130.5 22
s-77.167 35.667 -108.5 63l43 76c62 -51.333 127.667 -77 197 -77c47.333 0 85 14 113 42s42 65.667 42 113c0 40 -12.333 71.833 -37 95.5s-57.667 35.5 -99 35.5c-64.667 0 -116.334 -24 -155.001 -72h-66l33 414h431l-7 -83h-329z" />
    <glyph glyph-name="six" unicode="6" horiz-adv-x="599" 
d="M449.5 419c32.333 -18 57.5 -43.167 75.5 -75.5s27 -69.5 27 -111.5c0 -46 -10.167 -87.167 -30.5 -123.5s-48.333 -64.833 -84 -85.5s-75.834 -31 -120.501 -31c-83.333 0 -147.5 26.5 -192.5 79.5s-67.5 128.5 -67.5 226.5c0 84 12.167 157.167 36.5 219.5
s59 110.5 104 144.5s97.5 51 157.5 51c42.667 0 83.834 -7.33301 123.501 -22s74.834 -35.667 105.501 -63l-42 -76c-30 25.333 -60.5 44.5 -91.5 57.5s-61.5 19.5 -91.5 19.5c-56.667 0 -102 -23.333 -136 -70s-54.667 -114.667 -62 -204l-1 -13
c17.333 32 41.666 57.333 72.999 76s66.333 28 105 28c42 0 79.167 -9 111.5 -27zM414 118c25.333 28 38.002 64.666 38.002 109.999c0 40.667 -12.333 73.334 -37 98.001s-57.334 37 -98.001 37c-42 0 -76.5 -14 -103.5 -42s-40.5 -64 -40.5 -108
c0 -40.667 13 -73.667 39 -99s60 -38 102 -38c41.333 0 74.666 14 99.999 42z" />
    <glyph glyph-name="seven" unicode="7" 
d="M98 705h477l-6 -77l-368 -628h-110l364 620h-364z" />
    <glyph glyph-name="eight" unicode="8" 
d="M554 194c0 -40 -10.665 -75.167 -31.998 -105.5s-51.833 -53.833 -91.5 -70.5s-86.167 -25 -139.5 -25c-80.667 0 -143.167 16.667 -187.5 50s-66.5 80.333 -66.5 141c0 43.333 13 81.166 39 113.499s61.333 54.5 106 66.5c-32.667 12.667 -57.834 32.167 -75.501 58.5
s-26.5 57.5 -26.5 93.5c0 40 10.167 74.833 30.5 104.5s49.166 52.5 86.499 68.5s81 24 131 24c75.333 0 133.5 -15.667 174.5 -47s61.5 -75 61.5 -131c0 -40.667 -11.5 -76.667 -34.5 -108s-53.5 -53.666 -91.5 -66.999c77.333 -26 116 -81.333 116 -166zM218.002 599
c-25.333 -20.667 -38.001 -50.667 -38.001 -90c0 -34.667 11.833 -61.667 35.5 -81s57.834 -29 102.501 -29c47.333 0 83.5 10.833 108.5 32.5s37.5 52.5 37.5 92.5c0 34.667 -11.333 61 -34 79s-56.667 27 -102 27c-48 0 -84.667 -10.333 -110 -31zM412.501 108
c28.333 21.333 42.501 51.667 42.501 91c0 40 -12.167 69.333 -36.5 88s-63.5 28 -117.5 28s-95 -10.5 -123 -31.5s-42 -52.5 -42 -94.5c0 -36.667 12.833 -64.667 38.5 -84s64.167 -29 115.5 -29c53.333 0 94.166 10.667 122.499 32z" />
    <glyph glyph-name="nine" unicode="9" 
d="M494 633.5c45.333 -53 68 -128.5 68 -226.5c0 -84 -12.167 -157.167 -36.5 -219.5s-59.166 -110.5 -104.499 -144.5s-98 -51 -158 -51c-42.667 0 -83.834 7.33301 -123.501 22s-74.834 35.667 -105.501 63l42 76c30 -25.333 60.5 -44.5 91.5 -57.5s61.5 -19.5 91.5 -19.5
c56.667 0 102.167 23.333 136.5 70s54.833 114.667 61.5 204l1 13c-17.333 -32 -41.666 -57.333 -72.999 -76s-66.333 -28 -105 -28c-42 0 -79.167 9 -111.5 27s-57.5 43.167 -75.5 75.5s-27 69.5 -27 111.5c0 46 10.167 87.167 30.5 123.5s48.333 64.833 84 85.5
s75.834 31 120.501 31c83.333 0 147.666 -26.5 192.999 -79.5zM404.5 384c27 28 40.498 64.001 40.498 108.001c0 40.667 -12.667 73.667 -38 99s-58.666 38 -99.999 38c-42 0 -76 -14 -102 -42s-39 -64.667 -39 -110c0 -40.667 12.333 -73.334 37 -98.001
s57.334 -37 98.001 -37c42 0 76.5 14 103.5 42z" />
    <glyph glyph-name="colon" unicode=":" horiz-adv-x="238" 
d="M78 488h119l-9 -119h-119zM50 119h119l-10 -119h-119z" />
    <glyph glyph-name="semicolon" unicode=";" horiz-adv-x="238" 
d="M79 488h119l-9 -119h-119zM50 119l119 0.00195312l-7 -81c-2.66699 -31.333 -10.167 -59.833 -22.5 -85.5s-31.833 -50.834 -58.5 -75.501l-41 35c30 29.333 48.667 58.666 56 87.999h-56z" />
    <glyph glyph-name="less" unicode="&#x3c;" 
d="M567 538l-6 -81l-409 -172l382 -172l-6 -81l-471 214l5 78z" />
    <glyph glyph-name="equal" unicode="=" 
d="M557 422l-5 -74h-488l6 74h487zM541 222l-4 -74h-488l5 74h487z" />
    <glyph glyph-name="greater" unicode="&#x3e;" 
d="M79 538l471 -214l-5 -78l-505 -214l6 81l409 172l-382 172z" />
    <glyph glyph-name="question" unicode="?" horiz-adv-x="450" 
d="M181 227c2 28 7.66797 53.167 17.001 75.5s20.166 41.5 32.499 57.5s28.5 35.333 48.5 58c24 26 42 48.667 54 68s18 41 18 65c0 24.667 -8.5 43.834 -25.5 57.501s-40.833 20.5 -71.5 20.5c-64 0 -128.333 -25.667 -193 -77l-30 76c30 27.333 65.333 48.333 106 63
s82.667 22 126 22c59.333 0 106.333 -13.667 141 -41s52 -63.333 52 -108c0 -26 -4.83301 -49.833 -14.5 -71.5s-21.5 -40.834 -35.5 -57.501s-33 -36.667 -57 -60c-30 -29.333 -53.667 -55.5 -71 -78.5s-29 -49.5 -35 -79.5l-4 -22h-60zM135.001 0l9 119h119l-9 -119h-119z
" />
    <glyph glyph-name="at" unicode="@" horiz-adv-x="930" 
d="M253 -101c-64.667 35.333 -114.5 85.168 -149.5 149.501s-52.5 138.166 -52.5 221.499c0 89.333 18.667 167.333 56 234s88.666 117.834 153.999 153.501s138.666 53.5 219.999 53.5c86 0 159.667 -17 221 -51s107.666 -79.167 138.999 -135.5s47 -116.833 47 -181.5
c0 -63.333 -9.5 -115.833 -28.5 -157.5s-43.833 -72.334 -74.5 -92.001s-64 -29.5 -100 -29.5c-35.333 0 -63.333 7.66699 -84 23s-32.667 36.666 -36 63.999h-2c-36 -58 -85.667 -87 -149 -87c-45.333 0 -81.833 15.667 -109.5 47s-41.5 74.333 -41.5 129
c0 46 8.83301 88.833 26.5 128.5s42.5 71.334 74.5 95.001s68.667 35.5 110 35.5c30.667 0 57.334 -7 80.001 -21s37.667 -32.333 45 -55h2l11 65h77l-46 -261c-2.66699 -20 -4 -32.667 -4 -38c0 -22 4.83301 -37.833 14.5 -47.5s24.834 -14.5 45.501 -14.5
c17.333 0 34.833 7.16699 52.5 21.5s32.5 37.666 44.5 69.999s18 73.833 18 124.5c0 53.333 -12.5 102.666 -37.5 147.999s-62.5 81.833 -112.5 109.5s-111 41.5 -183 41.5c-67.333 0 -127.666 -14.833 -180.999 -44.5s-95.166 -72.667 -125.499 -129
s-45.5 -122.5 -45.5 -198.5c0 -71.333 14 -133.666 42 -186.999s68.5 -94.5 121.5 -123.5s115.5 -43.5 187.5 -43.5c54 0 100.667 7.33301 140 22s69.333 35.334 90 62.001h102c-28 -47.333 -70.667 -84.833 -128 -112.5s-125.333 -41.5 -204 -41.5
c-86.667 0 -162.334 17.667 -227.001 53zM512 155.502c22.667 19 39.832 43.834 51.499 74.501s17.5 62.667 17.5 96c0 35.333 -8.5 62.333 -25.5 81s-40.167 28 -69.5 28c-30 0 -56 -9.33301 -78 -28s-38.667 -42.834 -50 -72.501s-17 -60.5 -17 -92.5
c0 -36.667 8.33301 -65 25 -85s38.334 -30 65.001 -30c31.333 0 58.333 9.5 81 28.5z" />
    <glyph glyph-name="A" unicode="A" horiz-adv-x="734" 
d="M603 0l-61 174h-356l-88 -174h-107l369 705h86l259 -705h-102zM227 256h286l-117 334z" />
    <glyph glyph-name="B" unicode="B" horiz-adv-x="678" 
d="M592 304c20 -27.333 29.999 -60.999 29.999 -100.999c0 -64.667 -21.667 -114.667 -65 -150s-103.666 -53 -180.999 -53h-313l55 705h285c74.667 0 131.5 -15.333 170.5 -46s58.5 -73.334 58.5 -128.001c0 -40.667 -10.833 -75.667 -32.5 -105s-53.5 -51.333 -95.5 -66
c38.667 -10 68 -28.667 88 -56zM213.999 622.001l-18 -222h183c100.667 0 151 40 151 120c0 68 -46.333 102 -139 102h-177zM485.499 112.501c25.667 19.667 38.5 50.167 38.5 91.5c0 75.333 -47.333 113 -142 113h-192l-19 -234h199c51.333 0 89.833 9.83301 115.5 29.5z
" />
    <glyph glyph-name="C" unicode="C" horiz-adv-x="677" 
d="M212 32c-46.667 26.667 -82.665 65.167 -107.998 115.5s-38 109.5 -38 177.5c0 78 14.167 146.333 42.5 205s68.833 103.834 121.5 135.501s114 47.5 184 47.5c50.667 0 97.167 -7.33301 139.5 -22s78.5 -36.334 108.5 -65.001l-43 -76
c-31.333 27.333 -62.833 47 -94.5 59s-67.834 18 -108.501 18c-77.333 0 -137.333 -26.833 -180 -80.5s-64 -127.834 -64 -222.501c0 -79.333 18.5 -140.166 55.5 -182.499s89.833 -63.5 158.5 -63.5c70 0 137.333 25.667 202 77l31 -76c-29.333 -28 -65 -49.5 -107 -64.5
s-87.333 -22.5 -136 -22.5c-62.667 0 -117.334 13.333 -164.001 40z" />
    <glyph glyph-name="D" unicode="D" horiz-adv-x="746" 
d="M118 705h244c106 0 188.333 -28.667 247 -86s88 -137 88 -239c0 -79.333 -14.333 -147.333 -43 -204s-70.5 -100.167 -125.5 -130.5s-121.167 -45.5 -198.5 -45.5h-267zM323 86c89.333 0 156.5 25 201.5 75s67.5 123.333 67.5 220c0 78.667 -20 138 -60 178
s-100 60 -180 60h-137l-42 -533h150z" />
    <glyph glyph-name="E" unicode="E" horiz-adv-x="585" 
d="M570 622h-356l-18 -222h336l-7 -84h-335l-19 -233h356l-6 -83h-458l55 705h458z" />
    <glyph glyph-name="F" unicode="F" horiz-adv-x="561" 
d="M559 621h-344l-18 -221h325l-7 -84h-325l-25 -316h-102l55 705h448z" />
    <glyph glyph-name="G" unicode="G" horiz-adv-x="728" 
d="M406 374l258.001 0.000976562l-26 -331c-30.667 -15.333 -68.334 -27.666 -113.001 -36.999s-89 -14 -133 -14c-104 0 -184.5 29 -241.5 87s-85.5 138 -85.5 240c0 80 14.667 149.667 44 209s71 105 125 137s117.333 48 190 48c102 0 184.667 -29 248 -87l-43 -76
c-32.667 27.333 -64.834 47.166 -96.501 59.499s-67.5 18.5 -107.5 18.5c-80.667 -0.666992 -143.167 -28 -187.5 -82s-66.5 -129 -66.5 -225c0 -78.667 19.333 -139.334 58 -182.001s96.334 -64 173.001 -64c49.333 0 98.333 8.33301 147 25l16 196h-165z" />
    <glyph glyph-name="H" unicode="H" horiz-adv-x="762" 
d="M614 705h102l-56 -705h-102l25 316h-393l-25 -316h-102l55 705h102l-24 -305h394z" />
    <glyph glyph-name="I" unicode="I" horiz-adv-x="267" 
d="M63 0l55 705h103l-55 -705h-103z" />
    <glyph glyph-name="J" unicode="J" horiz-adv-x="341" 
d="M-21 77l62 3.99902c34.667 2.66699 61 13.334 79 32.001s28.333 46.667 31 84l40 508h104l-40 -508c-4.66699 -64 -24.167 -112.333 -58.5 -145s-83.5 -51 -147.5 -55l-66 -5z" />
    <glyph glyph-name="K" unicode="K" horiz-adv-x="642" 
d="M680 705l-383 -344l345 -361h-124l-326 333l-26 -333h-103l55 705h103l-25 -320l351 320h133z" />
    <glyph glyph-name="L" unicode="L" horiz-adv-x="547" 
d="M63 0l55 705h104l-49 -619h342l-7 -86h-445z" />
    <glyph glyph-name="M" unicode="M" horiz-adv-x="841" 
d="M712 705h82l-55 -705h-93l40 507l-240 -394h-70l-180 391l-39 -504h-93l55 705h84l216 -486z" />
    <glyph glyph-name="N" unicode="N" horiz-adv-x="743" 
d="M600 705h97l-56 -705h-78l-361 532l-42 -532h-97l55 705h79l361 -530z" />
    <glyph glyph-name="O" unicode="O" horiz-adv-x="771" 
d="M215.5 31c-48.333 26.667 -85.334 65.167 -111.001 115.5s-38.5 109.833 -38.5 178.5c0 78 13.833 146.333 41.5 205s66.667 104 117 136s108.833 48 175.5 48c66 0 123.167 -13.333 171.5 -40s85.5 -65.167 111.5 -115.5s39 -109.833 39 -178.5
c0 -78 -13.833 -146.333 -41.5 -205s-66.667 -104 -117 -136s-109.166 -48 -176.499 -48c-66 0 -123.167 13.333 -171.5 40zM509.499 113c34.333 24 60.834 58.832 79.501 104.499s28 99.834 28 162.501c0 80 -18.667 141.333 -56 184s-90.666 64 -159.999 64
c-71.333 0 -127.5 -27 -168.5 -81s-61.5 -128.333 -61.5 -223c0 -79.333 18.667 -140.333 56 -183s90.666 -64 159.999 -64c47.333 0 88.166 12 122.499 36z" />
    <glyph glyph-name="P" unicode="P" horiz-adv-x="652" 
d="M571.5 652c39.667 -35.333 59.498 -83.668 59.498 -145.001c0 -73.333 -22.167 -129.166 -66.5 -167.499s-106.166 -57.5 -185.499 -57.5h-191l-22 -282h-103l55 705h285c72.667 0 128.834 -17.667 168.501 -53zM531.998 501.998c0 80 -46.667 120 -140 120h-177
l-20 -257h177c106.667 0 160 45.667 160 137z" />
    <glyph glyph-name="Q" unicode="Q" horiz-adv-x="771" 
d="M574 -50l60.002 -111.997l-90 -43l-78 145c-19.333 34 -52 51.333 -98 52c-60.667 1.33301 -113.834 15.666 -159.501 42.999s-80.834 65.666 -105.501 114.999s-37 107.666 -37 174.999c0 78 13.833 146.333 41.5 205s66.667 104 117 136s108.833 48 175.5 48
s124.167 -13.333 172.5 -40s85.333 -65.167 111 -115.5s38.5 -109.833 38.5 -178.5c0 -89.333 -18 -166 -54 -230s-87.333 -109 -154 -135c22 -10 42 -31.667 60 -65zM555.502 157.503c41 53.667 61.5 127.833 61.5 222.5c0 80 -18.667 141.333 -56 184
s-90.666 64 -159.999 64c-71.333 0 -127.5 -27 -168.5 -81s-61.5 -128.333 -61.5 -223c0 -79.333 18.667 -140.333 56 -183s90.666 -64 159.999 -64c71.333 0 127.5 26.833 168.5 80.5z" />
    <glyph glyph-name="R" unicode="R" horiz-adv-x="690" 
d="M496.5 274.5c11.667 -12.333 22.5 -29.1689 32.5 -50.502l106 -224h-112l-105 226c-11.333 24.667 -25.666 41.667 -42.999 51s-41 14 -71 14h-116l-23 -291h-102l55 705h300c72 0 127.667 -16.667 167 -50s59 -80.666 59 -141.999c0 -60.667 -15.833 -109 -47.5 -145
s-78.834 -58.333 -141.501 -67c16 -5.33301 29.833 -14.166 41.5 -26.499zM389 373.997c52 0 91 11 117 33s39 55.333 39 100c0 39.333 -11.333 68.333 -34 87s-57 28 -103 28h-194l-20 -248h195z" />
    <glyph glyph-name="S" unicode="S" horiz-adv-x="627" 
d="M32 79l43 75.999c36 -27.333 72.667 -47.333 110 -60s78.666 -19 123.999 -19c53.333 0 94.166 9.5 122.499 28.5s42.5 45.833 42.5 80.5c0 22 -7.16699 40 -21.5 54s-32.166 25.167 -53.499 33.5s-51 18.166 -89 29.499c-49.333 14.667 -89.5 28.834 -120.5 42.501
s-57.333 33.667 -79 60s-32.5 60.833 -32.5 103.5c0 41.333 11.167 77.5 33.5 108.5s53.833 54.833 94.5 71.5s88.334 25 143.001 25c49.333 0 96 -7.66699 140 -23s80.667 -36.666 110 -63.999l-42 -76c-62.667 52.667 -132.667 79 -210 79
c-52.667 0 -93.334 -10 -122.001 -30s-43 -48 -43 -84c0 -24 7.66699 -43.833 23 -59.5s34.333 -28 57 -37s53.667 -19.167 93 -30.5c48 -14 86.667 -27.5 116 -40.5s54.5 -31.833 75.5 -56.5s31.5 -57 31.5 -97c0 -62.667 -24.167 -112 -72.5 -148s-114.833 -54 -199.5 -54
c-109.333 0 -200.666 29 -273.999 87z" />
    <glyph glyph-name="T" unicode="T" horiz-adv-x="605" 
d="M231 0l49 619h-238l7 86h580l-7 -86h-238l-49 -619h-104z" />
    <glyph glyph-name="U" unicode="U" horiz-adv-x="728" 
d="M147.5 57c-46.333 43.333 -69.499 106.333 -69.499 189c0 8.66699 0.666992 21.667 2 39l33 420h102l-33 -421c-0.666992 -7.33301 -1 -18 -1 -32c0 -117.333 58.667 -176 176 -176c59.333 0 105.166 15.5 137.499 46.5s51.166 79.833 56.499 146.5l34 436h102l-34 -427
c-7.33301 -95.333 -36.166 -166.833 -86.499 -214.5s-121.5 -71.5 -213.5 -71.5c-90.667 0 -159.167 21.667 -205.5 65z" />
    <glyph glyph-name="V" unicode="V" horiz-adv-x="701" 
d="M635 705h106l-366 -705h-87l-255 705h107l202 -575z" />
    <glyph glyph-name="W" unicode="W" horiz-adv-x="1105" 
d="M1012 705h100l-303 -705h-85l-148 544l-234 -544h-85l-192 705h104l145 -559l239 559l75 -1l147 -561z" />
    <glyph glyph-name="X" unicode="X" horiz-adv-x="654" 
d="M679 705l-285 -347l241 -358h-120l-184 281l-227 -281h-123l297 361l-231 344h120l175 -267l214 267h123z" />
    <glyph glyph-name="Y" unicode="Y" horiz-adv-x="611" 
d="M674 705l-310 -376l-26 -329h-103l26 328l-252 377h115l193 -290l238 290h119z" />
    <glyph glyph-name="Z" unicode="Z" horiz-adv-x="595" 
d="M585 705l-6 -75l-424 -546h392l-7 -84h-513l6 76l424 545h-381l7 84h502z" />
    <glyph glyph-name="bracketleft" unicode="[" horiz-adv-x="331" 
d="M75 -180l70 885h212l-6 -78h-113l-58 -729h114l-6 -78h-213z" />
    <glyph glyph-name="backslash" unicode="\" horiz-adv-x="296" 
d="M211 -68l-193 803l82 21l194 -803z" />
    <glyph glyph-name="bracketright" unicode="]" horiz-adv-x="331" 
d="M189 -180h-213l6 78h114l57 729h-114l6 78h213z" />
    <glyph glyph-name="asciicircum" unicode="^" 
d="M545 141h-79l-141 396l-204 -396h-82l253 488h77z" />
    <glyph glyph-name="underscore" unicode="_" horiz-adv-x="500" 
d="M-14 -63l5 63h480l-4 -63h-481z" />
    <glyph glyph-name="grave" unicode="`" horiz-adv-x="300" 
d="M141 552l-121 203h102l86 -203h-67z" />
    <glyph glyph-name="a" unicode="a" horiz-adv-x="535" 
d="M472 329c0 -13.333 -0.327148 -23.332 -0.994141 -29.999l-23 -299h-97l6 77c-14 -27.333 -33.5 -48.166 -58.5 -62.499s-53.5 -21.5 -85.5 -21.5c-48.667 0 -88.834 13.167 -120.501 39.5s-47.5 60.166 -47.5 101.499c0 36.667 9.66699 66 29 88s50.166 38 92.499 48
s99.166 15 170.499 15h36l2 25c2.66699 38 -3.83301 65.833 -19.5 83.5s-41.834 26.5 -78.501 26.5c-26 0 -53 -4.33301 -81 -13s-55.333 -21.334 -82 -38.001l-26 71c25.333 18 56.666 32.5 93.999 43.5s73.666 16.5 108.999 16.5c120.667 0 181 -57 181 -171z
M325.506 105.001c24.333 24.667 37.833 56.333 40.5 95l2 28h-28c-52 0 -91.833 -2.83301 -119.5 -8.5s-47 -14.5 -58 -26.5s-16.5 -28.333 -16.5 -49c0 -23.333 8.16699 -41.833 24.5 -55.5s38.5 -20.5 66.5 -20.5c34.667 0 64.167 12.333 88.5 37z" />
    <glyph glyph-name="b" unicode="b" horiz-adv-x="591" 
d="M450.5 471c31.667 -19.333 56.1631 -46.832 73.4961 -82.499s26 -77.167 26 -124.5c0 -53.333 -9.66699 -100.5 -29 -141.5s-46.5 -72.833 -81.5 -95.5s-75.167 -34 -120.5 -34c-37.333 0 -69.666 7.66699 -96.999 23s-48.333 37.666 -63 66.999l-7 -83h-101l56 705h101
l-23 -284c16.667 24.667 38.834 44 66.501 58s57.834 21 90.501 21c40.667 0 76.834 -9.66699 108.501 -29zM409.496 123.001c25 33.333 37.5 79.333 37.5 138c0 50.667 -11.667 89.667 -35 117s-56.666 41 -99.999 41c-44 0 -78.667 -16.833 -104 -50.5
s-38 -79.5 -38 -137.5c0 -51.333 11.667 -90.5 35 -117.5s56.666 -40.5 99.999 -40.5c44.667 0 79.5 16.667 104.5 50z" />
    <glyph glyph-name="c" unicode="c" horiz-adv-x="483" 
d="M153 22c-35.333 19.333 -62.6719 46.832 -82.0049 82.499s-29 77.167 -29 124.5c0 54.667 10.333 102.5 31 143.5s50.334 72.5 89.001 94.5s84 33 136 33c36.667 0 70.334 -5.5 101.001 -16.5s57.334 -26.5 80.001 -46.5l-36 -72c-46.667 36 -94 54 -142 54
c-49.333 0 -87.333 -16.667 -114 -50s-40 -80 -40 -140c0 -49.333 12.167 -87.5 36.5 -114.5s58.5 -40.5 102.5 -40.5c25.333 0 49 4.33301 71 13s44.333 22.334 67 41.001l25 -73c-20.667 -19.333 -46.167 -34.5 -76.5 -45.5s-62.166 -16.5 -95.499 -16.5
c-47.333 0 -88.666 9.66699 -123.999 29z" />
    <glyph glyph-name="d" unicode="d" horiz-adv-x="591" 
d="M556 705l-54.999 -704.999h-100l6 73c-16 -25.333 -37.833 -45 -65.5 -59s-58.167 -21 -91.5 -21c-40.667 0 -76.834 9.5 -108.501 28.5s-56.167 46.167 -73.5 81.5s-26 76.666 -26 123.999c0 54 9.66699 101.667 29 143s46.5 73.333 81.5 96s75.167 34 120.5 34
c36.667 0 68.667 -7.66699 96 -23s48.333 -37.333 63 -66l23 294h101zM384.001 123.501c25.333 33.667 37.998 79.501 37.998 137.501c0 51.333 -11.667 90.5 -35 117.5s-56.666 40.5 -99.999 40.5c-44.667 0 -79.667 -16.667 -105 -50s-38 -79 -38 -137
c0 -50.667 11.833 -89.834 35.5 -117.501s56.834 -41.5 99.501 -41.5c44.667 0 79.667 16.833 105 50.5z" />
    <glyph glyph-name="e" unicode="e" horiz-adv-x="529" 
d="M436 443c36.667 -38 54.998 -93.333 54.998 -166c0 -15.333 -1 -32 -3 -50h-346c0.666992 -49.333 13.334 -87.5 38.001 -114.5s60.334 -40.5 107.001 -40.5c56.667 0 108 18 154 54l26 -71c-20.667 -18.667 -48 -33.667 -82 -45s-68.667 -17 -104 -17
c-48 0 -90 9.66699 -126 29s-63.833 47 -83.5 83s-29.5 77.667 -29.5 125c0 52.667 10.167 99.5 30.5 140.5s49 72.833 86 95.5s79.167 34 126.5 34c64 0 114.333 -19 151 -57zM192.498 390c-24.333 -24 -39.8311 -59.001 -46.498 -105.001h258
c1.33301 46.667 -8.33398 81.834 -29.001 105.501s-49.334 35.5 -86.001 35.5c-40 0 -72.167 -12 -96.5 -36z" />
    <glyph glyph-name="f" unicode="f" horiz-adv-x="342" 
d="M222 488l133.003 -0.000976562l-6 -78h-133l-33 -410h-101l32 410h-94l6 78h94l2 20c4.66699 64 25.167 112 61.5 144s90.166 50 161.499 54l45 2l2 -76l-56 -3c-36.667 -2.66699 -63.834 -12.667 -81.501 -30s-27.834 -44.666 -30.501 -81.999z" />
    <glyph glyph-name="g" unicode="g" horiz-adv-x="595" 
d="M543 488l-35.001 -446c-6 -78 -29.5 -135.667 -70.5 -173s-99.167 -56 -174.5 -56c-86 0 -160 21.333 -222 64l36 73c32.667 -20.667 63.5 -35.5 92.5 -44.5s60.833 -13.5 95.5 -13.5c88.667 0 136.334 47 143.001 141l5 60c-16 -24.667 -38 -43.834 -66 -57.501
s-59 -20.5 -93 -20.5c-42 0 -79 9.16699 -111 27.5s-56.667 44.5 -74 78.5s-26 73.333 -26 118c0 50.667 9.66699 95.834 29 135.501s46.5 70.5 81.5 92.5s75.5 33 121.5 33c37.333 0 70 -7.83301 98 -23.5s49.333 -37.5 64 -65.5l6 77h100zM387.499 142
c25.667 31.333 38.499 74.333 38.499 129c0 48 -11.833 84.667 -35.5 110s-57.167 38 -100.5 38c-45.333 0 -80.833 -15.833 -106.5 -47.5s-38.5 -75.167 -38.5 -130.5c0 -46.667 11.833 -82.667 35.5 -108s57.5 -38 101.5 -38c44.667 0 79.834 15.667 105.501 47z" />
    <glyph glyph-name="h" unicode="h" horiz-adv-x="576" 
d="M470.5 457c28.333 -28.667 42.498 -71 42.498 -127c0 -13.333 -0.333008 -23.333 -1 -30l-23 -300h-101l23 295c0.666992 4.66699 1 11.667 1 21c0 68 -32.667 102 -98 102c-41.333 0 -74.166 -12.333 -98.499 -37s-38.166 -59 -41.499 -103l-22 -278h-101l56 705h101
l-23 -284c16.667 25.333 39 44.833 67 58.5s59.333 20.5 94 20.5c54.667 0 96.167 -14.333 124.5 -43z" />
    <glyph glyph-name="i" unicode="i" horiz-adv-x="242" 
d="M51 0l39 488h101l-39 -488h-101zM99 706h117l-9 -105h-116z" />
    <glyph glyph-name="j" unicode="j" horiz-adv-x="242" 
d="M153 11c-5.33301 -64.667 -23.333 -111.833 -54 -141.5s-81 -46.5 -151 -50.5l-47 -3l-3 75l49 3c34 3.33301 59.167 12.833 75.5 28.5s25.833 40.167 28.5 73.5l39 492h101zM99 706.001h117l-9 -105h-116z" />
    <glyph glyph-name="k" unicode="k" horiz-adv-x="517" 
d="M529 487l-248 -235l230 -252h-125l-216 232l-18 -232h-101l56 705h101l-35 -437l229 219h127z" />
    <glyph glyph-name="l" unicode="l" horiz-adv-x="242" 
d="M51 0l56 705h101l-56 -705h-101z" />
    <glyph glyph-name="m" unicode="m" horiz-adv-x="862" 
d="M759.5 457c26.333 -28.667 39.499 -70.6709 39.499 -126.004c0 -13.333 -0.333008 -23.333 -1 -30l-23 -301h-101l23 297c0.666992 5.33301 1 13 1 23c0 65.333 -28.667 98 -86 98c-38 0 -67.833 -12.167 -89.5 -36.5s-34.167 -60.166 -37.5 -107.499l-21 -274h-101
l23 296c0.666992 5.33301 1 13.333 1 24c0 33.333 -7.16699 58 -21.5 74s-36.166 24 -65.499 24c-37.333 0 -66.833 -12.167 -88.5 -36.5s-34.167 -60.166 -37.5 -107.499l-22 -274h-101l39 487h99l-5 -66c34.667 52.667 85 79 151 79c36.667 0 67 -7.66699 91 -23
s41.333 -37.666 52 -66.999c17.333 28.667 40.333 50.834 69 66.501s61 23.5 97 23.5c50.667 0 89.167 -14.333 115.5 -43z" />
    <glyph glyph-name="n" unicode="n" horiz-adv-x="576" 
d="M470.5 457c28.333 -28.667 42.499 -71 42.499 -127c0 -13.333 -0.333008 -23.333 -1 -30l-23 -300h-101l23 295c0.666992 4.66699 1 11.667 1 21c0 68 -32.667 102 -98 102c-41.333 0 -74.166 -12.333 -98.499 -37s-38.166 -59 -41.499 -103l-22 -278h-101l39 488h99
l-6 -70c16.667 26 39.167 46.167 67.5 60.5s60.166 21.5 95.499 21.5c54.667 0 96.167 -14.333 124.5 -43z" />
    <glyph glyph-name="o" unicode="o" horiz-adv-x="564" 
d="M153 22c-35.333 19.333 -62.667 47 -82 83s-29 77.667 -29 125c0 54.667 10.167 102.334 30.5 143.001s49 72 86 94s79.833 33 128.5 33c48 0 89.667 -9.83301 125 -29.5s62.666 -47.334 81.999 -83.001s29 -77.5 29 -125.5c0 -54.667 -10.167 -102.167 -30.5 -142.5
s-49 -71.5 -86 -93.5s-80.167 -33 -129.5 -33c-47.333 0 -88.666 9.66699 -123.999 29zM383.999 125c24.667 34.667 37.001 81.334 37.001 140.001c0 50 -11.5 88.167 -34.5 114.5s-55.833 39.5 -98.5 39.5c-46.667 0 -82.334 -17.333 -107.001 -52
s-37 -81.334 -37 -140.001c0 -50.667 11.5 -89 34.5 -115s56.167 -39 99.5 -39c46 0 81.333 17.333 106 52z" />
    <glyph glyph-name="p" unicode="p" horiz-adv-x="591" 
d="M450.5 471c31.667 -19.333 56.1641 -46.8311 73.4971 -82.498s26 -77.167 26 -124.5c0 -53.333 -9.66699 -100.5 -29 -141.5s-46.5 -72.833 -81.5 -95.5s-75.167 -34 -120.5 -34c-37.333 0 -69.666 7.66699 -96.999 23s-48.333 37.666 -63 66.999l-21 -263h-101l52 668
h101l-6 -69c16.667 25.333 38.834 45.166 66.501 59.499s58.167 21.5 91.5 21.5c40.667 0 76.834 -9.66699 108.501 -29zM409.497 123.002c25 33.333 37.5 79.333 37.5 138c0 50.667 -11.667 89.667 -35 117s-56.666 41 -99.999 41c-44 0 -78.667 -16.833 -104 -50.5
s-38 -79.5 -38 -137.5c0 -51.333 11.667 -90.5 35 -117.5s56.666 -40.5 99.999 -40.5c44.667 0 79.5 16.667 104.5 50z" />
    <glyph glyph-name="q" unicode="q" horiz-adv-x="591" 
d="M539 488l-53.002 -667.999h-101l20 250c-16.667 -24.667 -38.667 -43.667 -66 -57s-57 -20 -89 -20c-41.333 0 -77.666 9.5 -108.999 28.5s-55.666 46.333 -72.999 82s-26 77.167 -26 124.5c0 53.333 9.66699 100.666 29 141.999s46.333 73.333 81 96s74.667 34 120 34
c37.333 0 70 -8 98 -24s49 -38.333 63 -67l6 79h100zM382.998 123.501c25.333 33.667 37.999 79.5 37.999 137.5c0 52 -11.5 91.333 -34.5 118s-56.167 40 -99.5 40c-44.667 0 -79.667 -16.667 -105 -50s-38 -79.333 -38 -138c0 -50 11.833 -88.833 35.5 -116.5
s56.834 -41.5 99.501 -41.5c44 0 78.667 16.833 104 50.5z" />
    <glyph glyph-name="r" unicode="r" horiz-adv-x="366" 
d="M381 500l-0.000976562 -85.001l-66 -7c-46 -4.66699 -80.167 -18 -102.5 -40s-35.166 -54.333 -38.499 -97l-22 -271h-101l39 487h97l-6 -75c17.333 26.667 40 46.834 68 60.501s62 22.167 102 25.5z" />
    <glyph glyph-name="s" unicode="s" horiz-adv-x="482" 
d="M25 55l35.998 73.002c52 -38.667 109 -58 171 -58c34.667 0 60.834 5.33301 78.501 16s26.5 26 26.5 46c0 19.333 -9 34.166 -27 44.499s-46 20.833 -84 31.5c-34.667 10 -62.667 19.667 -84 29s-39.666 23.166 -54.999 41.499s-23 42.166 -23 71.499
c0 45.333 18.167 81.666 54.5 108.999s84.5 41 144.5 41c35.333 0 69.333 -5.66699 102 -17s59.667 -26.666 81 -45.999l-36 -71c-46.667 38 -95.667 57 -147 57c-33.333 0 -59 -5.66699 -77 -17s-27 -28 -27 -50c0 -19.333 8.83301 -34 26.5 -44s45.5 -20.333 83.5 -31
c34.667 -10 62.667 -19.667 84 -29s39.666 -23.166 54.999 -41.499s23 -42.5 23 -72.5c0 -45.333 -18.167 -80.833 -54.5 -106.5s-85.166 -38.5 -146.499 -38.5c-78.667 0 -147 20.667 -205 62z" />
    <glyph glyph-name="t" unicode="t" horiz-adv-x="353" 
d="M197 181l-1.00098 -17c0 -62 30.667 -93 92 -93c14 0 29 1 45 3l-11 -76c-16 -3.33301 -32.667 -5 -50 -5c-57.333 0 -101.166 13.833 -131.499 41.5s-45.5 67.5 -45.5 119.5c0 10.667 0.333008 18.667 1 24l18 232h-94l6 78h94l12 147h101l-12 -147h134l-6 -78h-134z
" />
    <glyph glyph-name="u" unicode="u" horiz-adv-x="569" 
d="M517 488l-37.9971 -488h-99l6 74c-16.667 -26 -38.834 -46 -66.501 -60s-58.5 -21 -92.5 -21c-54 0 -95 14.5 -123 43.5s-42 71.5 -42 127.5c0 12 0.333008 21 1 27l24 297h101l-24 -291l-1 -18c0 -69.333 32.333 -104 97 -104c39.333 0 70.666 12.333 93.999 37
s36.666 58.667 39.999 102l22 274h101z" />
    <glyph glyph-name="v" unicode="v" horiz-adv-x="520" 
d="M433 487h103l-250 -487h-91l-172 487h103l124 -372z" />
    <glyph glyph-name="w" unicode="w" horiz-adv-x="848" 
d="M748 488h102l-225 -488h-91l-104 348l-154 -348h-92l-148 488h102l103 -367l163 367h78l105 -369z" />
    <glyph glyph-name="x" unicode="x" horiz-adv-x="525" 
d="M533 488l-210 -238l183 -250h-120l-127 180l-156 -180h-122l224 252l-174 236h120l116 -165l143 165h123z" />
    <glyph glyph-name="y" unicode="y" horiz-adv-x="520" 
d="M433 487h103l-343 -667h-102l99 193l-167 474h103l124 -372z" />
    <glyph glyph-name="z" unicode="z" horiz-adv-x="506" 
d="M475 488l-5 -71l-310 -339h294l-7 -78h-418l5 70l310 340h-275l6 78h400z" />
    <glyph glyph-name="braceleft" unicode="{" horiz-adv-x="368" 
d="M225.5 298.5c-16.333 -19 -35.167 -30.835 -56.5 -35.502c20.667 -4.66699 37.834 -16.667 51.501 -36s19.167 -43.666 16.5 -72.999l-17 -212c-0.666992 -15.333 2.16602 -26.5 8.49902 -33.5s16.5 -10.5 30.5 -10.5h72l-6 -78h-94c-38.667 0 -67.5 10 -86.5 30
s-27.167 47 -24.5 81l17 212c2 27.333 -1.5 47 -10.5 59s-25.833 18.667 -50.5 20l-31 3l5 75l32 3c25.333 1.33301 43.5 8 54.5 20s17.5 31.667 19.5 59l16 212c3.33301 36.667 14.833 64.334 34.5 83.001s46.167 28 79.5 28h108l-6 -78h-71
c-14 0 -24.833 -3.5 -32.5 -10.5s-12.167 -18.167 -13.5 -33.5l-17 -212c-2.66699 -29.333 -12.167 -53.5 -28.5 -72.5z" />
    <glyph glyph-name="bar" unicode="|" horiz-adv-x="269" 
d="M53 -180l70 885h95l-70 -885h-95z" />
    <glyph glyph-name="braceright" unicode="}" horiz-adv-x="368" 
d="M326 300l-5.99902 -75.001l-31 -3c-25.333 -1.33301 -43.5 -8.16602 -54.5 -20.499s-17.833 -31.833 -20.5 -58.5l-16 -212c-6.66699 -74 -46 -111 -118 -111h-104l6 78h71c29.333 0 45 14.667 47 44l16 212c2.66699 29.333 12.167 53.666 28.5 72.999
s35.166 31.333 56.499 36c-20 4.66699 -36.833 16.5 -50.5 35.5s-19.167 43.167 -16.5 72.5l16 212c2.66699 29.333 -10.333 44 -39 44h-72l6 78h94c38.667 0 67.5 -10 86.5 -30s27.167 -47 24.5 -81l-17 -212c-2 -26.667 1.5 -46.167 10.5 -58.5
s26.167 -19.166 51.5 -20.499z" />
    <glyph glyph-name="asciitilde" unicode="~" 
d="M550 313c-14.667 -32 -34.1689 -56.833 -58.502 -74.5s-51.5 -26.5 -81.5 -26.5c-20.667 0 -40.167 3.66699 -58.5 11s-41.166 18 -68.499 32c-20.667 11.333 -37.334 19.666 -50.001 24.999s-24.667 8 -36 8c-36 0 -64 -21.333 -84 -64l-56 34
c14.667 32 34 56.833 58 74.5s51 26.5 81 26.5c20.667 0 40.834 -3.83301 60.501 -11.5s42.167 -18.5 67.5 -32.5c20.667 -11.333 37.334 -19.666 50.001 -24.999s24.667 -8 36 -8c36 0 64 21.333 84 64z" />
    <glyph glyph-name="uni00A0" unicode="&#xa0;" horiz-adv-x="264" 
 />
    <glyph glyph-name="exclamdown" unicode="&#xa1;" horiz-adv-x="238" 
d="M69 369l9 119h119l-9 -119h-119zM91 290h62l-5 -470h-125z" />
    <glyph glyph-name="cent" unicode="&#xa2;" 
d="M494 55c-19.333 -18 -42.668 -32.333 -70.001 -43s-56 -17 -86 -19l-8 -108h-85l9 116c-52 12.667 -92.833 39 -122.5 79s-44.5 89.667 -44.5 149c0 74 18.5 134.667 55.5 182s87.5 75.666 151.5 84.999l8 111h85l-9 -109c58.667 -6 107.334 -26.333 146.001 -61l-37 -72
c-46 36 -93.333 54 -142 54s-86.5 -16.667 -113.5 -50s-40.5 -80 -40.5 -140c0 -49.333 12.167 -87.5 36.5 -114.5s58.5 -40.5 102.5 -40.5c25.333 0 48.833 4.33301 70.5 13s44.5 22.334 68.5 41.001z" />
    <glyph glyph-name="sterling" unicode="&#xa3;" 
d="M296 599c-20.667 -20 -32.335 -48.999 -35.002 -86.999l-10 -125h175l-6 -68h-174l-19 -234h324l-7 -85h-517l7 85h91l18 234h-91l5 68h91l10 129c5.33301 60.667 27.5 108.667 66.5 144s90.167 53 153.5 53c42.667 0 83.167 -7.33301 121.5 -22s71.5 -36 99.5 -64
l-43 -76c-27.333 25.333 -56.166 44.666 -86.499 57.999s-60.166 20 -89.499 20c-35.333 0 -63.333 -10 -84 -30z" />
    <glyph glyph-name="currency" unicode="&#xa4;" 
d="M492 94l52.999 -55.001l-46 -46l-53 54c-43.333 -33.333 -91.666 -50 -144.999 -50c-54.667 0 -103.667 17 -147 51l-54 -55l-46 46l54 56c-32.667 44 -49 94 -49 150c0 56.667 16.333 106.667 49 150l-54 56l47 47l53 -56c43.333 34 92.333 51 147 51
c54 0 102 -16.333 144 -49l52 55l49 -49l-53 -55c32.667 -43.333 49 -93.333 49 -150c0 -55.333 -16.667 -105.666 -50 -150.999zM377.999 101.499c24 15 43 35.167 57 60.5s21 53 21 83c0 30.667 -7.16699 58.667 -21.5 84s-33.5 45.333 -57.5 60s-50.333 22 -79 22
c-28 0 -53.833 -7.5 -77.5 -22.5s-42.5 -35.167 -56.5 -60.5s-21 -53 -21 -83s7 -57.667 21 -83s33 -45.5 57 -60.5s50.333 -22.5 79 -22.5c28 0 54 7.5 78 22.5z" />
    <glyph glyph-name="yen" unicode="&#xa5;" 
d="M646 705l-246 -315h142l-6 -68h-178l-7 -84h179l-6 -68h-178l-14 -170h-103l14 170h-179l6 68h178l7 84h-179l6 68h141l-197 315h114l172 -284l220 284h114z" />
    <glyph glyph-name="brokenbar" unicode="&#xa6;" horiz-adv-x="269" 
d="M97 371l26 334h95l-26 -334h-95zM54 -180l26 334h95l-26 -334h-95z" />
    <glyph glyph-name="section" unicode="&#xa7;" horiz-adv-x="549" 
d="M489 127.5c-12.667 -24.333 -30.001 -45.1641 -52.001 -62.4971c9.33301 -22 14 -44 14 -66c0 -58 -19.333 -103.333 -58 -136s-90.334 -49 -155.001 -49c-82 0 -150.667 20.667 -206 62l37 73c28 -20 55.333 -34.5 82 -43.5s55 -13.5 85 -13.5
c36.667 0 65.167 8.66699 85.5 26s30.5 41.666 30.5 72.999c0 21.333 -5.66699 39.5 -17 54.5s-30.666 30.167 -57.999 45.5l-102 56c-46 26.667 -79.333 53.167 -100 79.5s-31 57.166 -31 92.499c0 28.667 6.33301 55.5 19 80.5s30 46.167 52 63.5
c-9.33301 18.667 -14 40 -14 64c0 56.667 19.667 101.5 59 134.5s90.333 49.833 153 50.5c34.667 0 68.167 -5.5 100.5 -16.5s60.5 -26.167 84.5 -45.5l-36 -71c-44.667 36.667 -93.667 55 -147 55c-35.333 0 -63.333 -9 -84 -27s-31 -42 -31 -72
c0 -20 5.83301 -37.667 17.5 -53s30.5 -31 56.5 -47l102 -56c46.667 -27.333 80.334 -54.333 101.001 -81s31 -57.334 31 -92.001c0 -28 -6.33301 -54.167 -19 -78.5zM390.999 123.002c14.667 21.333 22.001 43.332 22.001 65.999c0 20.667 -6.83301 39.5 -20.5 56.5
s-36.5 35.167 -68.5 54.5l-99 58c-28 16.667 -49.333 32 -64 46c-15.333 -22.667 -23 -45 -23 -67c0 -20 7.16699 -38.833 21.5 -56.5s36.833 -35.5 67.5 -53.5l100 -58c25.333 -15.333 46.666 -30.666 63.999 -45.999z" />
    <glyph glyph-name="dieresis" unicode="&#xa8;" horiz-adv-x="300" 
d="M46 703h104l-8 -99h-103zM223 703h103l-7 -99h-104z" />
    <glyph glyph-name="copyright" unicode="&#xa9;" horiz-adv-x="815" 
d="M226.5 42.5c-54.333 31.667 -97.333 74.667 -129 129s-47.5 114.833 -47.5 181.5s15.667 127.167 47 181.5s74.333 97.166 129 128.499s115.334 47 182.001 47s127.167 -15.667 181.5 -47s97.166 -74.166 128.499 -128.499s47 -114.833 47 -181.5
s-15.667 -127.167 -47 -181.5s-74.333 -97.333 -129 -129s-115 -47.5 -181 -47.5c-66.667 0 -127.167 15.833 -181.5 47.5zM563.5 85.5c46.333 27 82.833 64 109.5 111s40 99.167 40 156.5s-13.333 109.5 -40 156.5s-63.167 83.833 -109.5 110.5s-98.166 40 -155.499 40
s-109.333 -13.333 -156 -40s-83.334 -63.5 -110.001 -110.5s-40 -99.167 -40 -156.5s13.333 -109.5 40 -156.5s63.334 -84 110.001 -111s98.667 -40.5 156 -40.5s109.166 13.5 155.499 40.5zM266 195.5c-37.333 39 -56 91.5 -56 157.5c0 65.333 18.667 117.5 56 156.5
s88 58.5 152 58.5c28.667 0 56.334 -4.5 83.001 -13.5s49.334 -21.833 68.001 -38.5l-27 -65c-36 29.333 -74 44 -114 44c-39.333 0 -69.666 -12.333 -90.999 -37s-32 -59.667 -32 -105c0 -46 10.667 -81.333 32 -106s51.666 -37 90.999 -37c40 0 78 14.667 114 44l27 -65
c-18.667 -16.667 -41.334 -29.5 -68.001 -38.5s-54.334 -13.5 -83.001 -13.5c-64 0 -114.667 19.5 -152 58.5z" />
    <glyph glyph-name="ordfeminine" unicode="&#xaa;" horiz-adv-x="333" 
d="M324 597c0 -8 -0.332031 -14.333 -0.999023 -19l-13 -168h-82l4 48c-18 -35.333 -47.667 -53 -89 -53c-28 0 -51.167 8.5 -69.5 25.5s-27.5 38.167 -27.5 63.5c0 31.333 13.167 53.833 39.5 67.5s70.166 20.5 131.499 20.5h24l1 15c2 32.667 -15 49 -51 49
c-33.333 0 -66 -9.33301 -98 -28l-15 61c18 9.33301 38 16.833 60 22.5s44 8.5 66 8.5c80 0 120 -37.667 120 -113zM215.501 481.5c12.333 11.667 19.166 27.1689 20.499 46.502l1 11h-24c-31.333 0 -53.5 -2.83301 -66.5 -8.5s-19.5 -15.834 -19.5 -30.501
c0 -10.667 3.83301 -19.334 11.5 -26.001s17.834 -10 30.501 -10c18.667 0 34.167 5.83301 46.5 17.5z" />
    <glyph glyph-name="guillemotleft" unicode="&#xab;" horiz-adv-x="465" 
d="M147 80l-86 160l4 51l109 160l70 -31l-90 -155l63 -156zM340 80l-86 160l4 51l109 160l70 -31l-90 -155l63 -156z" />
    <glyph glyph-name="logicalnot" unicode="&#xac;" 
d="M558 425l-21 -280h-74l16 206h-414l5 74h488z" />
    <glyph glyph-name="uni00AD" unicode="&#xad;" horiz-adv-x="429" 
d="M69 226l7 81h288l-7 -81h-288z" />
    <glyph glyph-name="registered" unicode="&#xae;" horiz-adv-x="815" 
d="M598.5 663c54.333 -31.333 97.166 -74.166 128.499 -128.499s47 -114.833 47 -181.5s-15.667 -127.167 -47 -181.5s-74.333 -97.333 -129 -129s-115 -47.5 -181 -47.5c-66.667 0 -127.167 15.833 -181.5 47.5s-97.333 74.667 -129 129s-47.5 114.833 -47.5 181.5
s15.667 127.167 47 181.5s74.333 97.166 129 128.499s115.334 47 182.001 47s127.167 -15.667 181.5 -47zM572 85.5c46.667 27 83.334 64 110.001 111s40 99.167 40 156.5s-13.333 109.5 -40 156.5s-63.334 83.833 -110.001 110.5s-98.334 40 -155.001 40
c-57.333 0 -109.333 -13.333 -156 -40s-83.334 -63.5 -110.001 -110.5s-40 -99.167 -40 -156.5c0 -58 13.333 -110.5 40 -157.5s63.334 -83.833 110.001 -110.5s98.667 -40 156 -40c56.667 0 108.334 13.5 155.001 40.5zM542 266l62 -123.998h-101l-65 135
c-6 10.667 -12.5 18.167 -19.5 22.5s-16.5 6.5 -28.5 6.5h-43l-13 -164h-91l33 422h174c50 0 87.667 -10.333 113 -31s38 -50.667 38 -90c0 -34.667 -10 -63.334 -30 -86.001s-47.667 -37.334 -83 -44.001c24.667 -6 42.667 -21.667 54 -47zM439 373.002
c48.667 0 73 21.667 73 65c0 20 -5.83301 34.167 -17.5 42.5s-30.5 12.5 -56.5 12.5h-77l-10 -120h88z" />
    <glyph glyph-name="macron" unicode="&#xaf;" horiz-adv-x="300" 
d="M28 618l6 70h303l-6 -70h-303z" />
    <glyph glyph-name="degree" unicode="&#xb0;" horiz-adv-x="366" 
d="M133.5 436c-22.333 12.667 -40 30.167 -53 52.5s-19.5 47.166 -19.5 74.499c0 28 6.5 53.167 19.5 75.5s30.667 39.833 53 52.5s47.166 19 74.499 19c28 0 53.167 -6.33301 75.5 -19s40 -30.167 53 -52.5s19.5 -47.5 19.5 -75.5c0 -27.333 -6.5 -52.166 -19.5 -74.499
s-30.833 -39.833 -53.5 -52.5s-47.667 -19 -75 -19s-52.166 6.33301 -74.499 19zM268.5 500.5c15.667 16.333 23.5 37.166 23.5 62.499s-7.83301 46.166 -23.5 62.499s-35.834 24.5 -60.501 24.5c-24 0 -43.833 -8.16699 -59.5 -24.5s-23.5 -37.166 -23.5 -62.499
s7.83301 -46.166 23.5 -62.499s35.5 -24.5 59.5 -24.5c24.667 0 44.834 8.16699 60.501 24.5z" />
    <glyph glyph-name="plusminus" unicode="&#xb1;" 
d="M347 366h207l-6 -74h-207l-13 -163h-74l13 163h-207l6 74h207l13 163h74zM37 0l6 74h488l-6 -74h-488z" />
    <glyph glyph-name="uni00B2" unicode="&#xb2;" horiz-adv-x="380" 
d="M165 354l183 -0.000976562l-6 -72h-288l5 66l152 150c19.333 19.333 33 36 41 50s12 28 12 42c0 16 -5.33301 28.167 -16 36.5s-25.667 12.5 -45 12.5c-18 0 -37.167 -3.66699 -57.5 -11s-39.5 -17.666 -57.5 -30.999l-18 64c19.333 14.667 42 26.334 68 35.001
s52.333 13 79 13c42 0 75.333 -10.167 100 -30.5s37 -47.5 37 -81.5c0 -24.667 -6.5 -48.334 -19.5 -71.001s-35.167 -48 -66.5 -76z" />
    <glyph glyph-name="uni00B3" unicode="&#xb3;" horiz-adv-x="380" 
d="M330.5 464.5c12.333 -15.667 18.499 -35.1689 18.499 -58.502c0 -39.333 -14.5 -70.5 -43.5 -93.5s-66.833 -34.5 -113.5 -34.5c-28.667 0 -56.667 4.33301 -84 13s-50.666 20.334 -69.999 35.001l28 64c41.333 -28 81.666 -42 120.999 -42c24 0 43 5 57 15s21 25 21 45
c0 35.333 -23.667 53 -71 53h-61l6 69h50c25.333 0 44.833 5.16699 58.5 15.5s20.5 25.5 20.5 45.5c0 15.333 -5.5 27.166 -16.5 35.499s-25.833 12.5 -44.5 12.5c-19.333 0 -39.5 -3.66699 -60.5 -11s-40.5 -17.666 -58.5 -30.999l-18 64
c19.333 14.667 42 26.334 68 35.001s52.333 13 79 13c42 0 75.333 -9.83301 100 -29.5s37 -45.167 37 -76.5c0 -25.333 -6.66699 -47 -20 -65s-31.666 -31 -54.999 -39c22 -7.33301 39.167 -18.833 51.5 -34.5z" />
    <glyph glyph-name="acute" unicode="&#xb4;" horiz-adv-x="300" 
d="M208 552h-67l112 203h114z" />
    <glyph glyph-name="uni00B5" unicode="&#xb5;" horiz-adv-x="569" 
d="M517 488l-37.9971 -488h-99l6 74c-16.667 -26 -38.834 -46 -66.501 -60s-58.5 -21 -92.5 -21c-31.333 0 -57 6 -77 18l-14 -191h-101l52 668h101l-24 -291l-1 -18c0 -69.333 32.333 -104 97 -104c39.333 0 70.666 12.5 93.999 37.5s36.666 58.833 39.999 101.5l22 274
h101z" />
    <glyph glyph-name="paragraph" unicode="&#xb6;" horiz-adv-x="596" 
d="M480 -180h-76.999l65 816h-114l-65 -816h-76l37 477c-56.667 1.33301 -102.334 19 -137.001 53s-52 79 -52 135c0 65.333 19.667 118.333 59 159s94 61 164 61h266z" />
    <glyph glyph-name="periodcentered" unicode="&#xb7;" horiz-adv-x="238" 
d="M66 326h119l-9 -119h-120z" />
    <glyph glyph-name="cedilla" unicode="&#xb8;" horiz-adv-x="300" 
d="M219 -58.5c14 -11.667 20.999 -28.167 20.999 -49.5c0 -25.333 -10.667 -46 -32 -62s-51.333 -24 -90 -24c-15.333 0 -31.5 1.66699 -48.5 5s-31.833 8 -44.5 14l15 47c27.333 -9.33301 53 -14 77 -14c16.667 0 29.834 2.66699 39.501 8s14.5 13.333 14.5 24
c0 16.667 -11.333 25 -34 25c-10.667 0 -24.667 -2.66699 -42 -8l-18 17l19 96h64l-13 -62c4 0.666992 9.33301 1 16 1c23.333 0 42 -5.83301 56 -17.5z" />
    <glyph glyph-name="uni00B9" unicode="&#xb9;" horiz-adv-x="380" 
d="M268 354h77l-5 -72h-242l5 72h77l20 253l-71 -40l-31 64l133 74h66z" />
    <glyph glyph-name="ordmasculine" unicode="&#xba;" horiz-adv-x="351" 
d="M84 443.5c-26.667 25.667 -40 59.5 -40 101.5c0 50 15 90 45 120s70.333 45 121 45c44.667 0 80.334 -12.833 107.001 -38.5s40 -59.5 40 -101.5c0 -50 -15.167 -90 -45.5 -120s-70.5 -45 -120.5 -45c-44.667 0 -80.334 12.833 -107.001 38.5zM251 499
c13.333 16.667 20 39.667 20 69c0 23.333 -5.66699 41.5 -17 54.5s-27 19.5 -47 19.5c-24 0 -42.667 -8.33301 -56 -25s-20 -39.667 -20 -69c0 -23.333 5.5 -41.5 16.5 -54.5s26.5 -19.5 46.5 -19.5c24.667 0 43.667 8.33301 57 25z" />
    <glyph glyph-name="guillemotright" unicode="&#xbb;" horiz-adv-x="462" 
d="M100 80l-69 30l91 155l-64 156l71 29l86 -159l-4 -51zM293 80l-69 30l91 155l-64 156l71 29l86 -159l-4 -51z" />
    <glyph glyph-name="onequarter" unicode="&#xbc;" horiz-adv-x="941" 
d="M268 354h77l-5 -72h-242l5 72h77l20 253l-71 -40l-31 64l133 74h66zM277 -26l-64 44l468 713l64 -44zM915 145l-5 -67h-62l-6 -78h-82l6 78h-190l5 63l223 282h71l-22 -278h62zM660 145h112l12 158z" />
    <glyph glyph-name="onehalf" unicode="&#xbd;" horiz-adv-x="941" 
d="M268 354h77l-5 -72h-242l5 72h77l20 253l-71 -40l-31 64l133 74h66zM277 -26l-64 44l468 713l64 -44zM704 72l183 -0.000976562l-6 -72h-288l5 66l152 150c19.333 19.333 33 36 41 50s12 28 12 42c0 16 -5.33301 28.167 -16 36.5s-25.667 12.5 -45 12.5
c-18 0 -37.167 -3.66699 -57.5 -11s-39.5 -17.666 -57.5 -30.999l-18 64c19.333 14.667 42 26.334 68 35.001s52.333 13 79 13c42 0 75.333 -10.167 100 -30.5s37 -47.5 37 -81.5c0 -24.667 -6.5 -48.334 -19.5 -71.001s-35.167 -48 -66.5 -76z" />
    <glyph glyph-name="threequarters" unicode="&#xbe;" horiz-adv-x="941" 
d="M330.5 464.5c12.333 -15.667 18.498 -35.1689 18.498 -58.502c0 -39.333 -14.5 -70.5 -43.5 -93.5s-66.833 -34.5 -113.5 -34.5c-28.667 0 -56.667 4.33301 -84 13s-50.666 20.334 -69.999 35.001l28 64c40.667 -28 81 -42 121 -42c24 0 43 5 57 15s21 25 21 45
c0 35.333 -23.667 53 -71 53h-61l6 69h50c25.333 0 44.833 5.16699 58.5 15.5s20.5 25.5 20.5 45.5c0 15.333 -5.5 27.166 -16.5 35.499s-25.833 12.5 -44.5 12.5c-19.333 0 -39.5 -3.66699 -60.5 -11s-40.5 -17.666 -58.5 -30.999l-18 64
c19.333 14.667 42 26.334 68 35.001s52.333 13 79 13c42 0 75.333 -9.83301 100 -29.5s37 -45.167 37 -76.5c0 -25.333 -6.66699 -47 -20 -65s-31.666 -31 -54.999 -39c22 -7.33301 39.167 -18.833 51.5 -34.5zM276.998 -26.002l-64 44l468 713l64 -44zM914.998 144.998
l-5 -67h-62l-6 -78h-82l6 78h-190l5 63l223 282h71l-22 -278h62zM659.998 144.998h112l12 158z" />
    <glyph glyph-name="questiondown" unicode="&#xbf;" horiz-adv-x="450" 
d="M187 369l9 119h120l-10 -119h-119zM50.5 -146c-35 27.333 -52.498 63.0029 -52.498 107.003c0 26 4.83301 49 14.5 69s21.667 37.333 36 52s33.166 31.667 56.499 51c30 25.333 53.167 47.666 69.5 66.999s27.166 42.666 32.499 69.999l5 23h60l-3 -33
c-2.66699 -38 -12.334 -69.333 -29.001 -94s-39.667 -50.334 -69 -77.001c-24 -22 -41.667 -41 -53 -57s-17 -35.333 -17 -58c0 -24 8.83301 -42.833 26.5 -56.5s41.834 -20.5 72.501 -20.5c63.333 0 127.333 25.667 192 77l31 -76
c-30.667 -27.333 -66.167 -48.333 -106.5 -63s-81.833 -22 -124.5 -22c-59.333 0 -106.5 13.667 -141.5 41z" />
    <glyph glyph-name="Agrave" unicode="&#xc0;" horiz-adv-x="734" 
d="M603 0l-61 174h-356l-88 -174h-107l369 705h86l259 -705h-102zM227 256h286l-117 334zM375 765l-123 153h97l92 -153h-66z" />
    <glyph glyph-name="Aacute" unicode="&#xc1;" horiz-adv-x="734" 
d="M603 0l-61 174h-356l-88 -174h-107l369 705h86l259 -705h-102zM227 256h286l-117 334zM441 765h-66l110 153h109z" />
    <glyph glyph-name="Acircumflex" unicode="&#xc2;" horiz-adv-x="734" 
d="M603 0l-61 174h-356l-88 -174h-107l369 705h86l259 -705h-102zM227 256h286l-117 334zM339 765h-85l134 153h64l110 -153h-84l-59 98z" />
    <glyph glyph-name="Atilde" unicode="&#xc3;" horiz-adv-x="734" 
d="M603 0l-61 174h-356l-88 -174h-107l369 705h86l259 -705h-102zM227 256h286l-117 334zM276.5 875c19 20.667 43.166 31.001 72.499 31.001c12.667 0 24.667 -2.66699 36 -8s25.666 -13.333 42.999 -24c14 -8.66699 25 -14.834 33 -18.501s15.667 -5.5 23 -5.5
c14 0 25.5 4.66699 34.5 14s13.833 22.333 14.5 39h51c-2.66699 -41.333 -13.5 -72.333 -32.5 -93s-43.167 -31 -72.5 -31c-12.667 0 -24.667 2.66699 -36 8s-25.666 13.333 -42.999 24c-12.667 8 -23.167 14 -31.5 18s-16.166 6 -23.499 6c-14 0 -25.5 -4.66699 -34.5 -14
s-14.167 -22.333 -15.5 -39h-50c2 41.333 12.5 72.333 31.5 93z" />
    <glyph glyph-name="Adieresis" unicode="&#xc4;" horiz-adv-x="734" 
d="M603 0l-61 174h-356l-88 -174h-107l369 705h86l259 -705h-102zM227 256h286l-117 334zM278 892h104l-8 -99h-103zM455 892h103l-7 -99h-104z" />
    <glyph glyph-name="Aring" unicode="&#xc5;" horiz-adv-x="734" 
d="M176 174l-109 -174l118 380l186 299c-20 7.33301 -36.167 19.5 -48.5 36.5s-18.5 36.5 -18.5 58.5c0 28.667 10 52.834 30 72.501s44.667 29.5 74 29.5c28.667 0 53 -9.83301 73 -29.5s30 -43.834 30 -72.501s-10 -52.667 -30 -72s-44.333 -29 -73 -29h-5l178 -348
l94 -325l-95 174h-404zM374.5 808.5c-9 -9.66699 -13.5 -21.167 -13.5 -34.5s4.5 -24.833 13.5 -34.5s20.167 -14.5 33.5 -14.5s24.333 4.66699 33 14s13 21 13 35s-4.33301 25.667 -13 35s-19.667 14 -33 14s-24.5 -4.83301 -33.5 -14.5zM397 627l-164 -361l-6 -10h308
l-58 105z" />
    <glyph glyph-name="AE" unicode="&#xc6;" horiz-adv-x="994" 
d="M978 621h-418l31 -221h350l-7 -84h-331l32 -232h301l-7 -84h-377l-24 174h-325l-117 -174h-115l488 705h525zM258 256h259l-44 321z" />
    <glyph glyph-name="Ccedilla" unicode="&#xc7;" horiz-adv-x="677" 
d="M236 546.5c-42.667 -53.667 -64.001 -127.834 -64.001 -222.501c0 -79.333 18.5 -140.166 55.5 -182.499s89.833 -63.5 158.5 -63.5c70 0 137.333 25.667 202 77l31 -76c-28 -26.667 -61.667 -47.5 -101 -62.5s-82 -23.167 -128 -24.5l-7 -34c4 0.666992 9.33301 1 16 1
c23.333 0 42 -5.83301 56 -17.5s21 -28.167 21 -49.5c0 -25.333 -10.667 -46 -32 -62s-51.333 -24 -90 -24c-15.333 0 -31.5 1.66699 -48.5 5s-31.833 8 -44.5 14l15 47c27.333 -9.33301 53 -14 77 -14c16.667 0 29.834 2.66699 39.501 8s14.5 13.333 14.5 24
c0 16.667 -11.333 25 -34 25c-10.667 0 -24.667 -2.66699 -42 -8l-18 17l14 71c-81.333 10 -145.166 44 -191.499 102s-69.5 134 -69.5 228c0 78 14.167 146.333 42.5 205s68.833 103.834 121.5 135.501s114 47.5 184 47.5c50.667 0 97.167 -7.33301 139.5 -22
s78.5 -36.334 108.5 -65.001l-43 -76c-31.333 27.333 -62.833 47 -94.5 59s-67.834 18 -108.501 18c-77.333 0 -137.333 -26.833 -180 -80.5z" />
    <glyph glyph-name="Egrave" unicode="&#xc8;" horiz-adv-x="585" 
d="M570 622h-356l-18 -222h336l-7 -84h-335l-19 -233h356l-6 -83h-458l55 705h458zM334 765l-123 153h97l92 -153h-66z" />
    <glyph glyph-name="Eacute" unicode="&#xc9;" horiz-adv-x="585" 
d="M570 622h-356l-18 -222h336l-7 -84h-335l-19 -233h356l-6 -83h-458l55 705h458zM400 765h-66l110 153h109z" />
    <glyph glyph-name="Ecircumflex" unicode="&#xca;" horiz-adv-x="585" 
d="M570 622h-356l-18 -222h336l-7 -84h-335l-19 -233h356l-6 -83h-458l55 705h458zM298 765h-85l134 153h64l110 -153h-84l-59 98z" />
    <glyph glyph-name="Edieresis" unicode="&#xcb;" horiz-adv-x="585" 
d="M570 622h-356l-18 -222h336l-7 -84h-335l-19 -233h356l-6 -83h-458l55 705h458zM237 892h104l-8 -99h-103zM414 892h103l-7 -99h-104z" />
    <glyph glyph-name="Igrave" unicode="&#xcc;" horiz-adv-x="267" 
d="M63 0l55 705h103l-55 -705h-103zM142 765l-123 153h97l92 -153h-66z" />
    <glyph glyph-name="Iacute" unicode="&#xcd;" horiz-adv-x="267" 
d="M63 0l55 705h103l-55 -705h-103zM208 765h-66l110 153h109z" />
    <glyph glyph-name="Icircumflex" unicode="&#xce;" horiz-adv-x="267" 
d="M63 0l55 705h103l-55 -705h-103zM106 765h-85l134 153h64l110 -153h-84l-59 98z" />
    <glyph glyph-name="Idieresis" unicode="&#xcf;" horiz-adv-x="267" 
d="M63 0l55 705h103l-55 -705h-103zM45 892h104l-8 -99h-103zM222 892h103l-7 -99h-104z" />
    <glyph glyph-name="Eth" unicode="&#xd0;" horiz-adv-x="764" 
d="M627 619c58.667 -57.333 88 -137 88 -239c0 -79.333 -14.333 -147.333 -43 -204s-70.5 -100.167 -125.5 -130.5s-121.167 -45.5 -198.5 -45.5h-267l25 317h-91l7 81h90l24 307h244c106 0 188.333 -28.667 247 -86zM542.5 161c45 50 67.5 123.333 67.5 220
c0 78.667 -20 138 -60 178s-100 60 -180 60h-137l-17 -221h190l-7 -81h-190l-18 -231h150c89.333 0 156.5 25 201.5 75z" />
    <glyph glyph-name="Ntilde" unicode="&#xd1;" horiz-adv-x="743" 
d="M600 705h97l-56 -705h-78l-361 532l-42 -532h-97l55 705h79l361 -530zM280.5 875c19 20.667 43.166 31.001 72.499 31.001c12.667 0 24.667 -2.66699 36 -8s25.666 -13.333 42.999 -24c14 -8.66699 25 -14.834 33 -18.501s15.667 -5.5 23 -5.5c14 0 25.5 4.66699 34.5 14
s13.833 22.333 14.5 39h51c-2.66699 -41.333 -13.5 -72.333 -32.5 -93s-43.167 -31 -72.5 -31c-12.667 0 -24.667 2.66699 -36 8s-25.666 13.333 -42.999 24c-12.667 8 -23.167 14 -31.5 18s-16.166 6 -23.499 6c-14 0 -25.5 -4.66699 -34.5 -14s-14.167 -22.333 -15.5 -39
h-50c2 41.333 12.5 72.333 31.5 93z" />
    <glyph glyph-name="Ograve" unicode="&#xd2;" horiz-adv-x="771" 
d="M215.5 31c-48.333 26.667 -85.334 65.167 -111.001 115.5s-38.5 109.833 -38.5 178.5c0 78 13.833 146.333 41.5 205s66.667 104 117 136s108.833 48 175.5 48c66 0 123.167 -13.333 171.5 -40s85.5 -65.167 111.5 -115.5s39 -109.833 39 -178.5
c0 -78 -13.833 -146.333 -41.5 -205s-66.667 -104 -117 -136s-109.166 -48 -176.499 -48c-66 0 -123.167 13.333 -171.5 40zM509.499 113c34.333 24 60.834 58.832 79.501 104.499s28 99.834 28 162.501c0 80 -18.667 141.333 -56 184s-90.666 64 -159.999 64
c-71.333 0 -127.5 -27 -168.5 -81s-61.5 -128.333 -61.5 -223c0 -79.333 18.667 -140.333 56 -183s90.666 -64 159.999 -64c47.333 0 88.166 12 122.499 36zM393 764.999l-123 153h97l92 -153h-66z" />
    <glyph glyph-name="Oacute" unicode="&#xd3;" horiz-adv-x="771" 
d="M215.5 31c-48.333 26.667 -85.334 65.167 -111.001 115.5s-38.5 109.833 -38.5 178.5c0 78 13.833 146.333 41.5 205s66.667 104 117 136s108.833 48 175.5 48c66 0 123.167 -13.333 171.5 -40s85.5 -65.167 111.5 -115.5s39 -109.833 39 -178.5
c0 -78 -13.833 -146.333 -41.5 -205s-66.667 -104 -117 -136s-109.166 -48 -176.499 -48c-66 0 -123.167 13.333 -171.5 40zM509.499 113c34.333 24 60.834 58.832 79.501 104.499s28 99.834 28 162.501c0 80 -18.667 141.333 -56 184s-90.666 64 -159.999 64
c-71.333 0 -127.5 -27 -168.5 -81s-61.5 -128.333 -61.5 -223c0 -79.333 18.667 -140.333 56 -183s90.666 -64 159.999 -64c47.333 0 88.166 12 122.499 36zM459 764.999h-66l110 153h109z" />
    <glyph glyph-name="Ocircumflex" unicode="&#xd4;" horiz-adv-x="771" 
d="M215.5 31c-48.333 26.667 -85.334 65.167 -111.001 115.5s-38.5 109.833 -38.5 178.5c0 78 13.833 146.333 41.5 205s66.667 104 117 136s108.833 48 175.5 48c66 0 123.167 -13.333 171.5 -40s85.5 -65.167 111.5 -115.5s39 -109.833 39 -178.5
c0 -78 -13.833 -146.333 -41.5 -205s-66.667 -104 -117 -136s-109.166 -48 -176.499 -48c-66 0 -123.167 13.333 -171.5 40zM509.499 113c34.333 24 60.834 58.832 79.501 104.499s28 99.834 28 162.501c0 80 -18.667 141.333 -56 184s-90.666 64 -159.999 64
c-71.333 0 -127.5 -27 -168.5 -81s-61.5 -128.333 -61.5 -223c0 -79.333 18.667 -140.333 56 -183s90.666 -64 159.999 -64c47.333 0 88.166 12 122.499 36zM357 764.999h-85l134 153h64l110 -153h-84l-59 98z" />
    <glyph glyph-name="Otilde" unicode="&#xd5;" horiz-adv-x="771" 
d="M215.5 31c-48.333 26.667 -85.334 65.167 -111.001 115.5s-38.5 109.833 -38.5 178.5c0 78 13.833 146.333 41.5 205s66.667 104 117 136s108.833 48 175.5 48c66 0 123.167 -13.333 171.5 -40s85.5 -65.167 111.5 -115.5s39 -109.833 39 -178.5
c0 -78 -13.833 -146.333 -41.5 -205s-66.667 -104 -117 -136s-109.166 -48 -176.499 -48c-66 0 -123.167 13.333 -171.5 40zM509.499 113c34.333 24 60.834 58.832 79.501 104.499s28 99.834 28 162.501c0 80 -18.667 141.333 -56 184s-90.666 64 -159.999 64
c-71.333 0 -127.5 -27 -168.5 -81s-61.5 -128.333 -61.5 -223c0 -79.333 18.667 -140.333 56 -183s90.666 -64 159.999 -64c47.333 0 88.166 12 122.499 36zM294.5 874.999c19 20.667 43.166 31.001 72.499 31.001c12.667 0 24.667 -2.66699 36 -8
s25.666 -13.333 42.999 -24c14 -8.66699 25 -14.834 33 -18.501s15.667 -5.5 23 -5.5c14 0 25.5 4.66699 34.5 14s13.833 22.333 14.5 39h51c-2.66699 -41.333 -13.5 -72.333 -32.5 -93s-43.167 -31 -72.5 -31c-12.667 0 -24.667 2.66699 -36 8s-25.666 13.333 -42.999 24
c-12.667 8 -23.167 14 -31.5 18s-16.166 6 -23.499 6c-14 0 -25.5 -4.66699 -34.5 -14s-14.167 -22.333 -15.5 -39h-50c2 41.333 12.5 72.333 31.5 93z" />
    <glyph glyph-name="Odieresis" unicode="&#xd6;" horiz-adv-x="771" 
d="M215.5 31c-48.333 26.667 -85.334 65.167 -111.001 115.5s-38.5 109.833 -38.5 178.5c0 78 13.833 146.333 41.5 205s66.667 104 117 136s108.833 48 175.5 48c66 0 123.167 -13.333 171.5 -40s85.5 -65.167 111.5 -115.5s39 -109.833 39 -178.5
c0 -78 -13.833 -146.333 -41.5 -205s-66.667 -104 -117 -136s-109.166 -48 -176.499 -48c-66 0 -123.167 13.333 -171.5 40zM509.499 113c34.333 24 60.834 58.832 79.501 104.499s28 99.834 28 162.501c0 80 -18.667 141.333 -56 184s-90.666 64 -159.999 64
c-71.333 0 -127.5 -27 -168.5 -81s-61.5 -128.333 -61.5 -223c0 -79.333 18.667 -140.333 56 -183s90.666 -64 159.999 -64c47.333 0 88.166 12 122.499 36zM296 891.999h104l-8 -99h-103zM473 891.999h103l-7 -99h-104z" />
    <glyph glyph-name="multiply" unicode="&#xd7;" 
d="M532 467l-178 -181l169 -183l-56 -52l-166 181l-178 -181l-48 52l178 181l-169 183l56 52l166 -181l178 181z" />
    <glyph glyph-name="Oslash" unicode="&#xd8;" horiz-adv-x="771" 
d="M697.5 525.5c16.333 -43 24.499 -91.5 24.499 -145.5c0 -78 -13.833 -146.333 -41.5 -205s-66.667 -104 -117 -136s-109.166 -48 -176.499 -48c-62.667 0 -116.667 11.667 -162 35l-53 -79l-66 42l55 82c-30.667 29.333 -54.167 65.5 -70.5 108.5s-24.5 91.5 -24.5 145.5
c0 78 13.833 146.333 41.5 205s66.667 104 117 136s108.833 48 175.5 48c62.667 0 117 -12 163 -36l53 80l66 -42l-55 -83c30.667 -28.667 54.167 -64.5 70.5 -107.5zM215.999 155l296.999 447c-31.333 17.333 -68.666 26 -111.999 26c-71.333 0 -127.5 -27 -168.5 -81
s-61.5 -128.333 -61.5 -223c0 -72 15 -128.333 45 -169zM509.498 113c34.333 24 60.834 58.8311 79.501 104.498s28 99.834 28 162.501c0 70.667 -15 127.334 -45 170.001l-297 -448c32 -16.667 69.333 -25 112 -25c47.333 0 88.166 12 122.499 36z" />
    <glyph glyph-name="Ugrave" unicode="&#xd9;" horiz-adv-x="728" 
d="M147.5 57c-46.333 43.333 -69.499 106.333 -69.499 189c0 8.66699 0.666992 21.667 2 39l33 420h102l-33 -421c-0.666992 -7.33301 -1 -18 -1 -32c0 -117.333 58.667 -176 176 -176c59.333 0 105.166 15.5 137.499 46.5s51.166 79.833 56.499 146.5l34 436h102l-34 -427
c-7.33301 -95.333 -36.166 -166.833 -86.499 -214.5s-121.5 -71.5 -213.5 -71.5c-90.667 0 -159.167 21.667 -205.5 65zM372.001 765l-123 153h97l92 -153h-66z" />
    <glyph glyph-name="Uacute" unicode="&#xda;" horiz-adv-x="728" 
d="M147.5 57c-46.333 43.333 -69.499 106.333 -69.499 189c0 8.66699 0.666992 21.667 2 39l33 420h102l-33 -421c-0.666992 -7.33301 -1 -18 -1 -32c0 -117.333 58.667 -176 176 -176c59.333 0 105.166 15.5 137.499 46.5s51.166 79.833 56.499 146.5l34 436h102l-34 -427
c-7.33301 -95.333 -36.166 -166.833 -86.499 -214.5s-121.5 -71.5 -213.5 -71.5c-90.667 0 -159.167 21.667 -205.5 65zM438.001 765h-66l110 153h109z" />
    <glyph glyph-name="Ucircumflex" unicode="&#xdb;" horiz-adv-x="728" 
d="M147.5 57c-46.333 43.333 -69.499 106.333 -69.499 189c0 8.66699 0.666992 21.667 2 39l33 420h102l-33 -421c-0.666992 -7.33301 -1 -18 -1 -32c0 -117.333 58.667 -176 176 -176c59.333 0 105.166 15.5 137.499 46.5s51.166 79.833 56.499 146.5l34 436h102l-34 -427
c-7.33301 -95.333 -36.166 -166.833 -86.499 -214.5s-121.5 -71.5 -213.5 -71.5c-90.667 0 -159.167 21.667 -205.5 65zM336.001 765h-85l134 153h64l110 -153h-84l-59 98z" />
    <glyph glyph-name="Udieresis" unicode="&#xdc;" horiz-adv-x="728" 
d="M147.5 57c-46.333 43.333 -69.499 106.333 -69.499 189c0 8.66699 0.666992 21.667 2 39l33 420h102l-33 -421c-0.666992 -7.33301 -1 -18 -1 -32c0 -117.333 58.667 -176 176 -176c59.333 0 105.166 15.5 137.499 46.5s51.166 79.833 56.499 146.5l34 436h102l-34 -427
c-7.33301 -95.333 -36.166 -166.833 -86.499 -214.5s-121.5 -71.5 -213.5 -71.5c-90.667 0 -159.167 21.667 -205.5 65zM275.001 892h104l-8 -99h-103zM452.001 892h103l-7 -99h-104z" />
    <glyph glyph-name="Yacute" unicode="&#xdd;" horiz-adv-x="611" 
d="M674 705l-310 -376l-26 -329h-103l26 328l-252 377h115l193 -290l238 290h119zM379 765h-66l110 153h109z" />
    <glyph glyph-name="Thorn" unicode="&#xde;" horiz-adv-x="652" 
d="M563.5 506.5c37.667 -31.667 56.499 -77.168 56.499 -136.501c0 -65.333 -20.333 -116.166 -61 -152.499s-99 -54.5 -175 -54.5h-206l-13 -163h-102l55 705h102l-12 -151h196c68.667 0 121.834 -15.833 159.501 -47.5zM520.999 364.999c0 36.667 -10.5 63.5 -31.5 80.5
s-52.833 25.5 -95.5 25.5h-192l-18 -226h193c96 0 144 40 144 120z" />
    <glyph glyph-name="germandbls" unicode="&#xdf;" horiz-adv-x="634" 
d="M89 471c6.66699 79.333 31.8311 139.168 75.498 179.501s102.167 60.5 175.5 60.5c54.667 0 97.834 -11.167 129.501 -33.5s47.5 -52.833 47.5 -91.5c0 -29.333 -7.33301 -54.166 -22 -74.499s-36 -43.166 -64 -68.499c-20.667 -18 -35.667 -32.833 -45 -44.5
s-14 -24.5 -14 -38.5c0 -17.333 7.33301 -30.833 22 -40.5s37.334 -19.834 68.001 -30.501c28.667 -10.667 52.167 -20.834 70.5 -30.501s34 -23.334 47 -41.001s19.5 -40.5 19.5 -68.5c0 -46 -17.667 -83.5 -53 -112.5s-83.333 -43.5 -144 -43.5
c-34 0 -67.667 5.5 -101 16.5s-62 26.167 -86 45.5l36 73c53.333 -38 106.333 -57 159 -57c28 0 50.5 6.16699 67.5 18.5s25.5 29.5 25.5 51.5c0 18 -7.5 31.833 -22.5 41.5s-38.833 20.5 -71.5 32.5c-28.667 10 -52 19.5 -70 28.5s-33.333 21.667 -46 38s-19 37.5 -19 63.5
c0 26.667 7 49.5 21 68.5s34.333 40.5 61 64.5c22 20 38.333 36.667 49 50s16 28.333 16 45c0 19.333 -7.33301 34.333 -22 45s-35.667 16 -63 16c-88.667 0 -137 -51.667 -145 -155l-39 -479h-101z" />
    <glyph glyph-name="agrave" unicode="&#xe0;" horiz-adv-x="535" 
d="M472 329c0 -13.333 -0.327148 -23.332 -0.994141 -29.999l-23 -299h-97l6 77c-14 -27.333 -33.5 -48.166 -58.5 -62.499s-53.5 -21.5 -85.5 -21.5c-48.667 0 -88.834 13.167 -120.501 39.5s-47.5 60.166 -47.5 101.499c0 36.667 9.66699 66 29 88s50.166 38 92.499 48
s99.166 15 170.499 15h36l2 25c2.66699 38 -3.83301 65.833 -19.5 83.5s-41.834 26.5 -78.501 26.5c-26 0 -53 -4.33301 -81 -13s-55.333 -21.334 -82 -38.001l-26 71c25.333 18 56.666 32.5 93.999 43.5s73.666 16.5 108.999 16.5c120.667 0 181 -57 181 -171z
M325.506 105.001c24.333 24.667 37.833 56.333 40.5 95l2 28h-28c-52 0 -91.833 -2.83301 -119.5 -8.5s-47 -14.5 -58 -26.5s-16.5 -28.333 -16.5 -49c0 -23.333 8.16699 -41.833 24.5 -55.5s38.5 -20.5 66.5 -20.5c34.667 0 64.167 12.333 88.5 37zM266.006 552l-121 203
h102l86 -203h-67z" />
    <glyph glyph-name="aacute" unicode="&#xe1;" horiz-adv-x="535" 
d="M472 329c0 -13.333 -0.327148 -23.332 -0.994141 -29.999l-23 -299h-97l6 77c-14 -27.333 -33.5 -48.166 -58.5 -62.499s-53.5 -21.5 -85.5 -21.5c-48.667 0 -88.834 13.167 -120.501 39.5s-47.5 60.166 -47.5 101.499c0 36.667 9.66699 66 29 88s50.166 38 92.499 48
s99.166 15 170.499 15h36l2 25c2.66699 38 -3.83301 65.833 -19.5 83.5s-41.834 26.5 -78.501 26.5c-26 0 -53 -4.33301 -81 -13s-55.333 -21.334 -82 -38.001l-26 71c25.333 18 56.666 32.5 93.999 43.5s73.666 16.5 108.999 16.5c120.667 0 181 -57 181 -171z
M325.506 105.001c24.333 24.667 37.833 56.333 40.5 95l2 28h-28c-52 0 -91.833 -2.83301 -119.5 -8.5s-47 -14.5 -58 -26.5s-16.5 -28.333 -16.5 -49c0 -23.333 8.16699 -41.833 24.5 -55.5s38.5 -20.5 66.5 -20.5c34.667 0 64.167 12.333 88.5 37zM333.006 552h-67
l112 203h114z" />
    <glyph glyph-name="acircumflex" unicode="&#xe2;" horiz-adv-x="535" 
d="M472 329c0 -13.333 -0.327148 -23.332 -0.994141 -29.999l-23 -299h-97l6 77c-14 -27.333 -33.5 -48.166 -58.5 -62.499s-53.5 -21.5 -85.5 -21.5c-48.667 0 -88.834 13.167 -120.501 39.5s-47.5 60.166 -47.5 101.499c0 36.667 9.66699 66 29 88s50.166 38 92.499 48
s99.166 15 170.499 15h36l2 25c2.66699 38 -3.83301 65.833 -19.5 83.5s-41.834 26.5 -78.501 26.5c-26 0 -53 -4.33301 -81 -13s-55.333 -21.334 -82 -38.001l-26 71c25.333 18 56.666 32.5 93.999 43.5s73.666 16.5 108.999 16.5c120.667 0 181 -57 181 -171z
M325.506 105.001c24.333 24.667 37.833 56.333 40.5 95l2 28h-28c-52 0 -91.833 -2.83301 -119.5 -8.5s-47 -14.5 -58 -26.5s-16.5 -28.333 -16.5 -49c0 -23.333 8.16699 -41.833 24.5 -55.5s38.5 -20.5 66.5 -20.5c34.667 0 64.167 12.333 88.5 37zM234.006 552h-89
l137 203h67l105 -203h-85l-58 135z" />
    <glyph glyph-name="atilde" unicode="&#xe3;" horiz-adv-x="535" 
d="M472 329c0 -13.333 -0.327148 -23.332 -0.994141 -29.999l-23 -299h-97l6 77c-14 -27.333 -33.5 -48.166 -58.5 -62.499s-53.5 -21.5 -85.5 -21.5c-48.667 0 -88.834 13.167 -120.501 39.5s-47.5 60.166 -47.5 101.499c0 36.667 9.66699 66 29 88s50.166 38 92.499 48
s99.166 15 170.499 15h36l2 25c2.66699 38 -3.83301 65.833 -19.5 83.5s-41.834 26.5 -78.501 26.5c-26 0 -53 -4.33301 -81 -13s-55.333 -21.334 -82 -38.001l-26 71c25.333 18 56.666 32.5 93.999 43.5s73.666 16.5 108.999 16.5c120.667 0 181 -57 181 -171z
M325.506 105.001c24.333 24.667 37.833 56.333 40.5 95l2 28h-28c-52 0 -91.833 -2.83301 -119.5 -8.5s-47 -14.5 -58 -26.5s-16.5 -28.333 -16.5 -49c0 -23.333 8.16699 -41.833 24.5 -55.5s38.5 -20.5 66.5 -20.5c34.667 0 64.167 12.333 88.5 37zM169.006 687
c18.667 20.667 42.334 30.998 71.001 30.998c13.333 0 25.833 -2.66699 37.5 -8s26.167 -13.333 43.5 -24c2.66699 -1.33301 8.16699 -4.5 16.5 -9.5s15.833 -8.66699 22.5 -11s12.667 -3.5 18 -3.5c14 0 25.333 4.66699 34 14s13.667 22.333 15 39h50
c-2.66699 -41.333 -13.334 -72.166 -32.001 -92.499s-42 -30.5 -70 -30.5c-13.333 0 -25.833 2.5 -37.5 7.5s-26.5 12.833 -44.5 23.5c-12 8 -22.167 14 -30.5 18s-16.5 6 -24.5 6c-14 0 -25.333 -4.5 -34 -13.5s-14 -21.833 -16 -38.5h-50
c2 40.667 12.333 71.334 31 92.001z" />
    <glyph glyph-name="adieresis" unicode="&#xe4;" horiz-adv-x="535" 
d="M472 329c0 -13.333 -0.327148 -23.332 -0.994141 -29.999l-23 -299h-97l6 77c-14 -27.333 -33.5 -48.166 -58.5 -62.499s-53.5 -21.5 -85.5 -21.5c-48.667 0 -88.834 13.167 -120.501 39.5s-47.5 60.166 -47.5 101.499c0 36.667 9.66699 66 29 88s50.166 38 92.499 48
s99.166 15 170.499 15h36l2 25c2.66699 38 -3.83301 65.833 -19.5 83.5s-41.834 26.5 -78.501 26.5c-26 0 -53 -4.33301 -81 -13s-55.333 -21.334 -82 -38.001l-26 71c25.333 18 56.666 32.5 93.999 43.5s73.666 16.5 108.999 16.5c120.667 0 181 -57 181 -171z
M325.506 105.001c24.333 24.667 37.833 56.333 40.5 95l2 28h-28c-52 0 -91.833 -2.83301 -119.5 -8.5s-47 -14.5 -58 -26.5s-16.5 -28.333 -16.5 -49c0 -23.333 8.16699 -41.833 24.5 -55.5s38.5 -20.5 66.5 -20.5c34.667 0 64.167 12.333 88.5 37zM171.006 703h104l-8 -99
h-103zM348.006 703h103l-7 -99h-104z" />
    <glyph glyph-name="aring" unicode="&#xe5;" horiz-adv-x="535" 
d="M472 329c0 -13.333 -0.327148 -23.332 -0.994141 -29.999l-23 -299h-97l6 77c-14 -27.333 -33.5 -48.166 -58.5 -62.499s-53.5 -21.5 -85.5 -21.5c-48.667 0 -88.834 13.167 -120.501 39.5s-47.5 60.166 -47.5 101.499c0 36.667 9.66699 66 29 88s50.166 38 92.499 48
s99.166 15 170.499 15h36l2 25c2.66699 38 -3.83301 65.833 -19.5 83.5s-41.834 26.5 -78.501 26.5c-26 0 -53 -4.33301 -81 -13s-55.333 -21.334 -82 -38.001l-26 71c25.333 18 56.666 32.5 93.999 43.5s73.666 16.5 108.999 16.5c120.667 0 181 -57 181 -171z
M325.506 105.001c24.333 24.667 37.833 56.333 40.5 95l2 28h-28c-52 0 -91.833 -2.83301 -119.5 -8.5s-47 -14.5 -58 -26.5s-16.5 -28.333 -16.5 -49c0 -23.333 8.16699 -41.833 24.5 -55.5s38.5 -20.5 66.5 -20.5c34.667 0 64.167 12.333 88.5 37zM234.006 581.5
c-20 19.667 -30 43.834 -30 72.501s10 52.667 30 72s44.333 29 73 29c29.333 0 54 -9.66699 74 -29s30 -43.333 30 -72s-10 -52.834 -30 -72.501s-44.667 -29.5 -74 -29.5c-28.667 0 -53 9.83301 -73 29.5zM341.006 619c8.66699 9.33301 13 20.999 13 34.999
s-4.33301 25.5 -13 34.5s-20 13.5 -34 13.5c-13.333 0 -24.333 -4.66699 -33 -14s-13 -20.666 -13 -33.999c0 -14 4.33301 -25.667 13 -35s19.667 -14 33 -14c14 0 25.333 4.66699 34 14z" />
    <glyph glyph-name="ae" unicode="&#xe6;" horiz-adv-x="848" 
d="M757.5 442.5c35.667 -38.333 53.4971 -93.832 53.4971 -166.499c0 -15.333 -1 -31.666 -3 -48.999h-340c0.666992 -49.333 13.334 -87.5 38.001 -114.5s60.334 -40.5 107.001 -40.5c24.667 0 49.834 4.5 75.501 13.5s49.834 22.5 72.501 40.5l25 -71
c-20 -18.667 -46.667 -33.667 -80 -45s-66.333 -17 -99 -17c-48 0 -89 10 -123 30s-59.667 48.333 -77 85c-17.333 -36.667 -42.666 -65 -75.999 -85s-71 -30 -113 -30c-51.333 0 -93 13.167 -125 39.5s-48 60.166 -48 101.499c0 36.667 9.66699 66 29 88
s50.166 38 92.499 48s99.166 15 170.499 15h37l2 25l1 18c0 31.333 -8 54.5 -24 69.5s-41 22.5 -75 22.5c-26.667 0 -54 -4.33301 -82 -13s-55.333 -21.334 -82 -38.001l-26 71c25.333 18 56.833 32.5 94.5 43.5s74.167 16.5 109.5 16.5
c75.333 0 126.666 -24.667 153.999 -74c20 24 44.167 42.333 72.5 55s59.833 19 94.5 19c60.667 0 108.834 -19.167 144.501 -57.5zM518.497 390.001c-24.333 -24 -39.833 -59.001 -46.5 -105.001h252c0.666992 46.667 -8.83301 81.834 -28.5 105.501
s-46.834 35.5 -81.501 35.5c-39.333 0 -71.166 -12 -95.499 -36zM325.497 106c25 25.333 39.167 58.332 42.5 98.999l2 23h-30c-52 0 -92 -2.83301 -120 -8.5s-47.333 -14.667 -58 -27s-16 -29.166 -16 -50.499c0 -22 8.16699 -39.833 24.5 -53.5s37.833 -20.5 64.5 -20.5
c35.333 0 65.5 12.667 90.5 38z" />
    <glyph glyph-name="ccedilla" unicode="&#xe7;" horiz-adv-x="483" 
d="M374 10c-29.333 -10.667 -60.3359 -16.332 -93.0029 -16.999l-7 -35c4 0.666992 9.33301 1 16 1c23.333 0 42 -5.83301 56 -17.5s21 -28.167 21 -49.5c0 -25.333 -10.667 -46 -32 -62s-51.333 -24 -90 -24c-15.333 0 -31.5 1.66699 -48.5 5s-31.833 8 -44.5 14l15 47
c27.333 -9.33301 53 -14 77 -14c16.667 0 29.834 2.66699 39.501 8s14.5 13.333 14.5 24c0 16.667 -11.333 25 -34 25c-10.667 0 -24.667 -2.66699 -42 -8l-18 17l15 75c-54.667 11.333 -97.834 37.166 -129.501 77.499s-47.5 91.166 -47.5 152.499
c0 54.667 10.333 102.5 31 143.5s50.334 72.5 89.001 94.5s84 33 136 33c36.667 0 70.334 -5.5 101.001 -16.5s57.334 -26.5 80.001 -46.5l-36 -72c-46.667 36 -94 54 -142 54c-49.333 0 -87.333 -16.667 -114 -50s-40 -80 -40 -140c0 -49.333 12.167 -87.5 36.5 -114.5
s58.5 -40.5 102.5 -40.5c25.333 0 49 4.33301 71 13s44.333 22.334 67 41.001l25 -73c-20.667 -19.333 -45.667 -34.333 -75 -45z" />
    <glyph glyph-name="egrave" unicode="&#xe8;" horiz-adv-x="529" 
d="M436 443c36.667 -38 54.998 -93.333 54.998 -166c0 -15.333 -1 -32 -3 -50h-346c0.666992 -49.333 13.334 -87.5 38.001 -114.5s60.334 -40.5 107.001 -40.5c56.667 0 108 18 154 54l26 -71c-20.667 -18.667 -48 -33.667 -82 -45s-68.667 -17 -104 -17
c-48 0 -90 9.66699 -126 29s-63.833 47 -83.5 83s-29.5 77.667 -29.5 125c0 52.667 10.167 99.5 30.5 140.5s49 72.833 86 95.5s79.167 34 126.5 34c64 0 114.333 -19 151 -57zM192.498 390c-24.333 -24 -39.8311 -59.001 -46.498 -105.001h258
c1.33301 46.667 -8.33398 81.834 -29.001 105.501s-49.334 35.5 -86.001 35.5c-40 0 -72.167 -12 -96.5 -36zM267 551.999l-121 203h102l86 -203h-67z" />
    <glyph glyph-name="eacute" unicode="&#xe9;" horiz-adv-x="529" 
d="M436 443c36.667 -38 54.998 -93.333 54.998 -166c0 -15.333 -1 -32 -3 -50h-346c0.666992 -49.333 13.334 -87.5 38.001 -114.5s60.334 -40.5 107.001 -40.5c56.667 0 108 18 154 54l26 -71c-20.667 -18.667 -48 -33.667 -82 -45s-68.667 -17 -104 -17
c-48 0 -90 9.66699 -126 29s-63.833 47 -83.5 83s-29.5 77.667 -29.5 125c0 52.667 10.167 99.5 30.5 140.5s49 72.833 86 95.5s79.167 34 126.5 34c64 0 114.333 -19 151 -57zM192.498 390c-24.333 -24 -39.8311 -59.001 -46.498 -105.001h258
c1.33301 46.667 -8.33398 81.834 -29.001 105.501s-49.334 35.5 -86.001 35.5c-40 0 -72.167 -12 -96.5 -36zM334 551.999h-67l112 203h114z" />
    <glyph glyph-name="ecircumflex" unicode="&#xea;" horiz-adv-x="529" 
d="M436 443c36.667 -38 54.998 -93.333 54.998 -166c0 -15.333 -1 -32 -3 -50h-346c0.666992 -49.333 13.334 -87.5 38.001 -114.5s60.334 -40.5 107.001 -40.5c56.667 0 108 18 154 54l26 -71c-20.667 -18.667 -48 -33.667 -82 -45s-68.667 -17 -104 -17
c-48 0 -90 9.66699 -126 29s-63.833 47 -83.5 83s-29.5 77.667 -29.5 125c0 52.667 10.167 99.5 30.5 140.5s49 72.833 86 95.5s79.167 34 126.5 34c64 0 114.333 -19 151 -57zM192.498 390c-24.333 -24 -39.8311 -59.001 -46.498 -105.001h258
c1.33301 46.667 -8.33398 81.834 -29.001 105.501s-49.334 35.5 -86.001 35.5c-40 0 -72.167 -12 -96.5 -36zM235 551.999h-89l137 203h67l105 -203h-85l-58 135z" />
    <glyph glyph-name="edieresis" unicode="&#xeb;" horiz-adv-x="529" 
d="M436 443c36.667 -38 54.998 -93.333 54.998 -166c0 -15.333 -1 -32 -3 -50h-346c0.666992 -49.333 13.334 -87.5 38.001 -114.5s60.334 -40.5 107.001 -40.5c56.667 0 108 18 154 54l26 -71c-20.667 -18.667 -48 -33.667 -82 -45s-68.667 -17 -104 -17
c-48 0 -90 9.66699 -126 29s-63.833 47 -83.5 83s-29.5 77.667 -29.5 125c0 52.667 10.167 99.5 30.5 140.5s49 72.833 86 95.5s79.167 34 126.5 34c64 0 114.333 -19 151 -57zM192.498 390c-24.333 -24 -39.8311 -59.001 -46.498 -105.001h258
c1.33301 46.667 -8.33398 81.834 -29.001 105.501s-49.334 35.5 -86.001 35.5c-40 0 -72.167 -12 -96.5 -36zM172 702.999h104l-8 -99h-103zM349 702.999h103l-7 -99h-104z" />
    <glyph glyph-name="igrave" unicode="&#xec;" horiz-adv-x="242" 
d="M51 0l39 488h101l-39 -488h-101zM112 552l-121 203h102l86 -203h-67z" />
    <glyph glyph-name="iacute" unicode="&#xed;" horiz-adv-x="242" 
d="M51 0l39 488h101l-39 -488h-101zM179 552h-67l112 203h114z" />
    <glyph glyph-name="icircumflex" unicode="&#xee;" horiz-adv-x="242" 
d="M51 0l39 488h101l-39 -488h-101zM80 552h-89l137 203h67l105 -203h-85l-58 135z" />
    <glyph glyph-name="idieresis" unicode="&#xef;" horiz-adv-x="242" 
d="M51 0l39 488h101l-39 -488h-101zM17 703h104l-8 -99h-103zM194 703h103l-7 -99h-104z" />
    <glyph glyph-name="eth" unicode="&#xf0;" horiz-adv-x="569" 
d="M453 571c26 -34 45.667 -72.335 59 -115.002s20 -88 20 -136c0 -111.333 -23.167 -193.666 -69.5 -246.999s-108.833 -80 -187.5 -80c-47.333 0 -88.666 8.83301 -123.999 26.5s-62.666 43 -81.999 76s-29 71.5 -29 115.5c0 48.667 10.167 91.5 30.5 128.5
s48.666 65.5 84.999 85.5s77.5 30 123.5 30c34.667 0 65.5 -6 92.5 -18s48.5 -29.333 64.5 -52c-8 62 -32 114.333 -72 157l-169 -54l-14 59l130 42c-36.667 24.667 -78.334 42.334 -125.001 53.001l29 71c76 -16.667 140 -47.667 192 -93l132 42l13 -59zM382 118.498
c24.667 30.333 37 71.5 37 123.5c0 41.333 -11.667 74 -35 98s-56 36 -98 36c-46 0 -81.5 -15.167 -106.5 -45.5s-37.5 -70.5 -37.5 -120.5c0 -42.667 11.5 -76.167 34.5 -100.5s56.167 -36.5 99.5 -36.5c46 0 81.333 15.167 106 45.5z" />
    <glyph glyph-name="ntilde" unicode="&#xf1;" horiz-adv-x="576" 
d="M470.5 457c28.333 -28.667 42.499 -71 42.499 -127c0 -13.333 -0.333008 -23.333 -1 -30l-23 -300h-101l23 295c0.666992 4.66699 1 11.667 1 21c0 68 -32.667 102 -98 102c-41.333 0 -74.166 -12.333 -98.499 -37s-38.166 -59 -41.499 -103l-22 -278h-101l39 488h99
l-6 -70c16.667 26 39.167 46.167 67.5 60.5s60.166 21.5 95.499 21.5c54.667 0 96.167 -14.333 124.5 -43zM182.999 687c18.667 20.667 42.334 30.998 71.001 30.998c13.333 0 25.833 -2.66699 37.5 -8s26.167 -13.333 43.5 -24c2.66699 -1.33301 8.16699 -4.5 16.5 -9.5
s15.833 -8.66699 22.5 -11s12.667 -3.5 18 -3.5c14 0 25.333 4.66699 34 14s13.667 22.333 15 39h50c-2.66699 -41.333 -13.334 -72.166 -32.001 -92.499s-42 -30.5 -70 -30.5c-13.333 0 -25.833 2.5 -37.5 7.5s-26.5 12.833 -44.5 23.5c-12 8 -22.167 14 -30.5 18
s-16.5 6 -24.5 6c-14 0 -25.333 -4.5 -34 -13.5s-14 -21.833 -16 -38.5h-50c2 40.667 12.333 71.334 31 92.001z" />
    <glyph glyph-name="ograve" unicode="&#xf2;" horiz-adv-x="564" 
d="M153 22c-35.333 19.333 -62.667 47 -82 83s-29 77.667 -29 125c0 54.667 10.167 102.334 30.5 143.001s49 72 86 94s79.833 33 128.5 33c48 0 89.667 -9.83301 125 -29.5s62.666 -47.334 81.999 -83.001s29 -77.5 29 -125.5c0 -54.667 -10.167 -102.167 -30.5 -142.5
s-49 -71.5 -86 -93.5s-80.167 -33 -129.5 -33c-47.333 0 -88.666 9.66699 -123.999 29zM383.999 125c24.667 34.667 37.001 81.334 37.001 140.001c0 50 -11.5 88.167 -34.5 114.5s-55.833 39.5 -98.5 39.5c-46.667 0 -82.334 -17.333 -107.001 -52
s-37 -81.334 -37 -140.001c0 -50.667 11.5 -89 34.5 -115s56.167 -39 99.5 -39c46 0 81.333 17.333 106 52zM273 552l-121 203h102l86 -203h-67z" />
    <glyph glyph-name="oacute" unicode="&#xf3;" horiz-adv-x="564" 
d="M153 22c-35.333 19.333 -62.667 47 -82 83s-29 77.667 -29 125c0 54.667 10.167 102.334 30.5 143.001s49 72 86 94s79.833 33 128.5 33c48 0 89.667 -9.83301 125 -29.5s62.666 -47.334 81.999 -83.001s29 -77.5 29 -125.5c0 -54.667 -10.167 -102.167 -30.5 -142.5
s-49 -71.5 -86 -93.5s-80.167 -33 -129.5 -33c-47.333 0 -88.666 9.66699 -123.999 29zM383.999 125c24.667 34.667 37.001 81.334 37.001 140.001c0 50 -11.5 88.167 -34.5 114.5s-55.833 39.5 -98.5 39.5c-46.667 0 -82.334 -17.333 -107.001 -52
s-37 -81.334 -37 -140.001c0 -50.667 11.5 -89 34.5 -115s56.167 -39 99.5 -39c46 0 81.333 17.333 106 52zM340 552h-67l112 203h114z" />
    <glyph glyph-name="ocircumflex" unicode="&#xf4;" horiz-adv-x="564" 
d="M153 22c-35.333 19.333 -62.667 47 -82 83s-29 77.667 -29 125c0 54.667 10.167 102.334 30.5 143.001s49 72 86 94s79.833 33 128.5 33c48 0 89.667 -9.83301 125 -29.5s62.666 -47.334 81.999 -83.001s29 -77.5 29 -125.5c0 -54.667 -10.167 -102.167 -30.5 -142.5
s-49 -71.5 -86 -93.5s-80.167 -33 -129.5 -33c-47.333 0 -88.666 9.66699 -123.999 29zM383.999 125c24.667 34.667 37.001 81.334 37.001 140.001c0 50 -11.5 88.167 -34.5 114.5s-55.833 39.5 -98.5 39.5c-46.667 0 -82.334 -17.333 -107.001 -52
s-37 -81.334 -37 -140.001c0 -50.667 11.5 -89 34.5 -115s56.167 -39 99.5 -39c46 0 81.333 17.333 106 52zM241 552h-89l137 203h67l105 -203h-85l-58 135z" />
    <glyph glyph-name="otilde" unicode="&#xf5;" horiz-adv-x="564" 
d="M153 22c-35.333 19.333 -62.667 47 -82 83s-29 77.667 -29 125c0 54.667 10.167 102.334 30.5 143.001s49 72 86 94s79.833 33 128.5 33c48 0 89.667 -9.83301 125 -29.5s62.666 -47.334 81.999 -83.001s29 -77.5 29 -125.5c0 -54.667 -10.167 -102.167 -30.5 -142.5
s-49 -71.5 -86 -93.5s-80.167 -33 -129.5 -33c-47.333 0 -88.666 9.66699 -123.999 29zM383.999 125c24.667 34.667 37.001 81.334 37.001 140.001c0 50 -11.5 88.167 -34.5 114.5s-55.833 39.5 -98.5 39.5c-46.667 0 -82.334 -17.333 -107.001 -52
s-37 -81.334 -37 -140.001c0 -50.667 11.5 -89 34.5 -115s56.167 -39 99.5 -39c46 0 81.333 17.333 106 52zM176 687c18.667 20.667 42.334 30.998 71.001 30.998c13.333 0 25.833 -2.66699 37.5 -8s26.167 -13.333 43.5 -24c2.66699 -1.33301 8.16699 -4.5 16.5 -9.5
s15.833 -8.66699 22.5 -11s12.667 -3.5 18 -3.5c14 0 25.333 4.66699 34 14s13.667 22.333 15 39h50c-2.66699 -41.333 -13.334 -72.166 -32.001 -92.499s-42 -30.5 -70 -30.5c-13.333 0 -25.833 2.5 -37.5 7.5s-26.5 12.833 -44.5 23.5c-12 8 -22.167 14 -30.5 18
s-16.5 6 -24.5 6c-14 0 -25.333 -4.5 -34 -13.5s-14 -21.833 -16 -38.5h-50c2 40.667 12.333 71.334 31 92.001z" />
    <glyph glyph-name="odieresis" unicode="&#xf6;" horiz-adv-x="564" 
d="M153 22c-35.333 19.333 -62.667 47 -82 83s-29 77.667 -29 125c0 54.667 10.167 102.334 30.5 143.001s49 72 86 94s79.833 33 128.5 33c48 0 89.667 -9.83301 125 -29.5s62.666 -47.334 81.999 -83.001s29 -77.5 29 -125.5c0 -54.667 -10.167 -102.167 -30.5 -142.5
s-49 -71.5 -86 -93.5s-80.167 -33 -129.5 -33c-47.333 0 -88.666 9.66699 -123.999 29zM383.999 125c24.667 34.667 37.001 81.334 37.001 140.001c0 50 -11.5 88.167 -34.5 114.5s-55.833 39.5 -98.5 39.5c-46.667 0 -82.334 -17.333 -107.001 -52
s-37 -81.334 -37 -140.001c0 -50.667 11.5 -89 34.5 -115s56.167 -39 99.5 -39c46 0 81.333 17.333 106 52zM178 703h104l-8 -99h-103zM355 703h103l-7 -99h-104z" />
    <glyph glyph-name="divide" unicode="&#xf7;" 
d="M259 430l8 102h100l-8 -102h-100zM550 322l-6 -74h-487l5 74h488zM227 36l9 102h100l-8 -102h-101z" />
    <glyph glyph-name="oslash" unicode="&#xf8;" horiz-adv-x="564" 
d="M504 365.5c12.667 -31 19 -65.501 19 -103.501c0 -54.667 -10.167 -102.167 -30.5 -142.5s-49 -71.5 -86 -93.5s-80.167 -33 -129.5 -33c-40 0 -76.667 7.33301 -110 22l-44 -66l-52 33l44 67c-23.333 20.667 -41.333 46.5 -54 77.5s-19 65.5 -19 103.5
c0 54.667 10.167 102.334 30.5 143.001s49 72 86 94s79.833 33 128.5 33c42 0 79.333 -7.66699 112 -23l43 66l52 -32l-44 -67c23.333 -21.333 41.333 -47.5 54 -78.5zM166 125.999l185.999 281c-17.333 8.66699 -38.666 13 -63.999 13c-46.667 0 -82.5 -17.5 -107.5 -52.5
s-37.5 -81.833 -37.5 -140.5c0 -42 7.66699 -75.667 23 -101zM385.499 123.999c25 34.667 37.5 81.666 37.5 140.999c0 42.667 -8.33301 76.334 -25 101.001l-185 -281c17.333 -8.66699 39 -13 65 -13c46.667 0 82.5 17.333 107.5 52z" />
    <glyph glyph-name="ugrave" unicode="&#xf9;" horiz-adv-x="569" 
d="M517 488l-37.9971 -488h-99l6 74c-16.667 -26 -38.834 -46 -66.501 -60s-58.5 -21 -92.5 -21c-54 0 -95 14.5 -123 43.5s-42 71.5 -42 127.5c0 12 0.333008 21 1 27l24 297h101l-24 -291l-1 -18c0 -69.333 32.333 -104 97 -104c39.333 0 70.666 12.333 93.999 37
s36.666 58.667 39.999 102l22 274h101zM275.003 552l-121 203h102l86 -203h-67z" />
    <glyph glyph-name="uacute" unicode="&#xfa;" horiz-adv-x="569" 
d="M517 488l-37.9971 -488h-99l6 74c-16.667 -26 -38.834 -46 -66.501 -60s-58.5 -21 -92.5 -21c-54 0 -95 14.5 -123 43.5s-42 71.5 -42 127.5c0 12 0.333008 21 1 27l24 297h101l-24 -291l-1 -18c0 -69.333 32.333 -104 97 -104c39.333 0 70.666 12.333 93.999 37
s36.666 58.667 39.999 102l22 274h101zM342.003 552h-67l112 203h114z" />
    <glyph glyph-name="ucircumflex" unicode="&#xfb;" horiz-adv-x="569" 
d="M517 488l-37.9971 -488h-99l6 74c-16.667 -26 -38.834 -46 -66.501 -60s-58.5 -21 -92.5 -21c-54 0 -95 14.5 -123 43.5s-42 71.5 -42 127.5c0 12 0.333008 21 1 27l24 297h101l-24 -291l-1 -18c0 -69.333 32.333 -104 97 -104c39.333 0 70.666 12.333 93.999 37
s36.666 58.667 39.999 102l22 274h101zM243.003 552h-89l137 203h67l105 -203h-85l-58 135z" />
    <glyph glyph-name="udieresis" unicode="&#xfc;" horiz-adv-x="569" 
d="M517 488l-37.9971 -488h-99l6 74c-16.667 -26 -38.834 -46 -66.501 -60s-58.5 -21 -92.5 -21c-54 0 -95 14.5 -123 43.5s-42 71.5 -42 127.5c0 12 0.333008 21 1 27l24 297h101l-24 -291l-1 -18c0 -69.333 32.333 -104 97 -104c39.333 0 70.666 12.333 93.999 37
s36.666 58.667 39.999 102l22 274h101zM180.003 703h104l-8 -99h-103zM357.003 703h103l-7 -99h-104z" />
    <glyph glyph-name="yacute" unicode="&#xfd;" horiz-adv-x="520" 
d="M433 487h103l-343 -667h-102l99 193l-167 474h103l124 -372zM318 552h-67l112 203h114z" />
    <glyph glyph-name="thorn" unicode="&#xfe;" horiz-adv-x="591" 
d="M450.5 471c31.667 -19.333 56.1631 -46.832 73.4961 -82.499s26 -77.167 26 -124.5c0 -53.333 -9.66699 -100.5 -29 -141.5s-46.5 -72.833 -81.5 -95.5s-75.167 -34 -120.5 -34c-37.333 0 -69.666 7.66699 -96.999 23s-48.333 37.666 -63 66.999l-21 -263h-101l70 885
h101l-23 -284c16.667 24.667 38.834 44 66.501 58s57.834 21 90.501 21c40.667 0 76.834 -9.66699 108.501 -29zM409.496 123.001c25 33.333 37.5 79.333 37.5 138c0 50.667 -11.667 89.667 -35 117s-56.666 41 -99.999 41c-44 0 -78.667 -16.833 -104 -50.5
s-38 -79.5 -38 -137.5c0 -51.333 11.667 -90.5 35 -117.5s56.666 -40.5 99.999 -40.5c44.667 0 79.5 16.667 104.5 50z" />
    <glyph glyph-name="ydieresis" unicode="&#xff;" horiz-adv-x="520" 
d="M433 487h103l-343 -667h-102l99 193l-167 474h103l124 -372zM156 703h104l-8 -99h-103zM333 703h103l-7 -99h-104z" />
    <glyph glyph-name="Amacron" unicode="&#x100;" horiz-adv-x="734" 
d="M603 0l-61 174h-356l-88 -174h-107l369 705h86l259 -705h-102zM227 256h286l-117 334zM260 807l6 70h303l-6 -70h-303z" />
    <glyph glyph-name="amacron" unicode="&#x101;" horiz-adv-x="535" 
d="M472 329c0 -13.333 -0.327148 -23.332 -0.994141 -29.999l-23 -299h-97l6 77c-14 -27.333 -33.5 -48.166 -58.5 -62.499s-53.5 -21.5 -85.5 -21.5c-48.667 0 -88.834 13.167 -120.501 39.5s-47.5 60.166 -47.5 101.499c0 36.667 9.66699 66 29 88s50.166 38 92.499 48
s99.166 15 170.499 15h36l2 25c2.66699 38 -3.83301 65.833 -19.5 83.5s-41.834 26.5 -78.501 26.5c-26 0 -53 -4.33301 -81 -13s-55.333 -21.334 -82 -38.001l-26 71c25.333 18 56.666 32.5 93.999 43.5s73.666 16.5 108.999 16.5c120.667 0 181 -57 181 -171z
M325.506 105.001c24.333 24.667 37.833 56.333 40.5 95l2 28h-28c-52 0 -91.833 -2.83301 -119.5 -8.5s-47 -14.5 -58 -26.5s-16.5 -28.333 -16.5 -49c0 -23.333 8.16699 -41.833 24.5 -55.5s38.5 -20.5 66.5 -20.5c34.667 0 64.167 12.333 88.5 37zM153.006 618l6 70h303
l-6 -70h-303z" />
    <glyph glyph-name="Abreve" unicode="&#x102;" horiz-adv-x="734" 
d="M603 0l-61 174h-356l-88 -174h-107l369 705h86l259 -705h-102zM227 256h286l-117 334zM311 803.5c-29.333 18.333 -49.667 44.833 -61 79.5l58 24c12 -23.333 26.833 -39.833 44.5 -49.5s38.5 -14.5 62.5 -14.5s45.333 4.83301 64 14.5s35.667 26.167 51 49.5l54 -24
c-16 -35.333 -39.167 -62 -69.5 -80s-64.5 -27 -102.5 -27s-71.667 9.16699 -101 27.5z" />
    <glyph glyph-name="abreve" unicode="&#x103;" horiz-adv-x="535" 
d="M472 329c0 -13.333 -0.327148 -23.332 -0.994141 -29.999l-23 -299h-97l6 77c-14 -27.333 -33.5 -48.166 -58.5 -62.499s-53.5 -21.5 -85.5 -21.5c-48.667 0 -88.834 13.167 -120.501 39.5s-47.5 60.166 -47.5 101.499c0 36.667 9.66699 66 29 88s50.166 38 92.499 48
s99.166 15 170.499 15h36l2 25c2.66699 38 -3.83301 65.833 -19.5 83.5s-41.834 26.5 -78.501 26.5c-26 0 -53 -4.33301 -81 -13s-55.333 -21.334 -82 -38.001l-26 71c25.333 18 56.666 32.5 93.999 43.5s73.666 16.5 108.999 16.5c120.667 0 181 -57 181 -171z
M325.506 105.001c24.333 24.667 37.833 56.333 40.5 95l2 28h-28c-52 0 -91.833 -2.83301 -119.5 -8.5s-47 -14.5 -58 -26.5s-16.5 -28.333 -16.5 -49c0 -23.333 8.16699 -41.833 24.5 -55.5s38.5 -20.5 66.5 -20.5c34.667 0 64.167 12.333 88.5 37zM202.506 613.5
c-29.667 22.333 -50.1689 55.168 -61.502 98.501l58 24c22.667 -57.333 59.334 -86 110.001 -86c23.333 0 44.833 6.66699 64.5 20s37.834 35.333 54.501 66l55 -24c-16 -44.667 -40 -77.834 -72 -99.501s-67.667 -32.5 -107 -32.5c-38 0 -71.833 11.167 -101.5 33.5z" />
    <glyph glyph-name="Aogonek" unicode="&#x104;" horiz-adv-x="734" 
d="M717 -172c-27.333 -14.667 -56.333 -22 -87 -22c-35.333 0 -63.5 9.5 -84.5 28.5s-31.5 43.5 -31.5 73.5c0 26 6.83301 49 20.5 69s33.5 36 59.5 48l-52 149h-356l-88 -174h-107l369 705h86l259 -705h-28c-28 -0 -49.833 -7.66699 -65.5 -23s-23.5 -33.333 -23.5 -54
c0 -18 5 -32 15 -42s24 -15 42 -15c18.667 0 38.667 5.33301 60 16zM227 256h286l-117 334z" />
    <glyph glyph-name="aogonek" unicode="&#x105;" horiz-adv-x="535" 
d="M477 -172c-27.333 -14.667 -56.3291 -21.998 -86.9961 -21.998c-35.333 0 -63.666 9.33301 -84.999 28s-32 43 -32 73c0 25.333 7.16699 48 21.5 68s33.833 35.333 58.5 46l4 56c-14 -28 -33.667 -49 -59 -63s-54.333 -21 -87 -21c-48 0 -87.667 13.167 -119 39.5
s-47 60.166 -47 101.499c0 36.667 9.66699 66 29 88s50.166 38 92.499 48s99.166 15 170.499 15h36l2 25c2.66699 38 -3.83301 65.833 -19.5 83.5s-41.834 26.5 -78.501 26.5c-26 0 -53 -4.33301 -81 -13s-55.333 -21.334 -82 -38.001l-26 71
c25.333 18 56.666 32.5 93.999 43.5s73.666 16.5 108.999 16.5c120.667 0 181 -57 181 -171c0 -13.333 -0.333008 -23.333 -1 -30l-23 -299h-12c-25.333 0 -46.5 -7 -63.5 -21s-25.5 -32.667 -25.5 -56c0 -18 5.16699 -32 15.5 -42s24.5 -15 42.5 -15s37.667 5.33301 59 16z
M325.504 105.002c24.333 24.667 37.833 56.332 40.5 94.999l2 28h-28c-52 0 -92 -2.83301 -120 -8.5s-47.333 -14.667 -58 -27s-16 -29.166 -16 -50.499c0 -22 8.16699 -39.833 24.5 -53.5s38.5 -20.5 66.5 -20.5c34.667 0 64.167 12.333 88.5 37z" />
    <glyph glyph-name="Cacute" unicode="&#x106;" horiz-adv-x="677" 
d="M212 32c-46.667 26.667 -82.665 65.167 -107.998 115.5s-38 109.5 -38 177.5c0 78 14.167 146.333 42.5 205s68.833 103.834 121.5 135.501s114 47.5 184 47.5c50.667 0 97.167 -7.33301 139.5 -22s78.5 -36.334 108.5 -65.001l-43 -76
c-31.333 27.333 -62.833 47 -94.5 59s-67.834 18 -108.501 18c-77.333 0 -137.333 -26.833 -180 -80.5s-64 -127.834 -64 -222.501c0 -79.333 18.5 -140.166 55.5 -182.499s89.833 -63.5 158.5 -63.5c70 0 137.333 25.667 202 77l31 -76c-29.333 -28 -65 -49.5 -107 -64.5
s-87.333 -22.5 -136 -22.5c-62.667 0 -117.334 13.333 -164.001 40zM463.002 765h-66l110 153h109z" />
    <glyph glyph-name="cacute" unicode="&#x107;" horiz-adv-x="483" 
d="M153 22c-35.333 19.333 -62.6719 46.832 -82.0049 82.499s-29 77.167 -29 124.5c0 54.667 10.333 102.5 31 143.5s50.334 72.5 89.001 94.5s84 33 136 33c36.667 0 70.334 -5.5 101.001 -16.5s57.334 -26.5 80.001 -46.5l-36 -72c-46.667 36 -94 54 -142 54
c-49.333 0 -87.333 -16.667 -114 -50s-40 -80 -40 -140c0 -49.333 12.167 -87.5 36.5 -114.5s58.5 -40.5 102.5 -40.5c25.333 0 49 4.33301 71 13s44.333 22.334 67 41.001l25 -73c-20.667 -19.333 -46.167 -34.5 -76.5 -45.5s-62.166 -16.5 -95.499 -16.5
c-47.333 0 -88.666 9.66699 -123.999 29zM341.994 551.999h-67l112 203h114z" />
    <glyph glyph-name="Ccircumflex" unicode="&#x108;" horiz-adv-x="677" 
d="M212 32c-46.667 26.667 -82.665 65.167 -107.998 115.5s-38 109.5 -38 177.5c0 78 14.167 146.333 42.5 205s68.833 103.834 121.5 135.501s114 47.5 184 47.5c50.667 0 97.167 -7.33301 139.5 -22s78.5 -36.334 108.5 -65.001l-43 -76
c-31.333 27.333 -62.833 47 -94.5 59s-67.834 18 -108.501 18c-77.333 0 -137.333 -26.833 -180 -80.5s-64 -127.834 -64 -222.501c0 -79.333 18.5 -140.166 55.5 -182.499s89.833 -63.5 158.5 -63.5c70 0 137.333 25.667 202 77l31 -76c-29.333 -28 -65 -49.5 -107 -64.5
s-87.333 -22.5 -136 -22.5c-62.667 0 -117.334 13.333 -164.001 40zM361.002 765h-85l134 153h64l110 -153h-84l-59 98z" />
    <glyph glyph-name="ccircumflex" unicode="&#x109;" horiz-adv-x="483" 
d="M153 22c-35.333 19.333 -62.6719 46.832 -82.0049 82.499s-29 77.167 -29 124.5c0 54.667 10.333 102.5 31 143.5s50.334 72.5 89.001 94.5s84 33 136 33c36.667 0 70.334 -5.5 101.001 -16.5s57.334 -26.5 80.001 -46.5l-36 -72c-46.667 36 -94 54 -142 54
c-49.333 0 -87.333 -16.667 -114 -50s-40 -80 -40 -140c0 -49.333 12.167 -87.5 36.5 -114.5s58.5 -40.5 102.5 -40.5c25.333 0 49 4.33301 71 13s44.333 22.334 67 41.001l25 -73c-20.667 -19.333 -46.167 -34.5 -76.5 -45.5s-62.166 -16.5 -95.499 -16.5
c-47.333 0 -88.666 9.66699 -123.999 29zM242.994 551.999h-89l137 203h67l105 -203h-85l-58 135z" />
    <glyph glyph-name="Cdotaccent" unicode="&#x10a;" horiz-adv-x="677" 
d="M212 32c-46.667 26.667 -82.665 65.167 -107.998 115.5s-38 109.5 -38 177.5c0 78 14.167 146.333 42.5 205s68.833 103.834 121.5 135.501s114 47.5 184 47.5c50.667 0 97.167 -7.33301 139.5 -22s78.5 -36.334 108.5 -65.001l-43 -76
c-31.333 27.333 -62.833 47 -94.5 59s-67.834 18 -108.501 18c-77.333 0 -137.333 -26.833 -180 -80.5s-64 -127.834 -64 -222.501c0 -79.333 18.5 -140.166 55.5 -182.499s89.833 -63.5 158.5 -63.5c70 0 137.333 25.667 202 77l31 -76c-29.333 -28 -65 -49.5 -107 -64.5
s-87.333 -22.5 -136 -22.5c-62.667 0 -117.334 13.333 -164.001 40zM382.002 895h117l-9 -106h-116z" />
    <glyph glyph-name="cdotaccent" unicode="&#x10b;" horiz-adv-x="483" 
d="M153 22c-35.333 19.333 -62.6719 46.832 -82.0049 82.499s-29 77.167 -29 124.5c0 54.667 10.333 102.5 31 143.5s50.334 72.5 89.001 94.5s84 33 136 33c36.667 0 70.334 -5.5 101.001 -16.5s57.334 -26.5 80.001 -46.5l-36 -72c-46.667 36 -94 54 -142 54
c-49.333 0 -87.333 -16.667 -114 -50s-40 -80 -40 -140c0 -49.333 12.167 -87.5 36.5 -114.5s58.5 -40.5 102.5 -40.5c25.333 0 49 4.33301 71 13s44.333 22.334 67 41.001l25 -73c-20.667 -19.333 -46.167 -34.5 -76.5 -45.5s-62.166 -16.5 -95.499 -16.5
c-47.333 0 -88.666 9.66699 -123.999 29zM261.994 705.999h117l-9 -105h-116z" />
    <glyph glyph-name="Ccaron" unicode="&#x10c;" horiz-adv-x="677" 
d="M212 32c-46.667 26.667 -82.665 65.167 -107.998 115.5s-38 109.5 -38 177.5c0 78 14.167 146.333 42.5 205s68.833 103.834 121.5 135.501s114 47.5 184 47.5c50.667 0 97.167 -7.33301 139.5 -22s78.5 -36.334 108.5 -65.001l-43 -76
c-31.333 27.333 -62.833 47 -94.5 59s-67.834 18 -108.501 18c-77.333 0 -137.333 -26.833 -180 -80.5s-64 -127.834 -64 -222.501c0 -79.333 18.5 -140.166 55.5 -182.499s89.833 -63.5 158.5 -63.5c70 0 137.333 25.667 202 77l31 -76c-29.333 -28 -65 -49.5 -107 -64.5
s-87.333 -22.5 -136 -22.5c-62.667 0 -117.334 13.333 -164.001 40zM511.002 918h85l-134 -153h-64l-110 153h84l64 -98z" />
    <glyph glyph-name="ccaron" unicode="&#x10d;" horiz-adv-x="483" 
d="M153 22c-35.333 19.333 -62.6719 46.832 -82.0049 82.499s-29 77.167 -29 124.5c0 54.667 10.333 102.5 31 143.5s50.334 72.5 89.001 94.5s84 33 136 33c36.667 0 70.334 -5.5 101.001 -16.5s57.334 -26.5 80.001 -46.5l-36 -72c-46.667 36 -94 54 -142 54
c-49.333 0 -87.333 -16.667 -114 -50s-40 -80 -40 -140c0 -49.333 12.167 -87.5 36.5 -114.5s58.5 -40.5 102.5 -40.5c25.333 0 49 4.33301 71 13s44.333 22.334 67 41.001l25 -73c-20.667 -19.333 -46.167 -34.5 -76.5 -45.5s-62.166 -16.5 -95.499 -16.5
c-47.333 0 -88.666 9.66699 -123.999 29zM389.994 754.999h89l-137 -203h-67l-105 203h85l58 -135z" />
    <glyph glyph-name="Dcaron" unicode="&#x10e;" horiz-adv-x="746" 
d="M118 705h244c106 0 188.333 -28.667 247 -86s88 -137 88 -239c0 -79.333 -14.333 -147.333 -43 -204s-70.5 -100.167 -125.5 -130.5s-121.167 -45.5 -198.5 -45.5h-267zM323 86c89.333 0 156.5 25 201.5 75s67.5 123.333 67.5 220c0 78.667 -20 138 -60 178
s-100 60 -180 60h-137l-42 -533h150zM494 918h85l-134 -153h-64l-110 153h84l64 -98z" />
    <glyph glyph-name="dcaron" unicode="&#x10f;" horiz-adv-x="591" 
d="M455 705l101.001 0.000976562l-55 -705h-100l6 73c-16 -25.333 -37.833 -45 -65.5 -59s-58.167 -21 -91.5 -21c-40.667 0 -76.834 9.5 -108.501 28.5s-56.167 46.167 -73.5 81.5s-26 76.666 -26 123.999c0 54 9.66699 101.667 29 143s46.5 73.333 81.5 96
s75.167 34 120.5 34c36.667 0 68.667 -7.66699 96 -23s48.333 -37.333 63 -66zM587.001 705.001h68l-40 -191h-42zM384.001 123.501c25.333 33.667 37.998 79.501 37.998 137.501c0 51.333 -11.667 90.5 -35 117.5s-56.666 40.5 -99.999 40.5
c-44.667 0 -79.667 -16.667 -105 -50s-38 -79 -38 -137c0 -50.667 11.833 -89.834 35.5 -117.501s56.834 -41.5 99.501 -41.5c44.667 0 79.667 16.833 105 50.5z" />
    <glyph glyph-name="Dcroat" unicode="&#x110;" horiz-adv-x="764" 
d="M627 619c58.667 -57.333 88 -137 88 -239c0 -79.333 -14.333 -147.333 -43 -204s-70.5 -100.167 -125.5 -130.5s-121.167 -45.5 -198.5 -45.5h-267l25 317h-91l7 81h90l24 307h244c106 0 188.333 -28.667 247 -86zM542.5 161c45 50 67.5 123.333 67.5 220
c0 78.667 -20 138 -60 178s-100 60 -180 60h-137l-17 -221h190l-7 -81h-190l-18 -231h150c89.333 0 156.5 25 201.5 75z" />
    <glyph glyph-name="dcroat" unicode="&#x111;" horiz-adv-x="591" 
d="M634 548l-89.998 0.00195312l-43 -548h-100l6 73c-16 -25.333 -37.833 -45 -65.5 -59s-58.167 -21 -91.5 -21c-40.667 0 -76.834 9.66699 -108.501 29s-56.167 47.166 -73.5 83.499s-26 78.833 -26 127.5c0 51.333 9.66699 97.166 29 137.499s46.666 72 81.999 95
s75.333 34.5 120 34.5c36.667 0 68.667 -7.66699 96 -23s48.333 -37.333 63 -66l11 137h-191l6 74h191l6 83h101l-6 -83h90zM384.502 124.002c25 34 37.499 81.333 37.499 142c0 50 -11.667 88 -35 114s-57 39 -101 39c-43.333 0 -77.833 -16.667 -103.5 -50
s-38.5 -79.333 -38.5 -138c0 -50.667 11.833 -89.667 35.5 -117s56.834 -41 99.501 -41c45.333 0 80.5 17 105.5 51z" />
    <glyph glyph-name="Emacron" unicode="&#x112;" horiz-adv-x="585" 
d="M570 622h-356l-18 -222h336l-7 -84h-335l-19 -233h356l-6 -83h-458l55 705h458zM219 807l6 70h303l-6 -70h-303z" />
    <glyph glyph-name="emacron" unicode="&#x113;" horiz-adv-x="529" 
d="M436 443c36.667 -38 54.998 -93.333 54.998 -166c0 -15.333 -1 -32 -3 -50h-346c0.666992 -49.333 13.334 -87.5 38.001 -114.5s60.334 -40.5 107.001 -40.5c56.667 0 108 18 154 54l26 -71c-20.667 -18.667 -48 -33.667 -82 -45s-68.667 -17 -104 -17
c-48 0 -90 9.66699 -126 29s-63.833 47 -83.5 83s-29.5 77.667 -29.5 125c0 52.667 10.167 99.5 30.5 140.5s49 72.833 86 95.5s79.167 34 126.5 34c64 0 114.333 -19 151 -57zM192.498 390c-24.333 -24 -39.8311 -59.001 -46.498 -105.001h258
c1.33301 46.667 -8.33398 81.834 -29.001 105.501s-49.334 35.5 -86.001 35.5c-40 0 -72.167 -12 -96.5 -36zM154 617.999l6 70h303l-6 -70h-303z" />
    <glyph glyph-name="Ebreve" unicode="&#x114;" horiz-adv-x="585" 
d="M570 622h-356l-18 -222h336l-7 -84h-335l-19 -233h356l-6 -83h-458l55 705h458zM270 803.5c-29.333 18.333 -49.667 44.833 -61 79.5l58 24c12 -23.333 26.833 -39.833 44.5 -49.5s38.5 -14.5 62.5 -14.5s45.333 4.83301 64 14.5s35.667 26.167 51 49.5l54 -24
c-16 -35.333 -39.167 -62 -69.5 -80s-64.5 -27 -102.5 -27s-71.667 9.16699 -101 27.5z" />
    <glyph glyph-name="ebreve" unicode="&#x115;" horiz-adv-x="529" 
d="M436 443c36.667 -38 54.998 -93.333 54.998 -166c0 -15.333 -1 -32 -3 -50h-346c0.666992 -49.333 13.334 -87.5 38.001 -114.5s60.334 -40.5 107.001 -40.5c56.667 0 108 18 154 54l26 -71c-20.667 -18.667 -48 -33.667 -82 -45s-68.667 -17 -104 -17
c-48 0 -90 9.66699 -126 29s-63.833 47 -83.5 83s-29.5 77.667 -29.5 125c0 52.667 10.167 99.5 30.5 140.5s49 72.833 86 95.5s79.167 34 126.5 34c64 0 114.333 -19 151 -57zM192.498 390c-24.333 -24 -39.8311 -59.001 -46.498 -105.001h258
c1.33301 46.667 -8.33398 81.834 -29.001 105.501s-49.334 35.5 -86.001 35.5c-40 0 -72.167 -12 -96.5 -36zM203.5 613.499c-29.667 22.333 -50.1689 55.168 -61.502 98.501l58 24c22.667 -57.333 59.334 -86 110.001 -86c23.333 0 44.833 6.66699 64.5 20
s37.834 35.333 54.501 66l55 -24c-16 -44.667 -40 -77.834 -72 -99.501s-67.667 -32.5 -107 -32.5c-38 0 -71.833 11.167 -101.5 33.5z" />
    <glyph glyph-name="Edotaccent" unicode="&#x116;" horiz-adv-x="585" 
d="M570 622h-356l-18 -222h336l-7 -84h-335l-19 -233h356l-6 -83h-458l55 705h458zM319 895h117l-9 -106h-116z" />
    <glyph glyph-name="edotaccent" unicode="&#x117;" horiz-adv-x="529" 
d="M436 443c36.667 -38 54.998 -93.333 54.998 -166c0 -15.333 -1 -32 -3 -50h-346c0.666992 -49.333 13.334 -87.5 38.001 -114.5s60.334 -40.5 107.001 -40.5c56.667 0 108 18 154 54l26 -71c-20.667 -18.667 -48 -33.667 -82 -45s-68.667 -17 -104 -17
c-48 0 -90 9.66699 -126 29s-63.833 47 -83.5 83s-29.5 77.667 -29.5 125c0 52.667 10.167 99.5 30.5 140.5s49 72.833 86 95.5s79.167 34 126.5 34c64 0 114.333 -19 151 -57zM192.498 390c-24.333 -24 -39.8311 -59.001 -46.498 -105.001h258
c1.33301 46.667 -8.33398 81.834 -29.001 105.501s-49.334 35.5 -86.001 35.5c-40 0 -72.167 -12 -96.5 -36zM254 705.999h117l-9 -105h-116z" />
    <glyph glyph-name="Eogonek" unicode="&#x118;" horiz-adv-x="585" 
d="M214 622l-18.001 -222h336l-7 -84h-335l-19 -233h356l-6 -83h-17c-28.667 -0 -51 -7.16699 -67 -21.5s-24 -32.833 -24 -55.5c0 -18 5.16699 -32 15.5 -42s24.5 -15 42.5 -15s37.667 5.33301 59 16l12 -54c-27.333 -14.667 -56 -22 -86 -22
c-35.333 0 -63.666 9.33301 -84.999 28s-32 43 -32 73c0 38 14.667 69 44 93h-320l55 705h458l-7 -83h-355z" />
    <glyph glyph-name="eogonek" unicode="&#x119;" horiz-adv-x="529" 
d="M435.5 443c37 -38 55.4971 -93.333 55.4971 -166c0 -16 -1 -32.667 -3 -50h-346c0.666992 -49.333 13.334 -87.5 38.001 -114.5s60.334 -40.5 107.001 -40.5c56.667 0 108 18 154 54l26 -71c-13.333 -13.333 -32.666 -25.333 -57.999 -36
c-34 -14.667 -57.5 -29.667 -70.5 -45s-19.5 -32.333 -19.5 -51c0 -18 5 -32 15 -42s24 -15 42 -15c18.667 0 38.667 5.33301 60 16l12 -54c-27.333 -14.667 -56.333 -22 -87 -22c-35.333 0 -63.5 9.33301 -84.5 28s-31.5 43 -31.5 73c0 35.333 12.667 64 38 86h-2
c-48 0 -90 9.66699 -126 29s-63.833 47 -83.5 83s-29.5 77.667 -29.5 125c0 52.667 10.167 99.5 30.5 140.5s49 72.833 86 95.5s79.167 34 126.5 34c63.333 0 113.5 -19 150.5 -57zM193.497 391.5c-25 -23 -40.8311 -58.501 -47.498 -106.501h258
c1.33301 46.667 -8.33398 81.834 -29.001 105.501s-49.334 35.5 -86.001 35.5c-38.667 0 -70.5 -11.5 -95.5 -34.5z" />
    <glyph glyph-name="Ecaron" unicode="&#x11a;" horiz-adv-x="585" 
d="M570 622h-356l-18 -222h336l-7 -84h-335l-19 -233h356l-6 -83h-458l55 705h458zM448 918h85l-134 -153h-64l-110 153h84l64 -98z" />
    <glyph glyph-name="ecaron" unicode="&#x11b;" horiz-adv-x="529" 
d="M436 443c36.667 -38 54.998 -93.333 54.998 -166c0 -15.333 -1 -32 -3 -50h-346c0.666992 -49.333 13.334 -87.5 38.001 -114.5s60.334 -40.5 107.001 -40.5c56.667 0 108 18 154 54l26 -71c-20.667 -18.667 -48 -33.667 -82 -45s-68.667 -17 -104 -17
c-48 0 -90 9.66699 -126 29s-63.833 47 -83.5 83s-29.5 77.667 -29.5 125c0 52.667 10.167 99.5 30.5 140.5s49 72.833 86 95.5s79.167 34 126.5 34c64 0 114.333 -19 151 -57zM192.498 390c-24.333 -24 -39.8311 -59.001 -46.498 -105.001h258
c1.33301 46.667 -8.33398 81.834 -29.001 105.501s-49.334 35.5 -86.001 35.5c-40 0 -72.167 -12 -96.5 -36zM382 754.999h89l-137 -203h-67l-105 203h85l58 -135z" />
    <glyph glyph-name="Gcircumflex" unicode="&#x11c;" horiz-adv-x="728" 
d="M406 374l258.001 0.000976562l-26 -331c-30.667 -15.333 -68.334 -27.666 -113.001 -36.999s-89 -14 -133 -14c-104 0 -184.5 29 -241.5 87s-85.5 138 -85.5 240c0 80 14.667 149.667 44 209s71 105 125 137s117.333 48 190 48c102 0 184.667 -29 248 -87l-43 -76
c-32.667 27.333 -64.834 47.166 -96.501 59.499s-67.5 18.5 -107.5 18.5c-80.667 -0.666992 -143.167 -28 -187.5 -82s-66.5 -129 -66.5 -225c0 -78.667 19.333 -139.334 58 -182.001s96.334 -64 173.001 -64c49.333 0 98.333 8.33301 147 25l16 196h-165zM368.001 765.001
h-85l134 153h64l110 -153h-84l-59 98z" />
    <glyph glyph-name="gcircumflex" unicode="&#x11d;" horiz-adv-x="595" 
d="M543 488l-35.001 -446c-6 -78 -29.5 -135.667 -70.5 -173s-99.167 -56 -174.5 -56c-86 0 -160 21.333 -222 64l36 73c32.667 -20.667 63.5 -35.5 92.5 -44.5s60.833 -13.5 95.5 -13.5c88.667 0 136.334 47 143.001 141l5 60c-16 -24.667 -38 -43.834 -66 -57.501
s-59 -20.5 -93 -20.5c-42 0 -79 9.16699 -111 27.5s-56.667 44.5 -74 78.5s-26 73.333 -26 118c0 50.667 9.66699 95.834 29 135.501s46.5 70.5 81.5 92.5s75.5 33 121.5 33c37.333 0 70 -7.83301 98 -23.5s49.333 -37.5 64 -65.5l6 77h100zM387.499 142
c25.667 31.333 38.499 74.333 38.499 129c0 48 -11.833 84.667 -35.5 110s-57.167 38 -100.5 38c-45.333 0 -80.833 -15.833 -106.5 -47.5s-38.5 -75.167 -38.5 -130.5c0 -46.667 11.833 -82.667 35.5 -108s57.5 -38 101.5 -38c44.667 0 79.834 15.667 105.501 47z
M257.998 552h-89l137 203h67l105 -203h-85l-58 135z" />
    <glyph glyph-name="Gbreve" unicode="&#x11e;" horiz-adv-x="728" 
d="M406 374l258.001 0.000976562l-26 -331c-30.667 -15.333 -68.334 -27.666 -113.001 -36.999s-89 -14 -133 -14c-104 0 -184.5 29 -241.5 87s-85.5 138 -85.5 240c0 80 14.667 149.667 44 209s71 105 125 137s117.333 48 190 48c102 0 184.667 -29 248 -87l-43 -76
c-32.667 27.333 -64.834 47.166 -96.501 59.499s-67.5 18.5 -107.5 18.5c-80.667 -0.666992 -143.167 -28 -187.5 -82s-66.5 -129 -66.5 -225c0 -78.667 19.333 -139.334 58 -182.001s96.334 -64 173.001 -64c49.333 0 98.333 8.33301 147 25l16 196h-165zM340.001 803.501
c-29.333 18.333 -49.667 44.833 -61 79.5l58 24c12 -23.333 26.833 -39.833 44.5 -49.5s38.5 -14.5 62.5 -14.5s45.333 4.83301 64 14.5s35.667 26.167 51 49.5l54 -24c-16 -35.333 -39.167 -62 -69.5 -80s-64.5 -27 -102.5 -27s-71.667 9.16699 -101 27.5z" />
    <glyph glyph-name="gbreve" unicode="&#x11f;" horiz-adv-x="595" 
d="M543 488l-35.001 -446c-6 -78 -29.5 -135.667 -70.5 -173s-99.167 -56 -174.5 -56c-86 0 -160 21.333 -222 64l36 73c32.667 -20.667 63.5 -35.5 92.5 -44.5s60.833 -13.5 95.5 -13.5c88.667 0 136.334 47 143.001 141l5 60c-16 -24.667 -38 -43.834 -66 -57.501
s-59 -20.5 -93 -20.5c-42 0 -79 9.16699 -111 27.5s-56.667 44.5 -74 78.5s-26 73.333 -26 118c0 50.667 9.66699 95.834 29 135.501s46.5 70.5 81.5 92.5s75.5 33 121.5 33c37.333 0 70 -7.83301 98 -23.5s49.333 -37.5 64 -65.5l6 77h100zM387.499 142
c25.667 31.333 38.499 74.333 38.499 129c0 48 -11.833 84.667 -35.5 110s-57.167 38 -100.5 38c-45.333 0 -80.833 -15.833 -106.5 -47.5s-38.5 -75.167 -38.5 -130.5c0 -46.667 11.833 -82.667 35.5 -108s57.5 -38 101.5 -38c44.667 0 79.834 15.667 105.501 47z
M226.498 613.5c-29.667 22.333 -50.1689 55.168 -61.502 98.501l58 24c22.667 -57.333 59.334 -86 110.001 -86c23.333 0 44.833 6.66699 64.5 20s37.834 35.333 54.501 66l55 -24c-16 -44.667 -40 -77.834 -72 -99.501s-67.667 -32.5 -107 -32.5
c-38 0 -71.833 11.167 -101.5 33.5z" />
    <glyph glyph-name="Gdotaccent" unicode="&#x120;" horiz-adv-x="728" 
d="M406 374l258.001 0.000976562l-26 -331c-30.667 -15.333 -68.334 -27.666 -113.001 -36.999s-89 -14 -133 -14c-104 0 -184.5 29 -241.5 87s-85.5 138 -85.5 240c0 80 14.667 149.667 44 209s71 105 125 137s117.333 48 190 48c102 0 184.667 -29 248 -87l-43 -76
c-32.667 27.333 -64.834 47.166 -96.501 59.499s-67.5 18.5 -107.5 18.5c-80.667 -0.666992 -143.167 -28 -187.5 -82s-66.5 -129 -66.5 -225c0 -78.667 19.333 -139.334 58 -182.001s96.334 -64 173.001 -64c49.333 0 98.333 8.33301 147 25l16 196h-165zM389.001 895.001
h117l-9 -106h-116z" />
    <glyph glyph-name="gdotaccent" unicode="&#x121;" horiz-adv-x="595" 
d="M543 488l-35.001 -446c-6 -78 -29.5 -135.667 -70.5 -173s-99.167 -56 -174.5 -56c-86 0 -160 21.333 -222 64l36 73c32.667 -20.667 63.5 -35.5 92.5 -44.5s60.833 -13.5 95.5 -13.5c88.667 0 136.334 47 143.001 141l5 60c-16 -24.667 -38 -43.834 -66 -57.501
s-59 -20.5 -93 -20.5c-42 0 -79 9.16699 -111 27.5s-56.667 44.5 -74 78.5s-26 73.333 -26 118c0 50.667 9.66699 95.834 29 135.501s46.5 70.5 81.5 92.5s75.5 33 121.5 33c37.333 0 70 -7.83301 98 -23.5s49.333 -37.5 64 -65.5l6 77h100zM387.499 142
c25.667 31.333 38.499 74.333 38.499 129c0 48 -11.833 84.667 -35.5 110s-57.167 38 -100.5 38c-45.333 0 -80.833 -15.833 -106.5 -47.5s-38.5 -75.167 -38.5 -130.5c0 -46.667 11.833 -82.667 35.5 -108s57.5 -38 101.5 -38c44.667 0 79.834 15.667 105.501 47z
M276.998 706h117l-9 -105h-116z" />
    <glyph glyph-name="Gcommaaccent" unicode="&#x122;" horiz-adv-x="728" 
d="M406 374l258.001 0.000976562l-26 -331c-30.667 -15.333 -68.334 -27.666 -113.001 -36.999s-89 -14 -133 -14c-104 0 -184.5 29 -241.5 87s-85.5 138 -85.5 240c0 80 14.667 149.667 44 209s71 105 125 137s117.333 48 190 48c102 0 184.667 -29 248 -87l-43 -76
c-32.667 27.333 -64.834 47.166 -96.501 59.499s-67.5 18.5 -107.5 18.5c-80.667 -0.666992 -143.167 -28 -187.5 -82s-66.5 -129 -66.5 -225c0 -78.667 19.333 -139.334 58 -182.001s96.334 -64 173.001 -64c49.333 0 98.333 8.33301 147 25l16 196h-165zM435.001 -69.999
l-5 -60c-2 -28 -7.83301 -52.667 -17.5 -74s-25.167 -41.333 -46.5 -60l-39 30c23.333 22.667 37 46.667 41 72h-53l7 92h113z" />
    <glyph glyph-name="gcommaaccent" unicode="&#x123;" horiz-adv-x="595" 
d="M543 488l-35.001 -446c-6 -78 -29.5 -135.667 -70.5 -173s-99.167 -56 -174.5 -56c-86 0 -160 21.333 -222 64l36 73c32.667 -20.667 63.5 -35.5 92.5 -44.5s60.833 -13.5 95.5 -13.5c88.667 0 136.334 47 143.001 141l5 60c-16 -24.667 -38 -43.834 -66 -57.501
s-59 -20.5 -93 -20.5c-42 0 -79 9.16699 -111 27.5s-56.667 44.5 -74 78.5s-26 73.333 -26 118c0 50.667 9.66699 95.834 29 135.501s46.5 70.5 81.5 92.5s75.5 33 121.5 33c37.333 0 70 -7.83301 98 -23.5s49.333 -37.5 64 -65.5l6 77h100zM387.499 142
c25.667 31.333 38.499 74.333 38.499 129c0 48 -11.833 84.667 -35.5 110s-57.167 38 -100.5 38c-45.333 0 -80.833 -15.833 -106.5 -47.5s-38.5 -75.167 -38.5 -130.5c0 -46.667 11.833 -82.667 35.5 -108s57.5 -38 101.5 -38c44.667 0 79.834 15.667 105.501 47z
M388.998 673l-7 -92h-113l5 60c2 28 7.83301 52.667 17.5 74s25.167 41.333 46.5 60l39 -30c-22.667 -22 -36.667 -46 -42 -72h54z" />
    <glyph glyph-name="Hcircumflex" unicode="&#x124;" horiz-adv-x="762" 
d="M614 705h102l-56 -705h-102l25 316h-393l-25 -316h-102l55 705h102l-24 -305h394zM353 765h-85l134 153h64l110 -153h-84l-59 98z" />
    <glyph glyph-name="hcircumflex" unicode="&#x125;" horiz-adv-x="576" 
d="M470.5 457c28.333 -28.667 42.498 -71 42.498 -127c0 -13.333 -0.333008 -23.333 -1 -30l-23 -300h-101l23 295c0.666992 4.66699 1 11.667 1 21c0 68 -32.667 102 -98 102c-41.333 0 -74.166 -12.333 -98.499 -37s-38.166 -59 -41.499 -103l-22 -278h-101l56 705h101
l-23 -284c16.667 25.333 39 44.833 67 58.5s59.333 20.5 94 20.5c54.667 0 96.167 -14.333 124.5 -43zM93.998 765h-85l134 153h64l110 -153h-84l-59 98z" />
    <glyph glyph-name="Hbar" unicode="&#x126;" horiz-adv-x="798" 
d="M816 596l-6 -79h-82l-41 -517h-102l25 316h-393l-25 -316h-102l40 517h-99l6 79h99l9 109h102l-9 -109h394l9 109h102l-9 -109h82zM617 400l9 117h-394l-9 -117h394z" />
    <glyph glyph-name="hbar" unicode="&#x127;" horiz-adv-x="576" 
d="M470.5 457c28.333 -28.667 42.498 -71 42.498 -127c0 -13.333 -0.333008 -23.333 -1 -30l-23 -300h-101l23 295c0.666992 4.66699 1 11.667 1 21c0 68 -32.667 102 -98 102c-41.333 0 -74.166 -12.333 -98.499 -37s-38.166 -59 -41.499 -103l-22 -278h-101l43 548h-90
l6 74h90l6 83h101l-6 -83h191l-6 -74h-191l-10 -127c16.667 25.333 39 44.833 67 58.5s59.333 20.5 94 20.5c54.667 0 96.167 -14.333 124.5 -43z" />
    <glyph glyph-name="Itilde" unicode="&#x128;" horiz-adv-x="267" 
d="M63 0l55 705h103l-55 -705h-103zM43.5 875c19 20.667 43.166 31.001 72.499 31.001c12.667 0 24.667 -2.66699 36 -8s25.666 -13.333 42.999 -24c14 -8.66699 25 -14.834 33 -18.501s15.667 -5.5 23 -5.5c14 0 25.5 4.66699 34.5 14s13.833 22.333 14.5 39h51
c-2.66699 -41.333 -13.5 -72.333 -32.5 -93s-43.167 -31 -72.5 -31c-12.667 0 -24.667 2.66699 -36 8s-25.666 13.333 -42.999 24c-12.667 8 -23.167 14 -31.5 18s-16.166 6 -23.499 6c-14 0 -25.5 -4.66699 -34.5 -14s-14.167 -22.333 -15.5 -39h-50
c2 41.333 12.5 72.333 31.5 93z" />
    <glyph glyph-name="itilde" unicode="&#x129;" horiz-adv-x="242" 
d="M51 0l39 488h101l-39 -488h-101zM15 687c18.667 20.667 42.334 30.998 71.001 30.998c13.333 0 25.833 -2.66699 37.5 -8s26.167 -13.333 43.5 -24c2.66699 -1.33301 8.16699 -4.5 16.5 -9.5s15.833 -8.66699 22.5 -11s12.667 -3.5 18 -3.5c14 0 25.333 4.66699 34 14
s13.667 22.333 15 39h50c-2.66699 -41.333 -13.334 -72.166 -32.001 -92.499s-42 -30.5 -70 -30.5c-13.333 0 -25.833 2.5 -37.5 7.5s-26.5 12.833 -44.5 23.5c-12 8 -22.167 14 -30.5 18s-16.5 6 -24.5 6c-14 0 -25.333 -4.5 -34 -13.5s-14 -21.833 -16 -38.5h-50
c2 40.667 12.333 71.334 31 92.001z" />
    <glyph glyph-name="Imacron" unicode="&#x12a;" horiz-adv-x="267" 
d="M63 0l55 705h103l-55 -705h-103zM27 807l6 70h303l-6 -70h-303z" />
    <glyph glyph-name="imacron" unicode="&#x12b;" horiz-adv-x="242" 
d="M51 0l39 488h101l-39 -488h-101zM-1 618l6 70h303l-6 -70h-303z" />
    <glyph glyph-name="Ibreve" unicode="&#x12c;" horiz-adv-x="267" 
d="M63 0l55 705h103l-55 -705h-103zM78 803.5c-29.333 18.333 -49.667 44.833 -61 79.5l58 24c12 -23.333 26.833 -39.833 44.5 -49.5s38.5 -14.5 62.5 -14.5s45.333 4.83301 64 14.5s35.667 26.167 51 49.5l54 -24c-16 -35.333 -39.167 -62 -69.5 -80s-64.5 -27 -102.5 -27
s-71.667 9.16699 -101 27.5z" />
    <glyph glyph-name="ibreve" unicode="&#x12d;" horiz-adv-x="242" 
d="M51 0l39 488h101l-39 -488h-101zM48.5 613.5c-29.667 22.333 -50.1689 55.168 -61.502 98.501l58 24c22.667 -57.333 59.334 -86 110.001 -86c23.333 0 44.833 6.66699 64.5 20s37.834 35.333 54.501 66l55 -24c-16 -44.667 -40 -77.834 -72 -99.501
s-67.667 -32.5 -107 -32.5c-38 0 -71.833 11.167 -101.5 33.5z" />
    <glyph glyph-name="Iogonek" unicode="&#x12e;" horiz-adv-x="267" 
d="M181 -118l11.998 -53.999c-27.333 -14.667 -56.333 -22 -87 -22c-35.333 0 -63.5 9.5 -84.5 28.5s-31.5 43.833 -31.5 74.5c0 26 6.33301 48.667 19 68s31.334 34.666 56.001 45.999l53 682h103l-55 -705h-9c-31.333 -0 -54.666 -7.16699 -69.999 -21.5
s-23 -32.5 -23 -54.5c0 -18.667 5.16699 -33 15.5 -43s24.5 -15 42.5 -15s37.667 5.33301 59 16z" />
    <glyph glyph-name="iogonek" unicode="&#x12f;" horiz-adv-x="242" 
d="M99 706h117l-9 -105h-116zM75.5 -21.5c-15.667 -14.333 -23.5 -32.5 -23.5 -54.5c0 -18.667 5.16699 -33 15.5 -43s24.5 -15 42.5 -15s37.667 5.33301 59 16l12 -54c-27.333 -14.667 -56 -22 -86 -22c-36 0 -64.5 9.5 -85.5 28.5s-31.5 43.833 -31.5 74.5
c0 51.333 25 89.333 75 114l37 465h101l-39 -488h-6c-31.333 -0 -54.833 -7.16699 -70.5 -21.5z" />
    <glyph glyph-name="Idotaccent" unicode="&#x130;" horiz-adv-x="267" 
d="M63 0l55 705h103l-55 -705h-103zM127 895h117l-9 -106h-116z" />
    <glyph glyph-name="dotlessi" unicode="&#x131;" horiz-adv-x="242" 
d="M51 0l39 488h101l-39 -488h-101z" />
    <glyph glyph-name="Jcircumflex" unicode="&#x134;" horiz-adv-x="341" 
d="M-21 77l62 3.99902c34.667 2.66699 61 13.334 79 32.001s28.333 46.667 31 84l40 508h104l-40 -508c-4.66699 -64 -24.167 -112.333 -58.5 -145s-83.5 -51 -147.5 -55l-66 -5zM179 764.999h-85l134 153h64l110 -153h-84l-59 98z" />
    <glyph glyph-name="jcircumflex" unicode="&#x135;" horiz-adv-x="242" 
d="M153 11c-5.33301 -64.667 -23.333 -111.833 -54 -141.5s-81 -46.5 -151 -50.5l-47 -3l-3 75l49 3c34 3.33301 59.167 12.833 75.5 28.5s25.833 40.167 28.5 73.5l39 492h101zM80 552.001h-89l137 203h67l105 -203h-85l-58 135z" />
    <glyph glyph-name="Kcommaaccent" unicode="&#x136;" horiz-adv-x="642" 
d="M680 705l-383 -344l345 -361h-124l-326 333l-26 -333h-103l55 705h103l-25 -320l351 320h133zM355 -70l-5 -60c-2 -28 -7.83301 -52.667 -17.5 -74s-25.167 -41.333 -46.5 -60l-39 30c23.333 22.667 37 46.667 41 72h-53l7 92h113z" />
    <glyph glyph-name="kcommaaccent" unicode="&#x137;" horiz-adv-x="517" 
d="M529 487l-248 -235l230 -252h-125l-216 232l-18 -232h-101l56 705h101l-35 -437l229 219h127zM290 -70l-5 -60c-2 -28 -7.83301 -52.667 -17.5 -74s-25.167 -41.333 -46.5 -60l-39 30c23.333 22.667 37 46.667 41 72h-53l7 92h113z" />
    <glyph glyph-name="kgreenlandic" unicode="&#x138;" horiz-adv-x="517" 
d="M529 487l-248 -235l230 -252h-125l-215 232l-19 -232h-101l39 488h101l-18 -219l229 218h127z" />
    <glyph glyph-name="Lacute" unicode="&#x139;" horiz-adv-x="547" 
d="M63 0l55 705h104l-49 -619h342l-7 -86h-445zM207 765h-66l110 153h109z" />
    <glyph glyph-name="lacute" unicode="&#x13a;" horiz-adv-x="242" 
d="M51 0l56 705h101l-56 -705h-101zM195 765h-66l110 153h109z" />
    <glyph glyph-name="Lcommaaccent" unicode="&#x13b;" horiz-adv-x="547" 
d="M63 0l55 705h104l-49 -619h342l-7 -86h-445zM342 -70l-5 -60c-2 -28 -7.83301 -52.667 -17.5 -74s-25.167 -41.333 -46.5 -60l-39 30c23.333 22.667 37 46.667 41 72h-53l7 92h113z" />
    <glyph glyph-name="lcommaaccent" unicode="&#x13c;" horiz-adv-x="242" 
d="M51 0l56 705h101l-56 -705h-101zM153 -70l-5 -60c-2 -28 -7.83301 -52.667 -17.5 -74s-25.167 -41.333 -46.5 -60l-39 30c23.333 22.667 37 46.667 41 72h-53l7 92h113z" />
    <glyph glyph-name="Lcaron" unicode="&#x13d;" horiz-adv-x="547" 
d="M63 0l55 705h104l-49 -619h342l-7 -86h-445zM343 514h-51l14 191h77z" />
    <glyph glyph-name="lcaron" unicode="&#x13e;" horiz-adv-x="242" 
d="M51 0l56 705h101l-56 -705h-101zM268 514h-42l14 191h68z" />
    <glyph glyph-name="Ldot" unicode="&#x13f;" horiz-adv-x="547" 
d="M63 0l55 705h104l-49 -619h342l-7 -86h-445zM316 407h119l-9 -108h-119z" />
    <glyph glyph-name="ldot" unicode="&#x140;" horiz-adv-x="294" 
d="M51 0l56 705h101l-56 -705h-101zM213 407h119l-9 -108h-119z" />
    <glyph glyph-name="Lslash" unicode="&#x141;" horiz-adv-x="565" 
d="M191 86h342l-6 -86h-446l22 280l-73 -40l-35 70l115 63l26 332h104l-22 -272l173 95l34 -70l-214 -118z" />
    <glyph glyph-name="lslash" unicode="&#x142;" horiz-adv-x="302" 
d="M325 402l-116 -64l-26 -338h-101l22 280l-75 -41l-34 70l116 64l26 332h101l-21 -274l74 41z" />
    <glyph glyph-name="Nacute" unicode="&#x143;" horiz-adv-x="743" 
d="M600 705h97l-56 -705h-78l-361 532l-42 -532h-97l55 705h79l361 -530zM445 765h-66l110 153h109z" />
    <glyph glyph-name="nacute" unicode="&#x144;" horiz-adv-x="576" 
d="M470.5 457c28.333 -28.667 42.499 -71 42.499 -127c0 -13.333 -0.333008 -23.333 -1 -30l-23 -300h-101l23 295c0.666992 4.66699 1 11.667 1 21c0 68 -32.667 102 -98 102c-41.333 0 -74.166 -12.333 -98.499 -37s-38.166 -59 -41.499 -103l-22 -278h-101l39 488h99
l-6 -70c16.667 26 39.167 46.167 67.5 60.5s60.166 21.5 95.499 21.5c54.667 0 96.167 -14.333 124.5 -43zM346.999 552h-67l112 203h114z" />
    <glyph glyph-name="Ncommaaccent" unicode="&#x145;" horiz-adv-x="743" 
d="M600 705h97l-56 -705h-78l-361 532l-42 -532h-97l55 705h79l361 -530zM404 -70l-5 -60c-2 -28 -7.83301 -52.667 -17.5 -74s-25.167 -41.333 -46.5 -60l-39 30c23.333 22.667 37 46.667 41 72h-53l7 92h113z" />
    <glyph glyph-name="ncommaaccent" unicode="&#x146;" horiz-adv-x="576" 
d="M470.5 457c28.333 -28.667 42.499 -71 42.499 -127c0 -13.333 -0.333008 -23.333 -1 -30l-23 -300h-101l23 295c0.666992 4.66699 1 11.667 1 21c0 68 -32.667 102 -98 102c-41.333 0 -74.166 -12.333 -98.499 -37s-38.166 -59 -41.499 -103l-22 -278h-101l39 488h99
l-6 -70c16.667 26 39.167 46.167 67.5 60.5s60.166 21.5 95.499 21.5c54.667 0 96.167 -14.333 124.5 -43zM320.999 -70l-5 -60c-2 -28 -7.83301 -52.667 -17.5 -74s-25.167 -41.333 -46.5 -60l-39 30c23.333 22.667 37 46.667 41 72h-53l7 92h113z" />
    <glyph glyph-name="Ncaron" unicode="&#x147;" horiz-adv-x="743" 
d="M600 705h97l-56 -705h-78l-361 532l-42 -532h-97l55 705h79l361 -530zM493 918h85l-134 -153h-64l-110 153h84l64 -98z" />
    <glyph glyph-name="ncaron" unicode="&#x148;" horiz-adv-x="576" 
d="M470.5 457c28.333 -28.667 42.499 -71 42.499 -127c0 -13.333 -0.333008 -23.333 -1 -30l-23 -300h-101l23 295c0.666992 4.66699 1 11.667 1 21c0 68 -32.667 102 -98 102c-41.333 0 -74.166 -12.333 -98.499 -37s-38.166 -59 -41.499 -103l-22 -278h-101l39 488h99
l-6 -70c16.667 26 39.167 46.167 67.5 60.5s60.166 21.5 95.499 21.5c54.667 0 96.167 -14.333 124.5 -43zM394.999 755h89l-137 -203h-67l-105 203h85l58 -135z" />
    <glyph glyph-name="napostrophe" unicode="&#x149;" horiz-adv-x="576" 
d="M244 755l-3.99902 -58.999c-2.66699 -28 -8.83398 -52.667 -18.501 -74s-25.167 -41.333 -46.5 -60l-39 30c12.667 12 22.167 23.667 28.5 35s10.833 23.666 13.5 36.999h-53l6 91h113zM470.501 457.001c28.333 -28.667 42.499 -71 42.499 -127
c0 -13.333 -0.333008 -23.333 -1 -30l-23 -300h-101l23 295c0.666992 4.66699 1 11.667 1 21c0 68 -32.667 102 -98 102c-41.333 0 -74.166 -12.333 -98.499 -37s-38.166 -59 -41.499 -103l-22 -278h-101l39 488h99l-6 -70c16.667 26 39.167 46.167 67.5 60.5
s60.166 21.5 95.499 21.5c54.667 0 96.167 -14.333 124.5 -43z" />
    <glyph glyph-name="Eng" unicode="&#x14a;" horiz-adv-x="743" 
d="M697 705l-55.002 -691c-4.66699 -61.333 -23.667 -108.333 -57 -141s-82.333 -51 -147 -55l-68 -5l-4 81l64 4c34.667 2.66699 61.834 13 81.501 31s30.834 43.667 33.501 77l1 19l-344 507l-42 -532h-97l55 705h79l361 -530l42 530h97z" />
    <glyph glyph-name="eng" unicode="&#x14b;" horiz-adv-x="576" 
d="M470.5 456.5c28.333 -29 42.498 -71.167 42.498 -126.5c0 -13.333 -0.333008 -23.333 -1 -30l-22 -284c-5.33301 -64.667 -24 -112.5 -56 -143.5s-82.667 -48.833 -152 -53.5l-45 -3l-3 75l49 4c34 2 59.333 11.5 76 28.5s26.334 42.5 29.001 76.5l23 295
c0.666992 4.66699 1 11.667 1 21c0 68 -32.667 102 -98 102c-41.333 0 -74.166 -12.333 -98.499 -37s-38.166 -59 -41.499 -103l-22 -278h-101l39 488h99l-6 -70c16.667 26 39.167 46.167 67.5 60.5s60.166 21.5 95.499 21.5c54.667 0 96.167 -14.5 124.5 -43.5z" />
    <glyph glyph-name="Omacron" unicode="&#x14c;" horiz-adv-x="771" 
d="M215.5 31c-48.333 26.667 -85.334 65.167 -111.001 115.5s-38.5 109.833 -38.5 178.5c0 78 13.833 146.333 41.5 205s66.667 104 117 136s108.833 48 175.5 48c66 0 123.167 -13.333 171.5 -40s85.5 -65.167 111.5 -115.5s39 -109.833 39 -178.5
c0 -78 -13.833 -146.333 -41.5 -205s-66.667 -104 -117 -136s-109.166 -48 -176.499 -48c-66 0 -123.167 13.333 -171.5 40zM509.499 113c34.333 24 60.834 58.832 79.501 104.499s28 99.834 28 162.501c0 80 -18.667 141.333 -56 184s-90.666 64 -159.999 64
c-71.333 0 -127.5 -27 -168.5 -81s-61.5 -128.333 -61.5 -223c0 -79.333 18.667 -140.333 56 -183s90.666 -64 159.999 -64c47.333 0 88.166 12 122.499 36zM278 806.999l6 70h303l-6 -70h-303z" />
    <glyph glyph-name="omacron" unicode="&#x14d;" horiz-adv-x="564" 
d="M153 22c-35.333 19.333 -62.667 47 -82 83s-29 77.667 -29 125c0 54.667 10.167 102.334 30.5 143.001s49 72 86 94s79.833 33 128.5 33c48 0 89.667 -9.83301 125 -29.5s62.666 -47.334 81.999 -83.001s29 -77.5 29 -125.5c0 -54.667 -10.167 -102.167 -30.5 -142.5
s-49 -71.5 -86 -93.5s-80.167 -33 -129.5 -33c-47.333 0 -88.666 9.66699 -123.999 29zM383.999 125c24.667 34.667 37.001 81.334 37.001 140.001c0 50 -11.5 88.167 -34.5 114.5s-55.833 39.5 -98.5 39.5c-46.667 0 -82.334 -17.333 -107.001 -52
s-37 -81.334 -37 -140.001c0 -50.667 11.5 -89 34.5 -115s56.167 -39 99.5 -39c46 0 81.333 17.333 106 52zM160 618l6 70h303l-6 -70h-303z" />
    <glyph glyph-name="Obreve" unicode="&#x14e;" horiz-adv-x="771" 
d="M215.5 31c-48.333 26.667 -85.334 65.167 -111.001 115.5s-38.5 109.833 -38.5 178.5c0 78 13.833 146.333 41.5 205s66.667 104 117 136s108.833 48 175.5 48c66 0 123.167 -13.333 171.5 -40s85.5 -65.167 111.5 -115.5s39 -109.833 39 -178.5
c0 -78 -13.833 -146.333 -41.5 -205s-66.667 -104 -117 -136s-109.166 -48 -176.499 -48c-66 0 -123.167 13.333 -171.5 40zM509.499 113c34.333 24 60.834 58.832 79.501 104.499s28 99.834 28 162.501c0 80 -18.667 141.333 -56 184s-90.666 64 -159.999 64
c-71.333 0 -127.5 -27 -168.5 -81s-61.5 -128.333 -61.5 -223c0 -79.333 18.667 -140.333 56 -183s90.666 -64 159.999 -64c47.333 0 88.166 12 122.499 36zM329 803.499c-29.333 18.333 -49.667 44.833 -61 79.5l58 24c12 -23.333 26.833 -39.833 44.5 -49.5
s38.5 -14.5 62.5 -14.5s45.333 4.83301 64 14.5s35.667 26.167 51 49.5l54 -24c-16 -35.333 -39.167 -62 -69.5 -80s-64.5 -27 -102.5 -27s-71.667 9.16699 -101 27.5z" />
    <glyph glyph-name="obreve" unicode="&#x14f;" horiz-adv-x="564" 
d="M153 22c-35.333 19.333 -62.667 47 -82 83s-29 77.667 -29 125c0 54.667 10.167 102.334 30.5 143.001s49 72 86 94s79.833 33 128.5 33c48 0 89.667 -9.83301 125 -29.5s62.666 -47.334 81.999 -83.001s29 -77.5 29 -125.5c0 -54.667 -10.167 -102.167 -30.5 -142.5
s-49 -71.5 -86 -93.5s-80.167 -33 -129.5 -33c-47.333 0 -88.666 9.66699 -123.999 29zM383.999 125c24.667 34.667 37.001 81.334 37.001 140.001c0 50 -11.5 88.167 -34.5 114.5s-55.833 39.5 -98.5 39.5c-46.667 0 -82.334 -17.333 -107.001 -52
s-37 -81.334 -37 -140.001c0 -50.667 11.5 -89 34.5 -115s56.167 -39 99.5 -39c46 0 81.333 17.333 106 52zM209.5 613.5c-29.667 22.333 -50.1689 55.168 -61.502 98.501l58 24c22.667 -57.333 59.334 -86 110.001 -86c23.333 0 44.833 6.66699 64.5 20
s37.834 35.333 54.501 66l55 -24c-16 -44.667 -40 -77.834 -72 -99.501s-67.667 -32.5 -107 -32.5c-38 0 -71.833 11.167 -101.5 33.5z" />
    <glyph glyph-name="Ohungarumlaut" unicode="&#x150;" horiz-adv-x="771" 
d="M215.5 31c-48.333 26.667 -85.334 65.167 -111.001 115.5s-38.5 109.833 -38.5 178.5c0 78 13.833 146.333 41.5 205s66.667 104 117 136s108.833 48 175.5 48c66 0 123.167 -13.333 171.5 -40s85.5 -65.167 111.5 -115.5s39 -109.833 39 -178.5
c0 -78 -13.833 -146.333 -41.5 -205s-66.667 -104 -117 -136s-109.166 -48 -176.499 -48c-66 0 -123.167 13.333 -171.5 40zM509.499 113c34.333 24 60.834 58.832 79.501 104.499s28 99.834 28 162.501c0 80 -18.667 141.333 -56 184s-90.666 64 -159.999 64
c-71.333 0 -127.5 -27 -168.5 -81s-61.5 -128.333 -61.5 -223c0 -79.333 18.667 -140.333 56 -183s90.666 -64 159.999 -64c47.333 0 88.166 12 122.499 36zM390 764.999h-53l82 153h83zM515 764.999h-53l82 153h82z" />
    <glyph glyph-name="ohungarumlaut" unicode="&#x151;" horiz-adv-x="564" 
d="M153 22c-35.333 19.333 -62.667 47 -82 83s-29 77.667 -29 125c0 54.667 10.167 102.334 30.5 143.001s49 72 86 94s79.833 33 128.5 33c48 0 89.667 -9.83301 125 -29.5s62.666 -47.334 81.999 -83.001s29 -77.5 29 -125.5c0 -54.667 -10.167 -102.167 -30.5 -142.5
s-49 -71.5 -86 -93.5s-80.167 -33 -129.5 -33c-47.333 0 -88.666 9.66699 -123.999 29zM383.999 125c24.667 34.667 37.001 81.334 37.001 140.001c0 50 -11.5 88.167 -34.5 114.5s-55.833 39.5 -98.5 39.5c-46.667 0 -82.334 -17.333 -107.001 -52
s-37 -81.334 -37 -140.001c0 -50.667 11.5 -89 34.5 -115s56.167 -39 99.5 -39c46 0 81.333 17.333 106 52zM267 552h-47l56 203h87zM393 552h-47l56 203h87z" />
    <glyph glyph-name="OE" unicode="&#x152;" horiz-adv-x="1045" 
d="M673 622l-18 -222h337l-7 -84h-336l-19 -233h357l-7 -83h-580c-106 0 -188.167 28.667 -246.5 86s-87.5 137 -87.5 239c0 79.333 14.333 147.333 43 204s70.5 100.167 125.5 130.5s121.167 45.5 198.5 45.5h603l-6 -83h-357zM572 622h-132
c-89.333 0 -156.5 -25.5 -201.5 -76.5s-67.5 -124.833 -67.5 -221.5c0 -78.667 20.167 -138.5 60.5 -179.5s99.833 -61.5 178.5 -61.5h119z" />
    <glyph glyph-name="oe" unicode="&#x153;" horiz-adv-x="902" 
d="M811 442.5c36 -38.333 53.998 -93.834 53.998 -166.501c0 -15.333 -1 -31.666 -3 -48.999h-342c0.666992 -49.333 13.334 -87.5 38.001 -114.5s60.667 -40.5 108 -40.5c25.333 0 50.833 4.5 76.5 13.5s49.834 22.5 72.501 40.5l25 -71
c-20 -18.667 -46.667 -33.667 -80 -45s-66.333 -17 -99 -17c-45.333 0 -84.5 9 -117.5 27s-58.833 43.333 -77.5 76c-19.333 -32.667 -45.333 -58 -78 -76s-70.667 -27 -114 -27c-46 0 -86.5 9.66699 -121.5 29s-62.167 47 -81.5 83s-29 77.667 -29 125
c0 54 10.167 101.5 30.5 142.5s48.833 72.5 85.5 94.5s79 33 127 33c46 0 85 -8.66699 117 -26s56.667 -42.333 74 -75c20 32 46 56.833 78 74.5s69 26.5 111 26.5c61.333 0 110 -19.167 146 -57.5zM570.498 389.999c-24.333 -24 -39.833 -59.001 -46.5 -105.001h254
c0.666992 46.667 -8.83301 81.834 -28.5 105.501s-47.167 35.5 -82.5 35.5c-40 0 -72.167 -12 -96.5 -36zM382.498 124.998c24.333 34.667 36.502 81.334 36.502 140.001c0 50 -11.333 88.167 -34 114.5s-55 39.5 -97 39.5c-46.667 0 -82.334 -17.333 -107.001 -52
s-37 -81.334 -37 -140.001c0 -50.667 11.5 -89 34.5 -115s56.167 -39 99.5 -39c45.333 0 80.166 17.333 104.499 52z" />
    <glyph glyph-name="Racute" unicode="&#x154;" horiz-adv-x="690" 
d="M496.5 274.5c11.667 -12.333 22.5 -29.1689 32.5 -50.502l106 -224h-112l-105 226c-11.333 24.667 -25.666 41.667 -42.999 51s-41 14 -71 14h-116l-23 -291h-102l55 705h300c72 0 127.667 -16.667 167 -50s59 -80.666 59 -141.999c0 -60.667 -15.833 -109 -47.5 -145
s-78.834 -58.333 -141.501 -67c16 -5.33301 29.833 -14.166 41.5 -26.499zM389 373.997c52 0 91 11 117 33s39 55.333 39 100c0 39.333 -11.333 68.333 -34 87s-57 28 -103 28h-194l-20 -248h195zM418 764.997h-66l110 153h109z" />
    <glyph glyph-name="racute" unicode="&#x155;" horiz-adv-x="366" 
d="M381 500l-0.000976562 -85.001l-66 -7c-46 -4.66699 -80.167 -18 -102.5 -40s-35.166 -54.333 -38.499 -97l-22 -271h-101l39 487h97l-6 -75c17.333 26.667 40 46.834 68 60.501s62 22.167 102 25.5zM277.999 551.999h-67l112 203h114z" />
    <glyph glyph-name="Rcommaaccent" unicode="&#x156;" horiz-adv-x="690" 
d="M496.5 274.5c11.667 -12.333 22.5 -29.1689 32.5 -50.502l106 -224h-112l-105 226c-11.333 24.667 -25.666 41.667 -42.999 51s-41 14 -71 14h-116l-23 -291h-102l55 705h300c72 0 127.667 -16.667 167 -50s59 -80.666 59 -141.999c0 -60.667 -15.833 -109 -47.5 -145
s-78.834 -58.333 -141.501 -67c16 -5.33301 29.833 -14.166 41.5 -26.499zM389 373.997c52 0 91 11 117 33s39 55.333 39 100c0 39.333 -11.333 68.333 -34 87s-57 28 -103 28h-194l-20 -248h195zM376 -70.0029l-5 -60c-2 -28 -7.83301 -52.667 -17.5 -74
s-25.167 -41.333 -46.5 -60l-39 30c23.333 22.667 37 46.667 41 72h-53l7 92h113z" />
    <glyph glyph-name="rcommaaccent" unicode="&#x157;" horiz-adv-x="366" 
d="M381 500l-0.000976562 -85.001l-66 -7c-46 -4.66699 -80.167 -18 -102.5 -40s-35.166 -54.333 -38.499 -97l-22 -271h-101l39 487h97l-6 -75c17.333 26.667 40 46.834 68 60.501s62 22.167 102 25.5zM152.999 -70.001l-5 -60c-2 -28 -7.83301 -52.667 -17.5 -74
s-25.167 -41.333 -46.5 -60l-39 30c23.333 22.667 37 46.667 41 72h-53l7 92h113z" />
    <glyph glyph-name="Rcaron" unicode="&#x158;" horiz-adv-x="690" 
d="M496.5 274.5c11.667 -12.333 22.5 -29.1689 32.5 -50.502l106 -224h-112l-105 226c-11.333 24.667 -25.666 41.667 -42.999 51s-41 14 -71 14h-116l-23 -291h-102l55 705h300c72 0 127.667 -16.667 167 -50s59 -80.666 59 -141.999c0 -60.667 -15.833 -109 -47.5 -145
s-78.834 -58.333 -141.501 -67c16 -5.33301 29.833 -14.166 41.5 -26.499zM389 373.997c52 0 91 11 117 33s39 55.333 39 100c0 39.333 -11.333 68.333 -34 87s-57 28 -103 28h-194l-20 -248h195zM466 917.997h85l-134 -153h-64l-110 153h84l64 -98z" />
    <glyph glyph-name="rcaron" unicode="&#x159;" horiz-adv-x="366" 
d="M381 500l-0.000976562 -85.001l-66 -7c-46 -4.66699 -80.167 -18 -102.5 -40s-35.166 -54.333 -38.499 -97l-22 -271h-101l39 487h97l-6 -75c17.333 26.667 40 46.834 68 60.501s62 22.167 102 25.5zM325.999 754.999h89l-137 -203h-67l-105 203h85l58 -135z" />
    <glyph glyph-name="Sacute" unicode="&#x15a;" horiz-adv-x="627" 
d="M32 79l43 75.999c36 -27.333 72.667 -47.333 110 -60s78.666 -19 123.999 -19c53.333 0 94.166 9.5 122.499 28.5s42.5 45.833 42.5 80.5c0 22 -7.16699 40 -21.5 54s-32.166 25.167 -53.499 33.5s-51 18.166 -89 29.499c-49.333 14.667 -89.5 28.834 -120.5 42.501
s-57.333 33.667 -79 60s-32.5 60.833 -32.5 103.5c0 41.333 11.167 77.5 33.5 108.5s53.833 54.833 94.5 71.5s88.334 25 143.001 25c49.333 0 96 -7.66699 140 -23s80.667 -36.666 110 -63.999l-42 -76c-62.667 52.667 -132.667 79 -210 79
c-52.667 0 -93.334 -10 -122.001 -30s-43 -48 -43 -84c0 -24 7.66699 -43.833 23 -59.5s34.333 -28 57 -37s53.667 -19.167 93 -30.5c48 -14 86.667 -27.5 116 -40.5s54.5 -31.833 75.5 -56.5s31.5 -57 31.5 -97c0 -62.667 -24.167 -112 -72.5 -148s-114.833 -54 -199.5 -54
c-109.333 0 -200.666 29 -273.999 87zM389 764.999h-66l110 153h109z" />
    <glyph glyph-name="sacute" unicode="&#x15b;" horiz-adv-x="482" 
d="M25 55l35.998 73.002c52 -38.667 109 -58 171 -58c34.667 0 60.834 5.33301 78.501 16s26.5 26 26.5 46c0 19.333 -9 34.166 -27 44.499s-46 20.833 -84 31.5c-34.667 10 -62.667 19.667 -84 29s-39.666 23.166 -54.999 41.499s-23 42.166 -23 71.499
c0 45.333 18.167 81.666 54.5 108.999s84.5 41 144.5 41c35.333 0 69.333 -5.66699 102 -17s59.667 -26.666 81 -45.999l-36 -71c-46.667 38 -95.667 57 -147 57c-33.333 0 -59 -5.66699 -77 -17s-27 -28 -27 -50c0 -19.333 8.83301 -34 26.5 -44s45.5 -20.333 83.5 -31
c34.667 -10 62.667 -19.667 84 -29s39.666 -23.166 54.999 -41.499s23 -42.5 23 -72.5c0 -45.333 -18.167 -80.833 -54.5 -106.5s-85.166 -38.5 -146.499 -38.5c-78.667 0 -147 20.667 -205 62zM307.998 552.002h-67l112 203h114z" />
    <glyph glyph-name="Scircumflex" unicode="&#x15c;" horiz-adv-x="627" 
d="M32 79l43 75.999c36 -27.333 72.667 -47.333 110 -60s78.666 -19 123.999 -19c53.333 0 94.166 9.5 122.499 28.5s42.5 45.833 42.5 80.5c0 22 -7.16699 40 -21.5 54s-32.166 25.167 -53.499 33.5s-51 18.166 -89 29.499c-49.333 14.667 -89.5 28.834 -120.5 42.501
s-57.333 33.667 -79 60s-32.5 60.833 -32.5 103.5c0 41.333 11.167 77.5 33.5 108.5s53.833 54.833 94.5 71.5s88.334 25 143.001 25c49.333 0 96 -7.66699 140 -23s80.667 -36.666 110 -63.999l-42 -76c-62.667 52.667 -132.667 79 -210 79
c-52.667 0 -93.334 -10 -122.001 -30s-43 -48 -43 -84c0 -24 7.66699 -43.833 23 -59.5s34.333 -28 57 -37s53.667 -19.167 93 -30.5c48 -14 86.667 -27.5 116 -40.5s54.5 -31.833 75.5 -56.5s31.5 -57 31.5 -97c0 -62.667 -24.167 -112 -72.5 -148s-114.833 -54 -199.5 -54
c-109.333 0 -200.666 29 -273.999 87zM287 764.999h-85l134 153h64l110 -153h-84l-59 98z" />
    <glyph glyph-name="scircumflex" unicode="&#x15d;" horiz-adv-x="482" 
d="M25 55l35.998 73.002c52 -38.667 109 -58 171 -58c34.667 0 60.834 5.33301 78.501 16s26.5 26 26.5 46c0 19.333 -9 34.166 -27 44.499s-46 20.833 -84 31.5c-34.667 10 -62.667 19.667 -84 29s-39.666 23.166 -54.999 41.499s-23 42.166 -23 71.499
c0 45.333 18.167 81.666 54.5 108.999s84.5 41 144.5 41c35.333 0 69.333 -5.66699 102 -17s59.667 -26.666 81 -45.999l-36 -71c-46.667 38 -95.667 57 -147 57c-33.333 0 -59 -5.66699 -77 -17s-27 -28 -27 -50c0 -19.333 8.83301 -34 26.5 -44s45.5 -20.333 83.5 -31
c34.667 -10 62.667 -19.667 84 -29s39.666 -23.166 54.999 -41.499s23 -42.5 23 -72.5c0 -45.333 -18.167 -80.833 -54.5 -106.5s-85.166 -38.5 -146.499 -38.5c-78.667 0 -147 20.667 -205 62zM208.998 552.002h-89l137 203h67l105 -203h-85l-58 135z" />
    <glyph glyph-name="Scedilla" unicode="&#x15e;" horiz-adv-x="627" 
d="M205 455.5c15.333 -15.667 34.332 -28.001 56.999 -37.001s53.667 -19.167 93 -30.5c48 -14 86.667 -27.5 116 -40.5s54.5 -31.833 75.5 -56.5s31.5 -57 31.5 -97c0 -61.333 -23.167 -110 -69.5 -146s-110.166 -54.667 -191.499 -56l-7 -34c4 0.666992 9.33301 1 16 1
c23.333 0 42 -5.83301 56 -17.5s21 -28.167 21 -49.5c0 -25.333 -10.667 -46 -32 -62s-51.333 -24 -90 -24c-15.333 0 -31.5 1.66699 -48.5 5s-31.833 8 -44.5 14l15 47c27.333 -9.33301 53 -14 77 -14c16.667 0 29.834 2.66699 39.501 8s14.5 13.333 14.5 24
c0 16.667 -11.333 25 -34 25c-10.667 0 -24.667 -2.66699 -42 -8l-18 17l14 70c-87.333 8 -161.333 36.333 -222 85l43 76c36 -27.333 72.667 -47.333 110 -60s78.666 -19 123.999 -19c53.333 0 94.166 9.5 122.499 28.5s42.5 45.833 42.5 80.5c0 22 -7.16699 40 -21.5 54
s-32.166 25.167 -53.499 33.5s-51 18.166 -89 29.499c-49.333 14.667 -89.5 28.834 -120.5 42.501s-57.333 33.667 -79 60s-32.5 60.833 -32.5 103.5c0 41.333 11.167 77.5 33.5 108.5s53.833 54.833 94.5 71.5s88.334 25 143.001 25c49.333 0 96 -7.66699 140 -23
s80.667 -36.666 110 -63.999l-42 -76c-62.667 52.667 -132.667 79 -210 79c-52.667 0 -93.334 -10 -122.001 -30s-43 -48 -43 -84c0 -24 7.66699 -43.833 23 -59.5z" />
    <glyph glyph-name="scedilla" unicode="&#x15f;" horiz-adv-x="482" 
d="M185.5 312c17.667 -10 45.498 -20.3311 83.498 -30.998c34.667 -10 62.667 -19.667 84 -29s39.666 -23.166 54.999 -41.499s23 -42.5 23 -72.5c0 -43.333 -17 -77.833 -51 -103.5s-80 -39.5 -138 -41.5l-7 -35c4 0.666992 9.33301 1 16 1c23.333 0 42 -5.83301 56 -17.5
s21 -28.167 21 -49.5c0 -25.333 -10.667 -46 -32 -62s-51.333 -24 -90 -24c-15.333 0 -31.5 1.66699 -48.5 5s-31.833 8 -44.5 14l15 47c27.333 -9.33301 53 -14 77 -14c16.667 0 29.834 2.66699 39.501 8s14.5 13.333 14.5 24c0 16.667 -11.333 25 -34 25
c-10.667 0 -24.667 -2.66699 -42 -8l-18 17l14 72c-58 8 -109.333 27.667 -154 59l36 73c52 -38.667 109 -58 171 -58c34.667 0 60.834 5.33301 78.501 16s26.5 26 26.5 46c0 19.333 -9 34.166 -27 44.499s-46 20.833 -84 31.5c-34.667 10 -62.667 19.667 -84 29
s-39.666 23.166 -54.999 41.499s-23 42.166 -23 71.499c0 45.333 18.167 81.666 54.5 108.999s84.5 41 144.5 41c35.333 0 69.333 -5.66699 102 -17s59.667 -26.666 81 -45.999l-36 -71c-46.667 38 -95.667 57 -147 57c-33.333 0 -59 -5.66699 -77 -17s-27 -28 -27 -50
c0 -19.333 8.83301 -34 26.5 -44z" />
    <glyph glyph-name="Scaron" unicode="&#x160;" horiz-adv-x="627" 
d="M32 79l43 75.999c36 -27.333 72.667 -47.333 110 -60s78.666 -19 123.999 -19c53.333 0 94.166 9.5 122.499 28.5s42.5 45.833 42.5 80.5c0 22 -7.16699 40 -21.5 54s-32.166 25.167 -53.499 33.5s-51 18.166 -89 29.499c-49.333 14.667 -89.5 28.834 -120.5 42.501
s-57.333 33.667 -79 60s-32.5 60.833 -32.5 103.5c0 41.333 11.167 77.5 33.5 108.5s53.833 54.833 94.5 71.5s88.334 25 143.001 25c49.333 0 96 -7.66699 140 -23s80.667 -36.666 110 -63.999l-42 -76c-62.667 52.667 -132.667 79 -210 79
c-52.667 0 -93.334 -10 -122.001 -30s-43 -48 -43 -84c0 -24 7.66699 -43.833 23 -59.5s34.333 -28 57 -37s53.667 -19.167 93 -30.5c48 -14 86.667 -27.5 116 -40.5s54.5 -31.833 75.5 -56.5s31.5 -57 31.5 -97c0 -62.667 -24.167 -112 -72.5 -148s-114.833 -54 -199.5 -54
c-109.333 0 -200.666 29 -273.999 87zM437 917.999h85l-134 -153h-64l-110 153h84l64 -98z" />
    <glyph glyph-name="scaron" unicode="&#x161;" horiz-adv-x="482" 
d="M25 55l35.998 73.002c52 -38.667 109 -58 171 -58c34.667 0 60.834 5.33301 78.501 16s26.5 26 26.5 46c0 19.333 -9 34.166 -27 44.499s-46 20.833 -84 31.5c-34.667 10 -62.667 19.667 -84 29s-39.666 23.166 -54.999 41.499s-23 42.166 -23 71.499
c0 45.333 18.167 81.666 54.5 108.999s84.5 41 144.5 41c35.333 0 69.333 -5.66699 102 -17s59.667 -26.666 81 -45.999l-36 -71c-46.667 38 -95.667 57 -147 57c-33.333 0 -59 -5.66699 -77 -17s-27 -28 -27 -50c0 -19.333 8.83301 -34 26.5 -44s45.5 -20.333 83.5 -31
c34.667 -10 62.667 -19.667 84 -29s39.666 -23.166 54.999 -41.499s23 -42.5 23 -72.5c0 -45.333 -18.167 -80.833 -54.5 -106.5s-85.166 -38.5 -146.499 -38.5c-78.667 0 -147 20.667 -205 62zM355.998 755.002h89l-137 -203h-67l-105 203h85l58 -135z" />
    <glyph glyph-name="uni0162" unicode="&#x162;" horiz-adv-x="605" 
d="M306 0l-9.00098 -42c4 0.666992 9.33301 1 16 1c23.333 0 42 -5.83301 56 -17.5s21 -28.167 21 -49.5c0 -25.333 -10.667 -46 -32 -62s-51.333 -24 -90 -24c-15.333 0 -31.5 1.66699 -48.5 5s-31.833 8 -44.5 14l15 47c27.333 -9.33301 53 -14 77 -14
c16.667 0 29.834 2.66699 39.501 8s14.5 13.333 14.5 24c0 16.667 -11.333 25 -34 25c-10.667 0 -24.667 -2.66699 -42 -8l-18 17l15 76h-11l49 619h-238l7 86h580l-7 -86h-238l-49 -619h-29z" />
    <glyph glyph-name="uni0163" unicode="&#x163;" horiz-adv-x="353" 
d="M197 181l-1.00195 -16.999c0 -62 30.667 -93 92 -93c14 0 29 1 45 3l-11 -76c-16 -3.33301 -32.667 -5 -50 -5c-15.333 0 -29.666 1 -42.999 3l-8 -38c4 0.666992 9.33301 1 16 1c23.333 0 42 -5.83301 56 -17.5s21 -28.167 21 -49.5c0 -25.333 -10.667 -46 -32 -62
s-51.333 -24 -90 -24c-15.333 0 -31.5 1.66699 -48.5 5s-31.833 8 -44.5 14l15 47c27.333 -9.33301 53 -14 77 -14c16.667 0 29.834 2.66699 39.501 8s14.5 13.333 14.5 24c0 16.667 -11.333 25 -34 25c-10.667 0 -24.667 -2.66699 -42 -8l-18 17l18 91
c-24 12.667 -42.333 30.667 -55 54s-19 51.333 -19 84c0 11.333 0.333008 19.666 1 24.999l18 232h-94l6 78h94l12 147h101l-12 -147h134l-6 -78h-134z" />
    <glyph glyph-name="Tcaron" unicode="&#x164;" horiz-adv-x="605" 
d="M231 0l49 619h-238l7 86h580l-7 -86h-238l-49 -619h-104zM424 918h85l-134 -153h-64l-110 153h84l64 -98z" />
    <glyph glyph-name="tcaron" unicode="&#x165;" horiz-adv-x="353" 
d="M374 705l-43 -171h-56l15 171h84zM221 488h133.999l-6 -78h-134l-18 -229l-1 -17c0 -62 30.667 -93 92 -93c14 0 29 1 45 3l-11 -76c-16 -3.33301 -32.667 -5 -50 -5c-57.333 0 -101.166 13.833 -131.499 41.5s-45.5 67.5 -45.5 119.5c0 10.667 0.333008 18.667 1 24
l18 232h-94l6 78h94l12 147h101z" />
    <glyph glyph-name="Tbar" unicode="&#x166;" horiz-adv-x="605" 
d="M622 619h-238l-17 -221h140l-7 -81h-140l-25 -317h-104l25 317h-140l6 81h141l17 221h-238l7 86h580z" />
    <glyph glyph-name="tbar" unicode="&#x167;" horiz-adv-x="363" 
d="M220 410l-7.00098 -94h114l-6 -74h-114l-5 -61l-1 -17c0 -62 30.667 -93 92 -93c14 0 29 1 45 3l-11 -76c-16 -3.33301 -32.667 -5 -50 -5c-57.333 0 -101.166 13.833 -131.499 41.5s-45.5 67.5 -45.5 119.5c0 10.667 0.333008 18.667 1 24l5 64h-75l6 74h75l7 94h-94
l6 78h94l12 147h101l-12 -147h134l-6 -78h-134z" />
    <glyph glyph-name="Utilde" unicode="&#x168;" horiz-adv-x="728" 
d="M147.5 57c-46.333 43.333 -69.499 106.333 -69.499 189c0 8.66699 0.666992 21.667 2 39l33 420h102l-33 -421c-0.666992 -7.33301 -1 -18 -1 -32c0 -117.333 58.667 -176 176 -176c59.333 0 105.166 15.5 137.499 46.5s51.166 79.833 56.499 146.5l34 436h102l-34 -427
c-7.33301 -95.333 -36.166 -166.833 -86.499 -214.5s-121.5 -71.5 -213.5 -71.5c-90.667 0 -159.167 21.667 -205.5 65zM273.501 875c19 20.667 43.166 31.001 72.499 31.001c12.667 0 24.667 -2.66699 36 -8s25.666 -13.333 42.999 -24c14 -8.66699 25 -14.834 33 -18.501
s15.667 -5.5 23 -5.5c14 0 25.5 4.66699 34.5 14s13.833 22.333 14.5 39h51c-2.66699 -41.333 -13.5 -72.333 -32.5 -93s-43.167 -31 -72.5 -31c-12.667 0 -24.667 2.66699 -36 8s-25.666 13.333 -42.999 24c-12.667 8 -23.167 14 -31.5 18s-16.166 6 -23.499 6
c-14 0 -25.5 -4.66699 -34.5 -14s-14.167 -22.333 -15.5 -39h-50c2 41.333 12.5 72.333 31.5 93z" />
    <glyph glyph-name="utilde" unicode="&#x169;" horiz-adv-x="569" 
d="M517 488l-37.9971 -488h-99l6 74c-16.667 -26 -38.834 -46 -66.501 -60s-58.5 -21 -92.5 -21c-54 0 -95 14.5 -123 43.5s-42 71.5 -42 127.5c0 12 0.333008 21 1 27l24 297h101l-24 -291l-1 -18c0 -69.333 32.333 -104 97 -104c39.333 0 70.666 12.333 93.999 37
s36.666 58.667 39.999 102l22 274h101zM178.003 687c18.667 20.667 42.334 30.998 71.001 30.998c13.333 0 25.833 -2.66699 37.5 -8s26.167 -13.333 43.5 -24c2.66699 -1.33301 8.16699 -4.5 16.5 -9.5s15.833 -8.66699 22.5 -11s12.667 -3.5 18 -3.5
c14 0 25.333 4.66699 34 14s13.667 22.333 15 39h50c-2.66699 -41.333 -13.334 -72.166 -32.001 -92.499s-42 -30.5 -70 -30.5c-13.333 0 -25.833 2.5 -37.5 7.5s-26.5 12.833 -44.5 23.5c-12 8 -22.167 14 -30.5 18s-16.5 6 -24.5 6c-14 0 -25.333 -4.5 -34 -13.5
s-14 -21.833 -16 -38.5h-50c2 40.667 12.333 71.334 31 92.001z" />
    <glyph glyph-name="Umacron" unicode="&#x16a;" horiz-adv-x="728" 
d="M147.5 57c-46.333 43.333 -69.499 106.333 -69.499 189c0 8.66699 0.666992 21.667 2 39l33 420h102l-33 -421c-0.666992 -7.33301 -1 -18 -1 -32c0 -117.333 58.667 -176 176 -176c59.333 0 105.166 15.5 137.499 46.5s51.166 79.833 56.499 146.5l34 436h102l-34 -427
c-7.33301 -95.333 -36.166 -166.833 -86.499 -214.5s-121.5 -71.5 -213.5 -71.5c-90.667 0 -159.167 21.667 -205.5 65zM257.001 807l6 70h303l-6 -70h-303z" />
    <glyph glyph-name="umacron" unicode="&#x16b;" horiz-adv-x="569" 
d="M517 488l-37.9971 -488h-99l6 74c-16.667 -26 -38.834 -46 -66.501 -60s-58.5 -21 -92.5 -21c-54 0 -95 14.5 -123 43.5s-42 71.5 -42 127.5c0 12 0.333008 21 1 27l24 297h101l-24 -291l-1 -18c0 -69.333 32.333 -104 97 -104c39.333 0 70.666 12.333 93.999 37
s36.666 58.667 39.999 102l22 274h101zM162.003 618l6 70h303l-6 -70h-303z" />
    <glyph glyph-name="Ubreve" unicode="&#x16c;" horiz-adv-x="728" 
d="M147.5 57c-46.333 43.333 -69.499 106.333 -69.499 189c0 8.66699 0.666992 21.667 2 39l33 420h102l-33 -421c-0.666992 -7.33301 -1 -18 -1 -32c0 -117.333 58.667 -176 176 -176c59.333 0 105.166 15.5 137.499 46.5s51.166 79.833 56.499 146.5l34 436h102l-34 -427
c-7.33301 -95.333 -36.166 -166.833 -86.499 -214.5s-121.5 -71.5 -213.5 -71.5c-90.667 0 -159.167 21.667 -205.5 65zM308.001 803.5c-29.333 18.333 -49.667 44.833 -61 79.5l58 24c12 -23.333 26.833 -39.833 44.5 -49.5s38.5 -14.5 62.5 -14.5s45.333 4.83301 64 14.5
s35.667 26.167 51 49.5l54 -24c-16 -35.333 -39.167 -62 -69.5 -80s-64.5 -27 -102.5 -27s-71.667 9.16699 -101 27.5z" />
    <glyph glyph-name="ubreve" unicode="&#x16d;" horiz-adv-x="569" 
d="M517 488l-37.9971 -488h-99l6 74c-16.667 -26 -38.834 -46 -66.501 -60s-58.5 -21 -92.5 -21c-54 0 -95 14.5 -123 43.5s-42 71.5 -42 127.5c0 12 0.333008 21 1 27l24 297h101l-24 -291l-1 -18c0 -69.333 32.333 -104 97 -104c39.333 0 70.666 12.333 93.999 37
s36.666 58.667 39.999 102l22 274h101zM211.503 613.5c-29.667 22.333 -50.1689 55.168 -61.502 98.501l58 24c22.667 -57.333 59.334 -86 110.001 -86c23.333 0 44.833 6.66699 64.5 20s37.834 35.333 54.501 66l55 -24c-16 -44.667 -40 -77.834 -72 -99.501
s-67.667 -32.5 -107 -32.5c-38 0 -71.833 11.167 -101.5 33.5z" />
    <glyph glyph-name="Uring" unicode="&#x16e;" horiz-adv-x="728" 
d="M147.5 57c-46.333 43.333 -69.499 106.333 -69.499 189c0 8.66699 0.666992 21.667 2 39l33 420h102l-33 -421c-0.666992 -7.33301 -1 -18 -1 -32c0 -117.333 58.667 -176 176 -176c59.333 0 105.166 15.5 137.499 46.5s51.166 79.833 56.499 146.5l34 436h102l-34 -427
c-7.33301 -95.333 -36.166 -166.833 -86.499 -214.5s-121.5 -71.5 -213.5 -71.5c-90.667 0 -159.167 21.667 -205.5 65zM339.001 789.5c-20 19.667 -30 43.834 -30 72.501s10 52.667 30 72s44.333 29 73 29c29.333 0 54 -9.66699 74 -29s30 -43.333 30 -72
s-10 -52.834 -30 -72.501s-44.667 -29.5 -74 -29.5c-28.667 0 -53 9.83301 -73 29.5zM446.001 827c8.66699 9.33301 13 20.999 13 34.999s-4.33301 25.5 -13 34.5s-20 13.5 -34 13.5c-13.333 0 -24.333 -4.66699 -33 -14s-13 -20.666 -13 -33.999
c0 -14 4.33301 -25.667 13 -35s19.667 -14 33 -14c14 0 25.333 4.66699 34 14z" />
    <glyph glyph-name="uring" unicode="&#x16f;" horiz-adv-x="569" 
d="M517 488l-37.9971 -488h-99l6 74c-16.667 -26 -38.834 -46 -66.501 -60s-58.5 -21 -92.5 -21c-54 0 -95 14.5 -123 43.5s-42 71.5 -42 127.5c0 12 0.333008 21 1 27l24 297h101l-24 -291l-1 -18c0 -69.333 32.333 -104 97 -104c39.333 0 70.666 12.333 93.999 37
s36.666 58.667 39.999 102l22 274h101zM243.003 581.5c-20 19.667 -30 43.834 -30 72.501s10 52.667 30 72s44.333 29 73 29c29.333 0 54 -9.66699 74 -29s30 -43.333 30 -72s-10 -52.834 -30 -72.501s-44.667 -29.5 -74 -29.5c-28.667 0 -53 9.83301 -73 29.5zM350.003 619
c8.66699 9.33301 13 20.999 13 34.999s-4.33301 25.5 -13 34.5s-20 13.5 -34 13.5c-13.333 0 -24.333 -4.66699 -33 -14s-13 -20.666 -13 -33.999c0 -14 4.33301 -25.667 13 -35s19.667 -14 33 -14c14 0 25.333 4.66699 34 14z" />
    <glyph glyph-name="Uhungarumlaut" unicode="&#x170;" horiz-adv-x="728" 
d="M147.5 57c-46.333 43.333 -69.499 106.333 -69.499 189c0 8.66699 0.666992 21.667 2 39l33 420h102l-33 -421c-0.666992 -7.33301 -1 -18 -1 -32c0 -117.333 58.667 -176 176 -176c59.333 0 105.166 15.5 137.499 46.5s51.166 79.833 56.499 146.5l34 436h102l-34 -427
c-7.33301 -95.333 -36.166 -166.833 -86.499 -214.5s-121.5 -71.5 -213.5 -71.5c-90.667 0 -159.167 21.667 -205.5 65zM369.001 765h-53l82 153h83zM494.001 765h-53l82 153h82z" />
    <glyph glyph-name="uhungarumlaut" unicode="&#x171;" horiz-adv-x="569" 
d="M517 488l-37.9971 -488h-99l6 74c-16.667 -26 -38.834 -46 -66.501 -60s-58.5 -21 -92.5 -21c-54 0 -95 14.5 -123 43.5s-42 71.5 -42 127.5c0 12 0.333008 21 1 27l24 297h101l-24 -291l-1 -18c0 -69.333 32.333 -104 97 -104c39.333 0 70.666 12.333 93.999 37
s36.666 58.667 39.999 102l22 274h101zM269.003 552h-47l56 203h87zM395.003 552h-47l56 203h87z" />
    <glyph glyph-name="Uogonek" unicode="&#x172;" horiz-adv-x="728" 
d="M687 705l-33.998 -426.996c-11.333 -150.667 -77.333 -242.334 -198 -275.001c-26.667 -8 -46.667 -18.333 -60 -31s-20 -29 -20 -49c0 -18 5.16699 -32 15.5 -42s24.5 -15 42.5 -15s37.667 5.33301 59 16l12 -54c-27.333 -14.667 -56.333 -22 -87 -22
c-35.333 0 -63.5 9.33301 -84.5 28s-31.5 43 -31.5 73c0 35.333 13.333 63.666 40 84.999c-86 1.33301 -151.333 23.666 -196 66.999s-67 105.666 -67 186.999c0 8.66699 0.666992 21.667 2 39l33 420h102l-33 -421c-0.666992 -7.33301 -1 -18 -1 -32
c0 -117.333 58.667 -176 176 -176c59.333 0 105.166 15.5 137.499 46.5s51.166 79.833 56.499 146.5l34 436h102z" />
    <glyph glyph-name="uogonek" unicode="&#x173;" horiz-adv-x="569" 
d="M496 -118l12.0029 -54c-27.333 -14.667 -56.333 -22 -87 -22c-35.333 0 -63.5 9.33301 -84.5 28s-31.5 43 -31.5 73c0 24.667 6.5 46.834 19.5 66.501s32.167 35.167 57.5 46.5l4 54c-16.667 -26 -38.834 -46 -66.501 -60s-58.5 -21 -92.5 -21c-54 0 -95 14.5 -123 43.5
s-42 71.5 -42 127.5c0 12 0.333008 21 1 27l24 297h101l-24 -291l-1 -18c0 -69.333 32.333 -104 97 -104c39.333 0 70.666 12.333 93.999 37s36.666 58.667 39.999 102l22 274h101l-38 -488h-11c-28 0 -49.833 -7.33301 -65.5 -22s-23.5 -33 -23.5 -55
c0 -18.667 5 -32.834 15 -42.501s24.333 -14.5 43 -14.5c18 0 37.667 5.33301 59 16z" />
    <glyph glyph-name="Wcircumflex" unicode="&#x174;" horiz-adv-x="1105" 
d="M1012 705h100l-303 -705h-85l-148 544l-234 -544h-85l-192 705h104l145 -559l239 559l75 -1l147 -561zM524 765h-85l134 153h64l110 -153h-84l-59 98z" />
    <glyph glyph-name="wcircumflex" unicode="&#x175;" horiz-adv-x="848" 
d="M748 488h102l-225 -488h-91l-104 348l-154 -348h-92l-148 488h102l103 -367l163 367h78l105 -369zM383 552h-89l137 203h67l105 -203h-85l-58 135z" />
    <glyph glyph-name="Ycircumflex" unicode="&#x176;" horiz-adv-x="611" 
d="M674 705l-310 -376l-26 -329h-103l26 328l-252 377h115l193 -290l238 290h119zM277 765h-85l134 153h64l110 -153h-84l-59 98z" />
    <glyph glyph-name="ycircumflex" unicode="&#x177;" horiz-adv-x="520" 
d="M433 487h103l-343 -667h-102l99 193l-167 474h103l124 -372zM219 552h-89l137 203h67l105 -203h-85l-58 135z" />
    <glyph glyph-name="Ydieresis" unicode="&#x178;" horiz-adv-x="611" 
d="M674 705l-310 -376l-26 -329h-103l26 328l-252 377h115l193 -290l238 290h119zM216 892h104l-8 -99h-103zM393 892h103l-7 -99h-104z" />
    <glyph glyph-name="Zacute" unicode="&#x179;" horiz-adv-x="595" 
d="M585 705l-6 -75l-424 -546h392l-7 -84h-513l6 76l424 545h-381l7 84h502zM372 765h-66l110 153h109z" />
    <glyph glyph-name="zacute" unicode="&#x17a;" horiz-adv-x="506" 
d="M475 488l-5 -71l-310 -339h294l-7 -78h-418l5 70l310 340h-275l6 78h400zM316 552h-67l112 203h114z" />
    <glyph glyph-name="Zdotaccent" unicode="&#x17b;" horiz-adv-x="595" 
d="M585 705l-6 -75l-424 -546h392l-7 -84h-513l6 76l424 545h-381l7 84h502zM291 895h117l-9 -106h-116z" />
    <glyph glyph-name="zdotaccent" unicode="&#x17c;" horiz-adv-x="506" 
d="M475 488l-5 -71l-310 -339h294l-7 -78h-418l5 70l310 340h-275l6 78h400zM236 706h117l-9 -105h-116z" />
    <glyph glyph-name="Zcaron" unicode="&#x17d;" horiz-adv-x="595" 
d="M585 705l-6 -75l-424 -546h392l-7 -84h-513l6 76l424 545h-381l7 84h502zM420 918h85l-134 -153h-64l-110 153h84l64 -98z" />
    <glyph glyph-name="zcaron" unicode="&#x17e;" horiz-adv-x="506" 
d="M475 488l-5 -71l-310 -339h294l-7 -78h-418l5 70l310 340h-275l6 78h400zM364 755h89l-137 -203h-67l-105 203h85l58 -135z" />
    <glyph glyph-name="uni018F" unicode="&#x18f;" horiz-adv-x="749" 
d="M552 673c47.333 -26.667 83.832 -65.166 109.499 -115.499s38.5 -109.5 38.5 -177.5c0 -78 -13.667 -146.333 -41 -205s-66.333 -103.834 -117 -135.501s-110 -47.5 -178 -47.5c-95.333 0 -169 28.5 -221 85.5s-78 134.5 -78 232.5c0 10 0.666992 25.667 2 47l4 42h525
c-3.33301 74 -24.166 130.667 -62.499 170s-91.833 59 -160.5 59c-41.333 -0.666992 -79.166 -7.16699 -113.499 -19.5s-68.5 -31.833 -102.5 -58.5l-30 76c32 28 70.167 49.5 114.5 64.5s92.5 22.5 144.5 22.5c63.333 0 118.666 -13.333 165.999 -40zM518.999 140.001
c39.333 42 63.668 100.333 73.001 175h-423c-4 -75.333 11 -134 45 -176s84.333 -63 151 -63c63.333 0.666992 114.666 22 153.999 64z" />
    <glyph glyph-name="florin" unicode="&#x192;" 
d="M599 709l-7.00195 -81h-46c-31.333 0 -56.166 -7.33301 -74.499 -22s-31.833 -38.667 -40.5 -72l-13 -44h119l-5 -66h-133l-128 -438c-16 -58 -42.667 -101 -80 -129s-80.666 -42 -129.999 -42h-58l7 81h47c30 0 54.333 7.5 73 22.5s32.667 38.833 42 71.5l127 434h-118
l5 66h132l14 48c16 58 42.5 101 79.5 129s80.5 42 130.5 42h57z" />
    <glyph glyph-name="Ohorn" unicode="&#x1a0;" horiz-adv-x="771" 
d="M714 693.5c-25.333 -26.333 -60 -41.1689 -104 -44.502c34.667 -27.333 62 -63.666 82 -108.999s30 -98.666 30 -159.999c0 -78 -13.833 -146.333 -41.5 -205s-66.667 -104 -117 -136s-109.166 -48 -176.499 -48c-66 0 -123.167 13.333 -171.5 40
s-85.333 65.167 -111 115.5s-38.5 109.833 -38.5 178.5c0 78 13.833 146.333 41.5 205s67.5 104 119.5 136s113 48 183 48c17.333 0 42 -1.33301 74 -4c25.333 -3.33301 49.666 -5 72.999 -5c38.667 0 66.167 8.16699 82.5 24.5s26.166 43.833 29.499 82.5l1 17h89l-2 -30
c-3.33301 -44 -17.666 -79.167 -42.999 -105.5zM509.5 112.997c34.333 24 60.834 58.832 79.501 104.499s28 99.834 28 162.501c0 80 -18.667 141.333 -56 184s-90.666 64 -159.999 64c-71.333 0 -127.5 -27 -168.5 -81s-61.5 -128.333 -61.5 -223
c0 -79.333 18.667 -140.333 56 -183s90.666 -64 159.999 -64c47.333 0 88.166 12 122.499 36z" />
    <glyph glyph-name="ohorn" unicode="&#x1a1;" horiz-adv-x="564" 
d="M526.5 493.5c-18.333 -25 -43.501 -42.1689 -75.501 -51.502c23.333 -21.333 41.166 -47.666 53.499 -78.999s18.5 -65 18.5 -101c0 -54.667 -10.167 -102.167 -30.5 -142.5s-49 -71.5 -86 -93.5s-80.167 -33 -129.5 -33c-47.333 0 -88.666 9.66699 -123.999 29
s-62.666 47 -81.999 83s-29 77.667 -29 125c0 54.667 10.167 102.334 30.5 143.001s49.166 72 86.499 94s80.333 33 129 33c16 0 35.333 -1.33301 58 -4c12 -2 22 -3 30 -3c28.667 0 50.834 8 66.501 24s25.167 43.667 28.5 83l1 16h88l-2 -30
c-2.66699 -36.667 -13.167 -67.5 -31.5 -92.5zM383.999 124.998c24.667 34.667 37.001 81.334 37.001 140.001c0 50 -11.5 88.167 -34.5 114.5s-55.833 39.5 -98.5 39.5c-46.667 0 -82.334 -17.333 -107.001 -52s-37 -81.334 -37 -140.001c0 -50.667 11.5 -89 34.5 -115
s56.167 -39 99.5 -39c46 0 81.333 17.333 106 52z" />
    <glyph glyph-name="Uhorn" unicode="&#x1af;" horiz-adv-x="728" 
d="M813 829l-2.00098 -30c-3.33301 -40 -16.166 -73 -38.499 -99s-52.166 -42.333 -89.499 -49l-30 -373c-7.33301 -95.333 -36.166 -166.833 -86.499 -214.5s-121.5 -71.5 -213.5 -71.5c-90.667 0 -159.167 21.667 -205.5 65s-69.5 106.333 -69.5 189
c0 8.66699 0.666992 21.667 2 39l33 420h102l-33 -421c-0.666992 -7.33301 -1 -18 -1 -32c0 -117.333 58.667 -176 176 -176c59.333 0 105.166 15.5 137.499 46.5s51.166 79.833 56.499 146.5l34 436h30c36 0.666992 62.167 9 78.5 25s25.833 43.333 28.5 82l2 17h89z" />
    <glyph glyph-name="uhorn" unicode="&#x1b0;" horiz-adv-x="586" 
d="M643 616l-1.99512 -30c-2.66699 -40 -15.334 -72.833 -38.001 -98.5s-52.334 -42.167 -89.001 -49.5l-35 -438h-99l6 74c-16.667 -26 -38.834 -46 -66.501 -60s-58.5 -21 -92.5 -21c-54 0 -95 14.5 -123 43.5s-42 71.5 -42 127.5c0 12 0.333008 21 1 27l24 297h101
l-24 -291l-1 -18c0 -69.333 32.333 -104 97 -104c39.333 0 70.666 12.333 93.999 37s36.666 58.667 39.999 102l22 274h29c35.333 0 61.5 8.66699 78.5 26s26.833 46 29.5 86l1 16h89z" />
    <glyph glyph-name="uni01C4" unicode="&#x1c4;" horiz-adv-x="1326" 
d="M118 705h244c106 0 188.333 -28.667 247 -86s88 -137 88 -239c0 -79.333 -14.333 -147.333 -43 -204s-70.5 -100.167 -125.5 -130.5s-121.167 -45.5 -198.5 -45.5h-267zM323 86c89.333 0 156.5 25 201.5 75s67.5 123.333 67.5 220c0 78.667 -20 138 -60 178
s-100 60 -180 60h-137l-42 -533h150zM1316 705l-6 -75l-424 -546h392l-7 -84h-513l6 76l424 545h-381l7 84h502zM1151 918h85l-134 -153h-64l-110 153h84l64 -98z" />
    <glyph glyph-name="uni01C5" unicode="&#x1c5;" horiz-adv-x="1252" 
d="M118 705h244c106 0 188.333 -28.667 247 -86s88 -137 88 -239c0 -79.333 -14.333 -147.333 -43 -204s-70.5 -100.167 -125.5 -130.5s-121.167 -45.5 -198.5 -45.5h-267zM323 86c89.333 0 156.5 25 201.5 75s67.5 123.333 67.5 220c0 78.667 -20 138 -60 178
s-100 60 -180 60h-137l-42 -533h150zM1221 488l-5 -71l-310 -339h294l-7 -78h-418l5 70l310 340h-275l6 78h400zM1110 755h89l-137 -203h-67l-105 203h85l58 -135z" />
    <glyph glyph-name="uni01C6" unicode="&#x1c6;" horiz-adv-x="1097" 
d="M556 705l-54.999 -704.999h-100l6 73c-16 -25.333 -37.833 -45 -65.5 -59s-58.167 -21 -91.5 -21c-40.667 0 -76.834 9.5 -108.501 28.5s-56.167 46.167 -73.5 81.5s-26 76.666 -26 123.999c0 54 9.66699 101.667 29 143s46.5 73.333 81.5 96s75.167 34 120.5 34
c36.667 0 68.667 -7.66699 96 -23s48.333 -37.333 63 -66l23 294h101zM384.001 123.501c25.333 33.667 37.998 79.501 37.998 137.501c0 51.333 -11.667 90.5 -35 117.5s-56.666 40.5 -99.999 40.5c-44.667 0 -79.667 -16.667 -105 -50s-38 -79 -38 -137
c0 -50.667 11.833 -89.834 35.5 -117.501s56.834 -41.5 99.501 -41.5c44.667 0 79.667 16.833 105 50.5zM1066 488.002l-5 -71l-310 -339h294l-7 -78h-418l5 70l310 340h-275l6 78h400zM954.999 755.002h89l-137 -203h-67l-105 203h85l58 -135z" />
    <glyph glyph-name="uni01C7" unicode="&#x1c7;" horiz-adv-x="888" 
d="M63 0l55 705h104l-49 -619h312l-7 -86h-415zM526 77l61 3.99902c35.333 2.66699 62 13.334 80 32.001s28.333 46.667 31 84l40 508h104l-40 -508c-4.66699 -64 -24.167 -112.333 -58.5 -145s-83.5 -51 -147.5 -55l-66 -5z" />
    <glyph glyph-name="uni01C8" unicode="&#x1c8;" horiz-adv-x="789" 
d="M63 0l55 705h104l-49 -619h342l-7 -86h-445zM700 11c-5.33301 -64.667 -23.333 -111.833 -54 -141.5s-81 -46.5 -151 -50.5l-47 -3l-3 75l49 3c34 3.33301 59.167 12.833 75.5 28.5s25.833 40.167 28.5 73.5l39 492h101zM646 706.001h117l-9 -105h-116z" />
    <glyph glyph-name="uni01C9" unicode="&#x1c9;" horiz-adv-x="484" 
d="M51 0l56 705h101l-56 -705h-101zM395 11c-5.33301 -64.667 -23.333 -111.833 -54 -141.5s-81 -46.5 -151 -50.5l-47 -3l-3 75l49 3c34 3.33301 59.167 12.833 75.5 28.5s25.833 40.167 28.5 73.5l39 492h101zM341 706.001h117l-9 -105h-116z" />
    <glyph glyph-name="uni01CA" unicode="&#x1ca;" horiz-adv-x="1084" 
d="M600 705h97l-56 -705h-78l-361 532l-42 -532h-97l55 705h79l361 -530zM722 77l62 3.99902c34.667 2.66699 61 13.334 79 32.001s28.333 46.667 31 84l40 508h104l-40 -508c-4.66699 -64 -24.167 -112.333 -58.5 -145s-83.5 -51 -147.5 -55l-66 -5z" />
    <glyph glyph-name="uni01CB" unicode="&#x1cb;" horiz-adv-x="985" 
d="M600 705h97l-56 -705h-78l-361 532l-42 -532h-97l55 705h79l361 -530zM896 11c-5.33301 -64.667 -23.333 -111.833 -54 -141.5s-81 -46.5 -151 -50.5l-47 -3l-3 75l49 3c34 3.33301 59.167 12.833 75.5 28.5s25.833 40.167 28.5 73.5l39 492h101zM842 706.001h117
l-9 -105h-116z" />
    <glyph glyph-name="uni01CC" unicode="&#x1cc;" horiz-adv-x="818" 
d="M470.5 457c28.333 -28.667 42.499 -71 42.499 -127c0 -13.333 -0.333008 -23.333 -1 -30l-23 -300h-101l23 295c0.666992 4.66699 1 11.667 1 21c0 68 -32.667 102 -98 102c-41.333 0 -74.166 -12.333 -98.499 -37s-38.166 -59 -41.499 -103l-22 -278h-101l39 488h99
l-6 -70c16.667 26 39.167 46.167 67.5 60.5s60.166 21.5 95.499 21.5c54.667 0 96.167 -14.333 124.5 -43zM728.999 11c-5.33301 -64.667 -23.333 -111.833 -54 -141.5s-81 -46.5 -151 -50.5l-47 -3l-3 75l49 3c34 3.33301 59.167 12.833 75.5 28.5s25.833 40.167 28.5 73.5
l39 492h101zM674.999 706.001h117l-9 -105h-116z" />
    <glyph glyph-name="uni01CE" unicode="&#x1ce;" horiz-adv-x="535" 
d="M472 329c0 -13.333 -0.327148 -23.332 -0.994141 -29.999l-23 -299h-97l6 77c-14 -27.333 -33.5 -48.166 -58.5 -62.499s-53.5 -21.5 -85.5 -21.5c-48.667 0 -88.834 13.167 -120.501 39.5s-47.5 60.166 -47.5 101.499c0 36.667 9.66699 66 29 88s50.166 38 92.499 48
s99.166 15 170.499 15h36l2 25c2.66699 38 -3.83301 65.833 -19.5 83.5s-41.834 26.5 -78.501 26.5c-26 0 -53 -4.33301 -81 -13s-55.333 -21.334 -82 -38.001l-26 71c25.333 18 56.666 32.5 93.999 43.5s73.666 16.5 108.999 16.5c120.667 0 181 -57 181 -171z
M325.506 105.001c24.333 24.667 37.833 56.333 40.5 95l2 28h-28c-52 0 -91.833 -2.83301 -119.5 -8.5s-47 -14.5 -58 -26.5s-16.5 -28.333 -16.5 -49c0 -23.333 8.16699 -41.833 24.5 -55.5s38.5 -20.5 66.5 -20.5c34.667 0 64.167 12.333 88.5 37zM381.006 755h89
l-137 -203h-67l-105 203h85l58 -135z" />
    <glyph glyph-name="Gcaron" unicode="&#x1e6;" horiz-adv-x="728" 
d="M406 374l258.001 0.000976562l-26 -331c-30.667 -15.333 -68.334 -27.666 -113.001 -36.999s-89 -14 -133 -14c-104 0 -184.5 29 -241.5 87s-85.5 138 -85.5 240c0 80 14.667 149.667 44 209s71 105 125 137s117.333 48 190 48c102 0 184.667 -29 248 -87l-43 -76
c-32.667 27.333 -64.834 47.166 -96.501 59.499s-67.5 18.5 -107.5 18.5c-80.667 -0.666992 -143.167 -28 -187.5 -82s-66.5 -129 -66.5 -225c0 -78.667 19.333 -139.334 58 -182.001s96.334 -64 173.001 -64c49.333 0 98.333 8.33301 147 25l16 196h-165zM518.001 918.001
h85l-134 -153h-64l-110 153h84l64 -98z" />
    <glyph glyph-name="gcaron" unicode="&#x1e7;" horiz-adv-x="595" 
d="M543 488l-35.001 -446c-6 -78 -29.5 -135.667 -70.5 -173s-99.167 -56 -174.5 -56c-86 0 -160 21.333 -222 64l36 73c32.667 -20.667 63.5 -35.5 92.5 -44.5s60.833 -13.5 95.5 -13.5c88.667 0 136.334 47 143.001 141l5 60c-16 -24.667 -38 -43.834 -66 -57.501
s-59 -20.5 -93 -20.5c-42 0 -79 9.16699 -111 27.5s-56.667 44.5 -74 78.5s-26 73.333 -26 118c0 50.667 9.66699 95.834 29 135.501s46.5 70.5 81.5 92.5s75.5 33 121.5 33c37.333 0 70 -7.83301 98 -23.5s49.333 -37.5 64 -65.5l6 77h100zM387.499 142
c25.667 31.333 38.499 74.333 38.499 129c0 48 -11.833 84.667 -35.5 110s-57.167 38 -100.5 38c-45.333 0 -80.833 -15.833 -106.5 -47.5s-38.5 -75.167 -38.5 -130.5c0 -46.667 11.833 -82.667 35.5 -108s57.5 -38 101.5 -38c44.667 0 79.834 15.667 105.501 47z
M404.998 755h89l-137 -203h-67l-105 203h85l58 -135z" />
    <glyph glyph-name="uni01EA" unicode="&#x1ea;" horiz-adv-x="771" 
d="M390 -77c0 -18 5.16602 -32.002 15.499 -42.002s24.5 -15 42.5 -15s37.667 5.33301 59 16l12 -54c-27.333 -14.667 -56 -22 -86 -22c-35.333 0 -63.666 9.33301 -84.999 28s-32 43.334 -32 74.001c0 34 12.333 62.333 37 85c-58.667 3.33301 -109.5 18.833 -152.5 46.5
s-76.167 65.834 -99.5 114.501s-35 105.667 -35 171c0 78 13.833 146.333 41.5 205s66.667 104 117 136s108.833 48 175.5 48s124.167 -13.333 172.5 -40s85.333 -65.167 111 -115.5s38.5 -109.833 38.5 -178.5c0 -70 -10.833 -131.667 -32.5 -185s-51.5 -96.333 -89.5 -129
s-81.667 -54.667 -131 -66c-52.667 -12 -79 -37.667 -79 -77zM509.499 112.998c34.333 24 60.834 58.832 79.501 104.499s28 99.834 28 162.501c0 80 -18.667 141.333 -56 184s-90.666 64 -159.999 64c-71.333 0 -127.5 -27 -168.5 -81s-61.5 -128.333 -61.5 -223
c0 -79.333 18.667 -140.333 56 -183s90.666 -64 159.999 -64c47.333 0 88.166 12 122.499 36z" />
    <glyph glyph-name="uni01EB" unicode="&#x1eb;" horiz-adv-x="564" 
d="M288 -29c-13.333 -12.667 -20 -28.667 -20 -48c0 -18 5.16699 -32 15.5 -42s24.5 -15 42.5 -15s37.667 5.33301 59 16l12 -54c-27.333 -14.667 -56.333 -22 -87 -22c-35.333 0 -63.5 9.33301 -84.5 28s-31.5 43 -31.5 73c0 36.667 13.667 66.334 41 89.001
c-59.333 8 -106.333 32.833 -141 74.5s-52 94.834 -52 159.501c0 54.667 10.167 102.334 30.5 143.001s49 72 86 94s79.833 33 128.5 33c47.333 0 88.833 -9.83301 124.5 -29.5s63.167 -47.5 82.5 -83.5s29 -77.667 29 -125c0 -72.667 -15.833 -130.334 -47.5 -173.001
s-73.167 -71.334 -124.5 -86.001c-28.667 -8.66699 -49.667 -19.334 -63 -32.001zM178.5 112c23 -26 56.168 -39 99.501 -39c46 0 81.333 17.333 106 52s37 81.334 37 140.001c0 50 -11.5 88.167 -34.5 114.5s-55.833 39.5 -98.5 39.5
c-46.667 0 -82.334 -17.333 -107.001 -52s-37 -81.334 -37 -140.001c0 -50.667 11.5 -89 34.5 -115z" />
    <glyph glyph-name="Aringacute" unicode="&#x1fa;" horiz-adv-x="734" 
d="M542 174h-356.001l-88 -174h-107l360 689c-14 8.66699 -25.333 20.5 -34 35.5s-13 31.5 -13 49.5c0 28.667 10 52.834 30 72.501s44.667 29.5 74 29.5c20 0 38.667 -5.33301 56 -16l81 82h111l-156 -121c7.33301 -14.667 11 -30.334 11 -47.001
c0 -20 -5.16699 -38 -15.5 -54s-24.166 -28.333 -41.499 -37l251 -683h-102zM374.499 808.5c-9 -9.66699 -13.5 -21.167 -13.5 -34.5s4.5 -24.833 13.5 -34.5s20.167 -14.5 33.5 -14.5s24.333 4.66699 33 14s13 21 13 35s-4.33301 25.667 -13 35s-19.667 14 -33 14
s-24.5 -4.83301 -33.5 -14.5zM226.999 256h286l-117 334z" />
    <glyph glyph-name="aringacute" unicode="&#x1fb;" horiz-adv-x="535" 
d="M482 851l-6 -81l-81 -57c10.667 -17.333 16 -35.333 16 -54c0 -30 -10.333 -55.167 -31 -75.5s-46 -30.5 -76 -30.5c-28.667 0 -52.5 9.33301 -71.5 28s-28.5 41.667 -28.5 69c0 29.333 10.5 54.333 31.5 75s46.167 31 75.5 31c27.333 0 51 -9.33301 71 -28l22 70z
M342 688.5c-8.66699 9.66699 -19.667 14.5 -33 14.5c-14 0 -25.5 -5 -34.5 -15s-13.5 -22 -13.5 -36c0 -13.333 4.33301 -24.5 13 -33.5s19.334 -13.5 32.001 -13.5c13.333 0 24.666 4.83301 33.999 14.5s14 21.167 14 34.5c0.666992 13.333 -3.33301 24.833 -12 34.5z
M472 329c0 -13.333 -0.329102 -23.332 -0.996094 -29.999l-23 -299h-97l6 77c-14 -27.333 -33.5 -48.166 -58.5 -62.499s-53.5 -21.5 -85.5 -21.5c-49.333 0 -89.666 13.167 -120.999 39.5s-47 60.166 -47 101.499c0 36.667 9.66699 66 29 88s50.166 38 92.499 48
s99.166 15 170.499 15h36l2 25c2.66699 38 -3.83301 65.833 -19.5 83.5s-41.834 26.5 -78.501 26.5c-26 0 -53 -4.33301 -81 -13s-55.333 -21.334 -82 -38.001l-26 71c25.333 18 56.666 32.5 93.999 43.5s73.666 16.5 108.999 16.5c120.667 0 181 -57 181 -171z
M325.504 105.001c24.333 24.667 37.833 56.332 40.5 94.999l2 28h-28c-52 0 -92 -2.83301 -120 -8.5s-47.333 -14.667 -58 -27s-16 -29.166 -16 -50.499c0 -22 8.16699 -39.833 24.5 -53.5s38.5 -20.5 66.5 -20.5c34.667 0 64.167 12.333 88.5 37z" />
    <glyph glyph-name="AEacute" unicode="&#x1fc;" horiz-adv-x="994" 
d="M978 621h-418l31 -221h350l-7 -84h-331l32 -232h301l-7 -84h-377l-24 174h-325l-117 -174h-115l488 705h525zM258 256h259l-44 321zM574 765h-66l110 153h109z" />
    <glyph glyph-name="aeacute" unicode="&#x1fd;" horiz-adv-x="848" 
d="M757.5 442.5c35.667 -38.333 53.4971 -93.832 53.4971 -166.499c0 -15.333 -1 -31.666 -3 -48.999h-340c0.666992 -49.333 13.334 -87.5 38.001 -114.5s60.334 -40.5 107.001 -40.5c24.667 0 49.834 4.5 75.501 13.5s49.834 22.5 72.501 40.5l25 -71
c-20 -18.667 -46.667 -33.667 -80 -45s-66.333 -17 -99 -17c-48 0 -89 10 -123 30s-59.667 48.333 -77 85c-17.333 -36.667 -42.666 -65 -75.999 -85s-71 -30 -113 -30c-51.333 0 -93 13.167 -125 39.5s-48 60.166 -48 101.499c0 36.667 9.66699 66 29 88
s50.166 38 92.499 48s99.166 15 170.499 15h37l2 25l1 18c0 31.333 -8 54.5 -24 69.5s-41 22.5 -75 22.5c-26.667 0 -54 -4.33301 -82 -13s-55.333 -21.334 -82 -38.001l-26 71c25.333 18 56.833 32.5 94.5 43.5s74.167 16.5 109.5 16.5
c75.333 0 126.666 -24.667 153.999 -74c20 24 44.167 42.333 72.5 55s59.833 19 94.5 19c60.667 0 108.834 -19.167 144.501 -57.5zM518.497 390.001c-24.333 -24 -39.833 -59.001 -46.5 -105.001h252c0.666992 46.667 -8.83301 81.834 -28.5 105.501
s-46.834 35.5 -81.501 35.5c-39.333 0 -71.166 -12 -95.499 -36zM325.497 106c25 25.333 39.167 58.332 42.5 98.999l2 23h-30c-52 0 -92 -2.83301 -120 -8.5s-47.333 -14.667 -58 -27s-16 -29.166 -16 -50.499c0 -22 8.16699 -39.833 24.5 -53.5s37.833 -20.5 64.5 -20.5
c35.333 0 65.5 12.667 90.5 38zM477.997 551.999h-67l112 203h114z" />
    <glyph glyph-name="Oslashacute" unicode="&#x1fe;" horiz-adv-x="771" 
d="M697.5 525.5c16.333 -43 24.499 -91.5 24.499 -145.5c0 -78 -13.833 -146.333 -41.5 -205s-66.667 -104 -117 -136s-109.166 -48 -176.499 -48c-62.667 0 -116.667 11.667 -162 35l-53 -79l-66 42l55 82c-30.667 29.333 -54.167 65.5 -70.5 108.5s-24.5 91.5 -24.5 145.5
c0 78 13.833 146.333 41.5 205s66.667 104 117 136s108.833 48 175.5 48c62.667 0 117 -12 163 -36l53 80l66 -42l-55 -83c30.667 -28.667 54.167 -64.5 70.5 -107.5zM215.999 155l296.999 447c-31.333 17.333 -68.666 26 -111.999 26c-71.333 0 -127.5 -27 -168.5 -81
s-61.5 -128.333 -61.5 -223c0 -72 15 -128.333 45 -169zM509.498 113c34.333 24 60.834 58.8311 79.501 104.498s28 99.834 28 162.501c0 70.667 -15 127.334 -45 170.001l-297 -448c32 -16.667 69.333 -25 112 -25c47.333 0 88.166 12 122.499 36zM458.999 764.998h-66
l110 153h109z" />
    <glyph glyph-name="oslashacute" unicode="&#x1ff;" horiz-adv-x="564" 
d="M504 365.5c12.667 -31 19 -65.501 19 -103.501c0 -54.667 -10.167 -102.167 -30.5 -142.5s-49 -71.5 -86 -93.5s-80.167 -33 -129.5 -33c-40 0 -76.667 7.33301 -110 22l-44 -66l-52 33l44 67c-23.333 20.667 -41.333 46.5 -54 77.5s-19 65.5 -19 103.5
c0 54.667 10.167 102.334 30.5 143.001s49 72 86 94s79.833 33 128.5 33c42 0 79.333 -7.66699 112 -23l43 66l52 -32l-44 -67c23.333 -21.333 41.333 -47.5 54 -78.5zM166 125.999l185.999 281c-17.333 8.66699 -38.666 13 -63.999 13c-46.667 0 -82.5 -17.5 -107.5 -52.5
s-37.5 -81.833 -37.5 -140.5c0 -42 7.66699 -75.667 23 -101zM385.499 123.999c25 34.667 37.5 81.666 37.5 140.999c0 42.667 -8.33301 76.334 -25 101.001l-185 -281c17.333 -8.66699 39 -13 65 -13c46.667 0 82.5 17.333 107.5 52zM339.999 551.998h-67l112 203h114z" />
    <glyph glyph-name="uni0200" unicode="&#x200;" horiz-adv-x="734" 
d="M603 0l-61 174h-356l-88 -174h-107l369 705h86l259 -705h-102zM227 256h286l-117 334zM319 765l-85 153h77l61 -153h-53zM444 765l-85 153h77l61 -153h-53z" />
    <glyph glyph-name="uni0201" unicode="&#x201;" horiz-adv-x="535" 
d="M472 329c0 -13.333 -0.327148 -23.332 -0.994141 -29.999l-23 -299h-97l6 77c-14 -27.333 -33.5 -48.166 -58.5 -62.499s-53.5 -21.5 -85.5 -21.5c-48.667 0 -88.834 13.167 -120.501 39.5s-47.5 60.166 -47.5 101.499c0 36.667 9.66699 66 29 88s50.166 38 92.499 48
s99.166 15 170.499 15h36l2 25c2.66699 38 -3.83301 65.833 -19.5 83.5s-41.834 26.5 -78.501 26.5c-26 0 -53 -4.33301 -81 -13s-55.333 -21.334 -82 -38.001l-26 71c25.333 18 56.666 32.5 93.999 43.5s73.666 16.5 108.999 16.5c120.667 0 181 -57 181 -171z
M325.506 105.001c24.333 24.667 37.833 56.333 40.5 95l2 28h-28c-52 0 -91.833 -2.83301 -119.5 -8.5s-47 -14.5 -58 -26.5s-16.5 -28.333 -16.5 -49c0 -23.333 8.16699 -41.833 24.5 -55.5s38.5 -20.5 66.5 -20.5c34.667 0 64.167 12.333 88.5 37zM213.006 552l-61 203h81
l27 -203h-47zM339.006 552l-61 203h81l27 -203h-47z" />
    <glyph glyph-name="uni0202" unicode="&#x202;" horiz-adv-x="734" 
d="M603 0l-61 174h-356l-88 -174h-107l369 705h86l259 -705h-102zM227 256h286l-117 334zM517 880.5c29.333 -18.333 49.667 -44.833 61 -79.5l-58 -24c-12 23.333 -26.833 39.833 -44.5 49.5s-38.5 14.5 -62.5 14.5s-45.333 -4.83301 -64 -14.5s-35.667 -26.167 -51 -49.5
l-54 24c16 35.333 39.167 62 69.5 80s64.5 27 102.5 27s71.667 -9.16699 101 -27.5z" />
    <glyph glyph-name="uni0203" unicode="&#x203;" horiz-adv-x="535" 
d="M472 329c0 -13.333 -0.327148 -23.332 -0.994141 -29.999l-23 -299h-97l6 77c-14 -27.333 -33.5 -48.166 -58.5 -62.499s-53.5 -21.5 -85.5 -21.5c-48.667 0 -88.834 13.167 -120.501 39.5s-47.5 60.166 -47.5 101.499c0 36.667 9.66699 66 29 88s50.166 38 92.499 48
s99.166 15 170.499 15h36l2 25c2.66699 38 -3.83301 65.833 -19.5 83.5s-41.834 26.5 -78.501 26.5c-26 0 -53 -4.33301 -81 -13s-55.333 -21.334 -82 -38.001l-26 71c25.333 18 56.666 32.5 93.999 43.5s73.666 16.5 108.999 16.5c120.667 0 181 -57 181 -171z
M325.506 105.001c24.333 24.667 37.833 56.333 40.5 95l2 28h-28c-52 0 -91.833 -2.83301 -119.5 -8.5s-47 -14.5 -58 -26.5s-16.5 -28.333 -16.5 -49c0 -23.333 8.16699 -41.833 24.5 -55.5s38.5 -20.5 66.5 -20.5c34.667 0 64.167 12.333 88.5 37zM412.506 700
c29.667 -22 50.1689 -54.668 61.502 -98.001l-58 -24c-22.667 57.333 -59.334 86 -110.001 86c-23.333 0 -44.833 -6.66699 -64.5 -20s-37.834 -35.333 -54.501 -66l-55 23c16 44.667 40 77.834 72 99.501s67.667 32.5 107 32.5c38 0 71.833 -11 101.5 -33z" />
    <glyph glyph-name="uni0204" unicode="&#x204;" horiz-adv-x="585" 
d="M570 622h-356l-18 -222h336l-7 -84h-335l-19 -233h356l-6 -83h-458l55 705h458zM278 765l-85 153h77l61 -153h-53zM403 765l-85 153h77l61 -153h-53z" />
    <glyph glyph-name="uni0205" unicode="&#x205;" horiz-adv-x="529" 
d="M436 443c36.667 -38 54.998 -93.333 54.998 -166c0 -15.333 -1 -32 -3 -50h-346c0.666992 -49.333 13.334 -87.5 38.001 -114.5s60.334 -40.5 107.001 -40.5c56.667 0 108 18 154 54l26 -71c-20.667 -18.667 -48 -33.667 -82 -45s-68.667 -17 -104 -17
c-48 0 -90 9.66699 -126 29s-63.833 47 -83.5 83s-29.5 77.667 -29.5 125c0 52.667 10.167 99.5 30.5 140.5s49 72.833 86 95.5s79.167 34 126.5 34c64 0 114.333 -19 151 -57zM192.498 390c-24.333 -24 -39.8311 -59.001 -46.498 -105.001h258
c1.33301 46.667 -8.33398 81.834 -29.001 105.501s-49.334 35.5 -86.001 35.5c-40 0 -72.167 -12 -96.5 -36zM214 551.999l-61 203h81l27 -203h-47zM340 551.999l-61 203h81l27 -203h-47z" />
    <glyph glyph-name="uni0206" unicode="&#x206;" horiz-adv-x="585" 
d="M570 622h-356l-18 -222h336l-7 -84h-335l-19 -233h356l-6 -83h-458l55 705h458zM476 880.5c29.333 -18.333 49.667 -44.833 61 -79.5l-58 -24c-12 23.333 -26.833 39.833 -44.5 49.5s-38.5 14.5 -62.5 14.5s-45.333 -4.83301 -64 -14.5s-35.667 -26.167 -51 -49.5l-54 24
c16 35.333 39.167 62 69.5 80s64.5 27 102.5 27s71.667 -9.16699 101 -27.5z" />
    <glyph glyph-name="uni0207" unicode="&#x207;" horiz-adv-x="529" 
d="M436 443c36.667 -38 54.998 -93.333 54.998 -166c0 -15.333 -1 -32 -3 -50h-346c0.666992 -49.333 13.334 -87.5 38.001 -114.5s60.334 -40.5 107.001 -40.5c56.667 0 108 18 154 54l26 -71c-20.667 -18.667 -48 -33.667 -82 -45s-68.667 -17 -104 -17
c-48 0 -90 9.66699 -126 29s-63.833 47 -83.5 83s-29.5 77.667 -29.5 125c0 52.667 10.167 99.5 30.5 140.5s49 72.833 86 95.5s79.167 34 126.5 34c64 0 114.333 -19 151 -57zM192.498 390c-24.333 -24 -39.8311 -59.001 -46.498 -105.001h258
c1.33301 46.667 -8.33398 81.834 -29.001 105.501s-49.334 35.5 -86.001 35.5c-40 0 -72.167 -12 -96.5 -36zM413.5 699.999c29.667 -22 50.1689 -54.668 61.502 -98.001l-58 -24c-22.667 57.333 -59.334 86 -110.001 86c-23.333 0 -44.833 -6.66699 -64.5 -20
s-37.834 -35.333 -54.501 -66l-55 23c16 44.667 40 77.834 72 99.501s67.667 32.5 107 32.5c38 0 71.833 -11 101.5 -33z" />
    <glyph glyph-name="uni0208" unicode="&#x208;" horiz-adv-x="267" 
d="M63 0l55 705h103l-55 -705h-103zM86 765l-85 153h77l61 -153h-53zM211 765l-85 153h77l61 -153h-53z" />
    <glyph glyph-name="uni0209" unicode="&#x209;" horiz-adv-x="242" 
d="M51 0l39 488h101l-39 -488h-101zM59 552l-61 203h81l27 -203h-47zM185 552l-61 203h81l27 -203h-47z" />
    <glyph glyph-name="uni020A" unicode="&#x20a;" horiz-adv-x="267" 
d="M63 0l55 705h103l-55 -705h-103zM284 880.5c29.333 -18.333 49.667 -44.833 61 -79.5l-58 -24c-12 23.333 -26.833 39.833 -44.5 49.5s-38.5 14.5 -62.5 14.5s-45.333 -4.83301 -64 -14.5s-35.667 -26.167 -51 -49.5l-54 24c16 35.333 39.167 62 69.5 80
s64.5 27 102.5 27s71.667 -9.16699 101 -27.5z" />
    <glyph glyph-name="uni020B" unicode="&#x20b;" horiz-adv-x="242" 
d="M51 0l39 488h101l-39 -488h-101zM258.5 700c29.667 -22 50.1689 -54.668 61.502 -98.001l-58 -24c-22.667 57.333 -59.334 86 -110.001 86c-23.333 0 -44.833 -6.66699 -64.5 -20s-37.834 -35.333 -54.501 -66l-55 23c16 44.667 40 77.834 72 99.501
s67.667 32.5 107 32.5c38 0 71.833 -11 101.5 -33z" />
    <glyph glyph-name="uni020C" unicode="&#x20c;" horiz-adv-x="771" 
d="M215.5 31c-48.333 26.667 -85.334 65.167 -111.001 115.5s-38.5 109.833 -38.5 178.5c0 78 13.833 146.333 41.5 205s66.667 104 117 136s108.833 48 175.5 48c66 0 123.167 -13.333 171.5 -40s85.5 -65.167 111.5 -115.5s39 -109.833 39 -178.5
c0 -78 -13.833 -146.333 -41.5 -205s-66.667 -104 -117 -136s-109.166 -48 -176.499 -48c-66 0 -123.167 13.333 -171.5 40zM509.499 113c34.333 24 60.834 58.832 79.501 104.499s28 99.834 28 162.501c0 80 -18.667 141.333 -56 184s-90.666 64 -159.999 64
c-71.333 0 -127.5 -27 -168.5 -81s-61.5 -128.333 -61.5 -223c0 -79.333 18.667 -140.333 56 -183s90.666 -64 159.999 -64c47.333 0 88.166 12 122.499 36zM337 764.999l-85 153h77l61 -153h-53zM462 764.999l-85 153h77l61 -153h-53z" />
    <glyph glyph-name="uni020D" unicode="&#x20d;" horiz-adv-x="564" 
d="M153 22c-35.333 19.333 -62.667 47 -82 83s-29 77.667 -29 125c0 54.667 10.167 102.334 30.5 143.001s49 72 86 94s79.833 33 128.5 33c48 0 89.667 -9.83301 125 -29.5s62.666 -47.334 81.999 -83.001s29 -77.5 29 -125.5c0 -54.667 -10.167 -102.167 -30.5 -142.5
s-49 -71.5 -86 -93.5s-80.167 -33 -129.5 -33c-47.333 0 -88.666 9.66699 -123.999 29zM383.999 125c24.667 34.667 37.001 81.334 37.001 140.001c0 50 -11.5 88.167 -34.5 114.5s-55.833 39.5 -98.5 39.5c-46.667 0 -82.334 -17.333 -107.001 -52
s-37 -81.334 -37 -140.001c0 -50.667 11.5 -89 34.5 -115s56.167 -39 99.5 -39c46 0 81.333 17.333 106 52zM220 552l-61 203h81l27 -203h-47zM346 552l-61 203h81l27 -203h-47z" />
    <glyph glyph-name="uni020E" unicode="&#x20e;" horiz-adv-x="771" 
d="M215.5 31c-48.333 26.667 -85.334 65.167 -111.001 115.5s-38.5 109.833 -38.5 178.5c0 78 13.833 146.333 41.5 205s66.667 104 117 136s108.833 48 175.5 48c66 0 123.167 -13.333 171.5 -40s85.5 -65.167 111.5 -115.5s39 -109.833 39 -178.5
c0 -78 -13.833 -146.333 -41.5 -205s-66.667 -104 -117 -136s-109.166 -48 -176.499 -48c-66 0 -123.167 13.333 -171.5 40zM509.499 113c34.333 24 60.834 58.832 79.501 104.499s28 99.834 28 162.501c0 80 -18.667 141.333 -56 184s-90.666 64 -159.999 64
c-71.333 0 -127.5 -27 -168.5 -81s-61.5 -128.333 -61.5 -223c0 -79.333 18.667 -140.333 56 -183s90.666 -64 159.999 -64c47.333 0 88.166 12 122.499 36zM535 880.499c29.333 -18.333 49.667 -44.833 61 -79.5l-58 -24c-12 23.333 -26.833 39.833 -44.5 49.5
s-38.5 14.5 -62.5 14.5s-45.333 -4.83301 -64 -14.5s-35.667 -26.167 -51 -49.5l-54 24c16 35.333 39.167 62 69.5 80s64.5 27 102.5 27s71.667 -9.16699 101 -27.5z" />
    <glyph glyph-name="uni020F" unicode="&#x20f;" horiz-adv-x="564" 
d="M153 22c-35.333 19.333 -62.667 47 -82 83s-29 77.667 -29 125c0 54.667 10.167 102.334 30.5 143.001s49 72 86 94s79.833 33 128.5 33c48 0 89.667 -9.83301 125 -29.5s62.666 -47.334 81.999 -83.001s29 -77.5 29 -125.5c0 -54.667 -10.167 -102.167 -30.5 -142.5
s-49 -71.5 -86 -93.5s-80.167 -33 -129.5 -33c-47.333 0 -88.666 9.66699 -123.999 29zM383.999 125c24.667 34.667 37.001 81.334 37.001 140.001c0 50 -11.5 88.167 -34.5 114.5s-55.833 39.5 -98.5 39.5c-46.667 0 -82.334 -17.333 -107.001 -52
s-37 -81.334 -37 -140.001c0 -50.667 11.5 -89 34.5 -115s56.167 -39 99.5 -39c46 0 81.333 17.333 106 52zM419.5 700c29.667 -22 50.1689 -54.668 61.502 -98.001l-58 -24c-22.667 57.333 -59.334 86 -110.001 86c-23.333 0 -44.833 -6.66699 -64.5 -20
s-37.834 -35.333 -54.501 -66l-55 23c16 44.667 40 77.834 72 99.501s67.667 32.5 107 32.5c38 0 71.833 -11 101.5 -33z" />
    <glyph glyph-name="uni0210" unicode="&#x210;" horiz-adv-x="690" 
d="M496.5 274.5c11.667 -12.333 22.5 -29.1689 32.5 -50.502l106 -224h-112l-105 226c-11.333 24.667 -25.666 41.667 -42.999 51s-41 14 -71 14h-116l-23 -291h-102l55 705h300c72 0 127.667 -16.667 167 -50s59 -80.666 59 -141.999c0 -60.667 -15.833 -109 -47.5 -145
s-78.834 -58.333 -141.501 -67c16 -5.33301 29.833 -14.166 41.5 -26.499zM389 373.997c52 0 91 11 117 33s39 55.333 39 100c0 39.333 -11.333 68.333 -34 87s-57 28 -103 28h-194l-20 -248h195zM296 764.997l-85 153h77l61 -153h-53zM421 764.997l-85 153h77l61 -153h-53z
" />
    <glyph glyph-name="uni0211" unicode="&#x211;" horiz-adv-x="366" 
d="M381 500l-0.000976562 -85.001l-66 -7c-46 -4.66699 -80.167 -18 -102.5 -40s-35.166 -54.333 -38.499 -97l-22 -271h-101l39 487h97l-6 -75c17.333 26.667 40 46.834 68 60.501s62 22.167 102 25.5zM157.999 551.999l-61 203h81l27 -203h-47zM283.999 551.999l-61 203
h81l27 -203h-47z" />
    <glyph glyph-name="uni0212" unicode="&#x212;" horiz-adv-x="690" 
d="M496.5 274.5c11.667 -12.333 22.5 -29.1689 32.5 -50.502l106 -224h-112l-105 226c-11.333 24.667 -25.666 41.667 -42.999 51s-41 14 -71 14h-116l-23 -291h-102l55 705h300c72 0 127.667 -16.667 167 -50s59 -80.666 59 -141.999c0 -60.667 -15.833 -109 -47.5 -145
s-78.834 -58.333 -141.501 -67c16 -5.33301 29.833 -14.166 41.5 -26.499zM389 373.997c52 0 91 11 117 33s39 55.333 39 100c0 39.333 -11.333 68.333 -34 87s-57 28 -103 28h-194l-20 -248h195zM494 880.497c29.333 -18.333 49.667 -44.833 61 -79.5l-58 -24
c-12 23.333 -26.833 39.833 -44.5 49.5s-38.5 14.5 -62.5 14.5s-45.333 -4.83301 -64 -14.5s-35.667 -26.167 -51 -49.5l-54 24c16 35.333 39.167 62 69.5 80s64.5 27 102.5 27s71.667 -9.16699 101 -27.5z" />
    <glyph glyph-name="uni0213" unicode="&#x213;" horiz-adv-x="366" 
d="M381 500l-0.000976562 -85.001l-66 -7c-46 -4.66699 -80.167 -18 -102.5 -40s-35.166 -54.333 -38.499 -97l-22 -271h-101l39 487h97l-6 -75c17.333 26.667 40 46.834 68 60.501s62 22.167 102 25.5zM357.499 699.999c29.667 -22 50.1689 -54.668 61.502 -98.001l-58 -24
c-22.667 57.333 -59.334 86 -110.001 86c-23.333 0 -44.833 -6.66699 -64.5 -20s-37.834 -35.333 -54.501 -66l-55 23c16 44.667 40 77.834 72 99.501s67.667 32.5 107 32.5c38 0 71.833 -11 101.5 -33z" />
    <glyph glyph-name="uni0214" unicode="&#x214;" horiz-adv-x="728" 
d="M147.5 57c-46.333 43.333 -69.499 106.333 -69.499 189c0 8.66699 0.666992 21.667 2 39l33 420h102l-33 -421c-0.666992 -7.33301 -1 -18 -1 -32c0 -117.333 58.667 -176 176 -176c59.333 0 105.166 15.5 137.499 46.5s51.166 79.833 56.499 146.5l34 436h102l-34 -427
c-7.33301 -95.333 -36.166 -166.833 -86.499 -214.5s-121.5 -71.5 -213.5 -71.5c-90.667 0 -159.167 21.667 -205.5 65zM316.001 765l-85 153h77l61 -153h-53zM441.001 765l-85 153h77l61 -153h-53z" />
    <glyph glyph-name="uni0215" unicode="&#x215;" horiz-adv-x="569" 
d="M517 488l-37.9971 -488h-99l6 74c-16.667 -26 -38.834 -46 -66.501 -60s-58.5 -21 -92.5 -21c-54 0 -95 14.5 -123 43.5s-42 71.5 -42 127.5c0 12 0.333008 21 1 27l24 297h101l-24 -291l-1 -18c0 -69.333 32.333 -104 97 -104c39.333 0 70.666 12.333 93.999 37
s36.666 58.667 39.999 102l22 274h101zM222.003 552l-61 203h81l27 -203h-47zM348.003 552l-61 203h81l27 -203h-47z" />
    <glyph glyph-name="uni0216" unicode="&#x216;" horiz-adv-x="728" 
d="M147.5 57c-46.333 43.333 -69.499 106.333 -69.499 189c0 8.66699 0.666992 21.667 2 39l33 420h102l-33 -421c-0.666992 -7.33301 -1 -18 -1 -32c0 -117.333 58.667 -176 176 -176c59.333 0 105.166 15.5 137.499 46.5s51.166 79.833 56.499 146.5l34 436h102l-34 -427
c-7.33301 -95.333 -36.166 -166.833 -86.499 -214.5s-121.5 -71.5 -213.5 -71.5c-90.667 0 -159.167 21.667 -205.5 65zM514.001 880.5c29.333 -18.333 49.667 -44.833 61 -79.5l-58 -24c-12 23.333 -26.833 39.833 -44.5 49.5s-38.5 14.5 -62.5 14.5
s-45.333 -4.83301 -64 -14.5s-35.667 -26.167 -51 -49.5l-54 24c16 35.333 39.167 62 69.5 80s64.5 27 102.5 27s71.667 -9.16699 101 -27.5z" />
    <glyph glyph-name="uni0217" unicode="&#x217;" horiz-adv-x="569" 
d="M517 488l-37.9971 -488h-99l6 74c-16.667 -26 -38.834 -46 -66.501 -60s-58.5 -21 -92.5 -21c-54 0 -95 14.5 -123 43.5s-42 71.5 -42 127.5c0 12 0.333008 21 1 27l24 297h101l-24 -291l-1 -18c0 -69.333 32.333 -104 97 -104c39.333 0 70.666 12.333 93.999 37
s36.666 58.667 39.999 102l22 274h101zM421.503 700c29.667 -22 50.1689 -54.668 61.502 -98.001l-58 -24c-22.667 57.333 -59.334 86 -110.001 86c-23.333 0 -44.833 -6.66699 -64.5 -20s-37.834 -35.333 -54.501 -66l-55 23c16 44.667 40 77.834 72 99.501
s67.667 32.5 107 32.5c38 0 71.833 -11 101.5 -33z" />
    <glyph glyph-name="Scommaaccent" unicode="&#x218;" horiz-adv-x="627" 
d="M32 79l43 75.999c36 -27.333 72.667 -47.333 110 -60s78.666 -19 123.999 -19c53.333 0 94.166 9.5 122.499 28.5s42.5 45.833 42.5 80.5c0 22 -7.16699 40 -21.5 54s-32.166 25.167 -53.499 33.5s-51 18.166 -89 29.499c-49.333 14.667 -89.5 28.834 -120.5 42.501
s-57.333 33.667 -79 60s-32.5 60.833 -32.5 103.5c0 41.333 11.167 77.5 33.5 108.5s53.833 54.833 94.5 71.5s88.334 25 143.001 25c49.333 0 96 -7.66699 140 -23s80.667 -36.666 110 -63.999l-42 -76c-62.667 52.667 -132.667 79 -210 79
c-52.667 0 -93.334 -10 -122.001 -30s-43 -48 -43 -84c0 -24 7.66699 -43.833 23 -59.5s34.333 -28 57 -37s53.667 -19.167 93 -30.5c48 -14 86.667 -27.5 116 -40.5s54.5 -31.833 75.5 -56.5s31.5 -57 31.5 -97c0 -62.667 -24.167 -112 -72.5 -148s-114.833 -54 -199.5 -54
c-109.333 0 -200.666 29 -273.999 87zM347 -70.001l-5 -60c-2 -28 -7.83301 -52.667 -17.5 -74s-25.167 -41.333 -46.5 -60l-39 30c23.333 22.667 37 46.667 41 72h-53l7 92h113z" />
    <glyph glyph-name="scommaaccent" unicode="&#x219;" horiz-adv-x="482" 
d="M25 55l35.998 73.002c52 -38.667 109 -58 171 -58c34.667 0 60.834 5.33301 78.501 16s26.5 26 26.5 46c0 19.333 -9 34.166 -27 44.499s-46 20.833 -84 31.5c-34.667 10 -62.667 19.667 -84 29s-39.666 23.166 -54.999 41.499s-23 42.166 -23 71.499
c0 45.333 18.167 81.666 54.5 108.999s84.5 41 144.5 41c35.333 0 69.333 -5.66699 102 -17s59.667 -26.666 81 -45.999l-36 -71c-46.667 38 -95.667 57 -147 57c-33.333 0 -59 -5.66699 -77 -17s-27 -28 -27 -50c0 -19.333 8.83301 -34 26.5 -44s45.5 -20.333 83.5 -31
c34.667 -10 62.667 -19.667 84 -29s39.666 -23.166 54.999 -41.499s23 -42.5 23 -72.5c0 -45.333 -18.167 -80.833 -54.5 -106.5s-85.166 -38.5 -146.499 -38.5c-78.667 0 -147 20.667 -205 62zM271.998 -69.998l-5 -60c-2 -28 -7.83301 -52.667 -17.5 -74
s-25.167 -41.333 -46.5 -60l-39 30c23.333 22.667 37 46.667 41 72h-53l7 92h113z" />
    <glyph glyph-name="uni021A" unicode="&#x21a;" horiz-adv-x="605" 
d="M231 0l49 619h-238l7 86h580l-7 -86h-238l-49 -619h-104zM334 -70l-5 -60c-2 -28 -7.83301 -52.667 -17.5 -74s-25.167 -41.333 -46.5 -60l-39 30c23.333 22.667 37 46.667 41 72h-53l7 92h113z" />
    <glyph glyph-name="uni021B" unicode="&#x21b;" horiz-adv-x="353" 
d="M197 181l-1.00098 -17c0 -62 30.667 -93 92 -93c14 0 29 1 45 3l-11 -76c-16 -3.33301 -32.667 -5 -50 -5c-57.333 0 -101.166 13.833 -131.499 41.5s-45.5 67.5 -45.5 119.5c0 10.667 0.333008 18.667 1 24l18 232h-94l6 78h94l12 147h101l-12 -147h134l-6 -78h-134z
M257.999 -70l-5 -60c-2 -28 -7.83301 -52.667 -17.5 -74s-25.167 -41.333 -46.5 -60l-39 30c23.333 22.667 37 46.667 41 72h-53l7 92h113z" />
    <glyph glyph-name="uni0227" unicode="&#x227;" horiz-adv-x="535" 
d="M472 329c0 -13.333 -0.327148 -23.332 -0.994141 -29.999l-23 -299h-97l6 77c-14 -27.333 -33.5 -48.166 -58.5 -62.499s-53.5 -21.5 -85.5 -21.5c-48.667 0 -88.834 13.167 -120.501 39.5s-47.5 60.166 -47.5 101.499c0 36.667 9.66699 66 29 88s50.166 38 92.499 48
s99.166 15 170.499 15h36l2 25c2.66699 38 -3.83301 65.833 -19.5 83.5s-41.834 26.5 -78.501 26.5c-26 0 -53 -4.33301 -81 -13s-55.333 -21.334 -82 -38.001l-26 71c25.333 18 56.666 32.5 93.999 43.5s73.666 16.5 108.999 16.5c120.667 0 181 -57 181 -171z
M325.506 105.001c24.333 24.667 37.833 56.333 40.5 95l2 28h-28c-52 0 -91.833 -2.83301 -119.5 -8.5s-47 -14.5 -58 -26.5s-16.5 -28.333 -16.5 -49c0 -23.333 8.16699 -41.833 24.5 -55.5s38.5 -20.5 66.5 -20.5c34.667 0 64.167 12.333 88.5 37zM253.006 706h117
l-9 -105h-116z" />
    <glyph glyph-name="uni0228" unicode="&#x228;" horiz-adv-x="585" 
d="M214 622l-18.001 -222h336l-7 -84h-335l-19 -233h356l-6 -83h-191l-9 -42c4 0.666992 9.33301 1 16 1c23.333 0 42 -5.83301 56 -17.5s21 -28.167 21 -49.5c0 -25.333 -10.667 -46 -32 -62s-51.333 -24 -90 -24c-15.333 0 -31.5 1.66699 -48.5 5s-31.833 8 -44.5 14
l15 47c27.333 -9.33301 53 -14 77 -14c16.667 0 29.834 2.66699 39.501 8s14.5 13.333 14.5 24c0 16.667 -11.333 25 -34 25c-10.667 0 -24.667 -2.66699 -42 -8l-18 17l15 76h-203l55 705h458l-6 -83h-356z" />
    <glyph glyph-name="uni022A" unicode="&#x22a;" horiz-adv-x="771" 
d="M215.5 31c-48.333 26.667 -85.334 65.167 -111.001 115.5s-38.5 109.833 -38.5 178.5c0 78 13.833 146.333 41.5 205s66.667 104 117 136s108.833 48 175.5 48c66 0 123.167 -13.333 171.5 -40s85.5 -65.167 111.5 -115.5s39 -109.833 39 -178.5
c0 -78 -13.833 -146.333 -41.5 -205s-66.667 -104 -117 -136s-109.166 -48 -176.499 -48c-66 0 -123.167 13.333 -171.5 40zM509.499 113c34.333 24 60.834 58.832 79.501 104.499s28 99.834 28 162.501c0 80 -18.667 141.333 -56 184s-90.666 64 -159.999 64
c-71.333 0 -127.5 -27 -168.5 -81s-61.5 -128.333 -61.5 -223c0 -79.333 18.667 -140.333 56 -183s90.666 -64 159.999 -64c47.333 0 88.166 12 122.499 36zM296 891.999h104l-8 -99h-103zM473 891.999h103l-7 -99h-104zM291 966.999l6 70h303l-6 -70h-303z" />
    <glyph glyph-name="uni022B" unicode="&#x22b;" horiz-adv-x="564" 
d="M153 22c-35.333 19.333 -62.667 47 -82 83s-29 77.667 -29 125c0 54.667 10.167 102.334 30.5 143.001s49 72 86 94s79.833 33 128.5 33c48 0 89.667 -9.83301 125 -29.5s62.666 -47.334 81.999 -83.001s29 -77.5 29 -125.5c0 -54.667 -10.167 -102.167 -30.5 -142.5
s-49 -71.5 -86 -93.5s-80.167 -33 -129.5 -33c-47.333 0 -88.666 9.66699 -123.999 29zM383.999 125c24.667 34.667 37.001 81.334 37.001 140.001c0 50 -11.5 88.167 -34.5 114.5s-55.833 39.5 -98.5 39.5c-46.667 0 -82.334 -17.333 -107.001 -52
s-37 -81.334 -37 -140.001c0 -50.667 11.5 -89 34.5 -115s56.167 -39 99.5 -39c46 0 81.333 17.333 106 52zM178 703h104l-8 -99h-103zM355 703h103l-7 -99h-104zM175 810l6 70h303l-6 -70h-303z" />
    <glyph glyph-name="uni022C" unicode="&#x22c;" horiz-adv-x="771" 
d="M215.5 31c-48.333 26.667 -85.334 65.167 -111.001 115.5s-38.5 109.833 -38.5 178.5c0 78 13.833 146.333 41.5 205s66.667 104 117 136s108.833 48 175.5 48c66 0 123.167 -13.333 171.5 -40s85.5 -65.167 111.5 -115.5s39 -109.833 39 -178.5
c0 -78 -13.833 -146.333 -41.5 -205s-66.667 -104 -117 -136s-109.166 -48 -176.499 -48c-66 0 -123.167 13.333 -171.5 40zM509.499 113c34.333 24 60.834 58.832 79.501 104.499s28 99.834 28 162.501c0 80 -18.667 141.333 -56 184s-90.666 64 -159.999 64
c-71.333 0 -127.5 -27 -168.5 -81s-61.5 -128.333 -61.5 -223c0 -79.333 18.667 -140.333 56 -183s90.666 -64 159.999 -64c47.333 0 88.166 12 122.499 36zM294.5 874.999c19 20.667 43.166 31.001 72.499 31.001c12.667 0 24.667 -2.66699 36 -8
s25.666 -13.333 42.999 -24c14 -8.66699 25 -14.834 33 -18.501s15.667 -5.5 23 -5.5c14 0 25.5 4.66699 34.5 14s13.833 22.333 14.5 39h51c-2.66699 -41.333 -13.5 -72.333 -32.5 -93s-43.167 -31 -72.5 -31c-12.667 0 -24.667 2.66699 -36 8s-25.666 13.333 -42.999 24
c-12.667 8 -23.167 14 -31.5 18s-16.166 6 -23.499 6c-14 0 -25.5 -4.66699 -34.5 -14s-14.167 -22.333 -15.5 -39h-50c2 41.333 12.5 72.333 31.5 93zM290.999 967l6 70h303l-6 -70h-303z" />
    <glyph glyph-name="uni022D" unicode="&#x22d;" horiz-adv-x="564" 
d="M153 22c-35.333 19.333 -62.667 47 -82 83s-29 77.667 -29 125c0 54.667 10.167 102.334 30.5 143.001s49 72 86 94s79.833 33 128.5 33c48 0 89.667 -9.83301 125 -29.5s62.666 -47.334 81.999 -83.001s29 -77.5 29 -125.5c0 -54.667 -10.167 -102.167 -30.5 -142.5
s-49 -71.5 -86 -93.5s-80.167 -33 -129.5 -33c-47.333 0 -88.666 9.66699 -123.999 29zM383.999 125c24.667 34.667 37.001 81.334 37.001 140.001c0 50 -11.5 88.167 -34.5 114.5s-55.833 39.5 -98.5 39.5c-46.667 0 -82.334 -17.333 -107.001 -52
s-37 -81.334 -37 -140.001c0 -50.667 11.5 -89 34.5 -115s56.167 -39 99.5 -39c46 0 81.333 17.333 106 52zM176 687c18.667 20.667 42.334 30.998 71.001 30.998c13.333 0 25.833 -2.66699 37.5 -8s26.167 -13.333 43.5 -24c2.66699 -1.33301 8.16699 -4.5 16.5 -9.5
s15.833 -8.66699 22.5 -11s12.667 -3.5 18 -3.5c14 0 25.333 4.66699 34 14s13.667 22.333 15 39h50c-2.66699 -41.333 -13.334 -72.166 -32.001 -92.499s-42 -30.5 -70 -30.5c-13.333 0 -25.833 2.5 -37.5 7.5s-26.5 12.833 -44.5 23.5c-12 8 -22.167 14 -30.5 18
s-16.5 6 -24.5 6c-14 0 -25.333 -4.5 -34 -13.5s-14 -21.833 -16 -38.5h-50c2 40.667 12.333 71.334 31 92.001zM175 809.998l6 70h303l-6 -70h-303z" />
    <glyph glyph-name="uni0230" unicode="&#x230;" horiz-adv-x="771" 
d="M215.5 31c-48.333 26.667 -85.334 65.167 -111.001 115.5s-38.5 109.833 -38.5 178.5c0 78 13.833 146.333 41.5 205s66.667 104 117 136s108.833 48 175.5 48c66 0 123.167 -13.333 171.5 -40s85.5 -65.167 111.5 -115.5s39 -109.833 39 -178.5
c0 -78 -13.833 -146.333 -41.5 -205s-66.667 -104 -117 -136s-109.166 -48 -176.499 -48c-66 0 -123.167 13.333 -171.5 40zM509.499 113c34.333 24 60.834 58.832 79.501 104.499s28 99.834 28 162.501c0 80 -18.667 141.333 -56 184s-90.666 64 -159.999 64
c-71.333 0 -127.5 -27 -168.5 -81s-61.5 -128.333 -61.5 -223c0 -79.333 18.667 -140.333 56 -183s90.666 -64 159.999 -64c47.333 0 88.166 12 122.499 36zM378 894.999h117l-9 -106h-116zM291 966.999l6 70h303l-6 -70h-303z" />
    <glyph glyph-name="uni0231" unicode="&#x231;" horiz-adv-x="564" 
d="M153 22c-35.333 19.333 -62.667 47 -82 83s-29 77.667 -29 125c0 54.667 10.167 102.334 30.5 143.001s49 72 86 94s79.833 33 128.5 33c48 0 89.667 -9.83301 125 -29.5s62.666 -47.334 81.999 -83.001s29 -77.5 29 -125.5c0 -54.667 -10.167 -102.167 -30.5 -142.5
s-49 -71.5 -86 -93.5s-80.167 -33 -129.5 -33c-47.333 0 -88.666 9.66699 -123.999 29zM383.999 125c24.667 34.667 37.001 81.334 37.001 140.001c0 50 -11.5 88.167 -34.5 114.5s-55.833 39.5 -98.5 39.5c-46.667 0 -82.334 -17.333 -107.001 -52
s-37 -81.334 -37 -140.001c0 -50.667 11.5 -89 34.5 -115s56.167 -39 99.5 -39c46 0 81.333 17.333 106 52zM260 706h117l-9 -105h-116zM175 810l6 70h303l-6 -70h-303z" />
    <glyph glyph-name="uni0232" unicode="&#x232;" horiz-adv-x="611" 
d="M674 705l-310 -376l-26 -329h-103l26 328l-252 377h115l193 -290l238 290h119zM198 807l6 70h303l-6 -70h-303z" />
    <glyph glyph-name="uni0233" unicode="&#x233;" horiz-adv-x="520" 
d="M433 487h103l-343 -667h-102l99 193l-167 474h103l124 -372zM138 618l6 70h303l-6 -70h-303z" />
    <glyph glyph-name="uni0237" unicode="&#x237;" horiz-adv-x="242" 
d="M153 11c-5.33301 -64.667 -23.333 -111.833 -54 -141.5s-81 -46.5 -151 -50.5l-47 -3l-3 75l49 3c34 3.33301 59.167 12.833 75.5 28.5s25.833 40.167 28.5 73.5l39 492h101z" />
    <glyph glyph-name="uni0259" unicode="&#x259;" horiz-adv-x="529" 
d="M425 435.5c42 -43 63.001 -100.498 63.001 -172.498c0 -53.333 -10 -100.333 -30 -141s-48 -72.334 -84 -95.001s-77.333 -34 -124 -34c-66 0 -118 19 -156 57s-57 94 -57 168c0 15.333 1 31.333 3 48h349c-0.666992 49.333 -13.334 87.333 -38.001 114
s-59.667 40 -105 40c-57.333 0 -110 -18 -158 -54l-25 71c21.333 19.333 49.5 34.666 84.5 45.999s70.167 17 105.5 17c72.667 0 130 -21.5 172 -64.5zM339.501 102.502c23.667 23.667 38.832 58.5 45.499 104.5h-259c-1.33301 -46.667 8.5 -81.667 29.5 -105
s51.167 -35 90.5 -35c38.667 0 69.834 11.833 93.501 35.5z" />
    <glyph glyph-name="uni02BB" unicode="&#x2bb;" horiz-adv-x="300" 
d="M240 673l-7 -92h-113l5 60c2 28 7.83301 52.667 17.5 74s25.167 41.333 46.5 60l39 -30c-22.667 -22 -36.667 -46 -42 -72h54z" />
    <glyph glyph-name="uni02BC" unicode="&#x2bc;" horiz-adv-x="300" 
d="M244 755l-3.99902 -58.999c-2.66699 -28 -8.83398 -52.667 -18.501 -74s-25.167 -41.333 -46.5 -60l-39 30c12.667 12 22.167 23.667 28.5 35s10.833 23.666 13.5 36.999h-53l6 91h113z" />
    <glyph glyph-name="uni02BE" unicode="&#x2be;" horiz-adv-x="300" 
d="M178 605c14.667 0 26.835 4.66602 36.502 13.999s14.5 22 14.5 38c0 12.667 -3.83301 23.5 -11.5 32.5s-18.167 13.5 -31.5 13.5l4 53c27.333 0 50.166 -9.16699 68.499 -27.5s27.5 -41.166 27.5 -68.499c0 -32 -10.833 -57.833 -32.5 -77.5s-47.834 -29.5 -78.501 -29.5
z" />
    <glyph glyph-name="uni02BF" unicode="&#x2bf;" horiz-adv-x="300" 
d="M187 703c-14.667 0 -26.8359 -4.66602 -36.5029 -13.999s-14.5 -22 -14.5 -38c0 -12.667 3.83301 -23.5 11.5 -32.5s17.834 -13.5 30.501 -13.5l-3 -52c-27.333 0 -50.166 9.16699 -68.499 27.5s-27.5 41.166 -27.5 68.499c0 31.333 10.833 57 32.5 77
s47.834 30 78.501 30z" />
    <glyph glyph-name="circumflex" unicode="&#x2c6;" horiz-adv-x="300" 
d="M109 552h-89l137 203h67l105 -203h-85l-58 135z" />
    <glyph glyph-name="caron" unicode="&#x2c7;" horiz-adv-x="300" 
d="M256 755h89l-137 -203h-67l-105 203h85l58 -135z" />
    <glyph glyph-name="uni02C8" unicode="&#x2c8;" horiz-adv-x="300" 
d="M139 552l16 202h71l-16 -202h-71z" />
    <glyph glyph-name="uni02C9" unicode="&#x2c9;" horiz-adv-x="300" 
d="M28 618l6 70h303l-6 -70h-303z" />
    <glyph glyph-name="uni02CA" unicode="&#x2ca;" horiz-adv-x="300" 
d="M208 552h-67l112 203h114z" />
    <glyph glyph-name="uni02CB" unicode="&#x2cb;" horiz-adv-x="300" 
d="M141 552l-121 203h102l86 -203h-67z" />
    <glyph glyph-name="uni02CC" unicode="&#x2cc;" horiz-adv-x="300" 
d="M74 -270l16 202h71l-16 -202h-71z" />
    <glyph glyph-name="breve" unicode="&#x2d8;" horiz-adv-x="300" 
d="M77.5 613.5c-29.667 22.333 -50.1689 55.168 -61.502 98.501l58 24c22.667 -57.333 59.334 -86 110.001 -86c23.333 0 44.833 6.66699 64.5 20s37.834 35.333 54.501 66l55 -24c-16 -44.667 -40 -77.834 -72 -99.501s-67.667 -32.5 -107 -32.5
c-38 0 -71.833 11.167 -101.5 33.5z" />
    <glyph glyph-name="dotaccent" unicode="&#x2d9;" horiz-adv-x="300" 
d="M128 706h117l-9 -105h-116z" />
    <glyph glyph-name="ring" unicode="&#x2da;" horiz-adv-x="300" 
d="M109 581.5c-20 19.667 -30 43.834 -30 72.501s10 52.667 30 72s44.333 29 73 29c29.333 0 54 -9.66699 74 -29s30 -43.333 30 -72s-10 -52.834 -30 -72.501s-44.667 -29.5 -74 -29.5c-28.667 0 -53 9.83301 -73 29.5zM216 619c8.66699 9.33301 13 20.999 13 34.999
s-4.33301 25.5 -13 34.5s-20 13.5 -34 13.5c-13.333 0 -24.333 -4.66699 -33 -14s-13 -20.666 -13 -33.999c0 -14 4.33301 -25.667 13 -35s19.667 -14 33 -14c14 0 25.333 4.66699 34 14z" />
    <glyph glyph-name="ogonek" unicode="&#x2db;" horiz-adv-x="300" 
d="M1.5 -166c-21 18.667 -31.5 43.001 -31.5 73.001c0 35.333 13 65.166 39 89.499s63 39.833 111 46.5l12 -33c-30 -7.33301 -52.167 -18.5 -66.5 -33.5s-21.5 -32.833 -21.5 -53.5c0 -18 5.16699 -32 15.5 -42s24.5 -15 42.5 -15s37.667 5.33301 59 16l12 -54
c-27.333 -14.667 -56.333 -22 -87 -22c-35.333 0 -63.5 9.33301 -84.5 28z" />
    <glyph glyph-name="tilde" unicode="&#x2dc;" horiz-adv-x="300" 
d="M44 687c18.667 20.667 42.334 30.998 71.001 30.998c13.333 0 25.833 -2.66699 37.5 -8s26.167 -13.333 43.5 -24c2.66699 -1.33301 8.16699 -4.5 16.5 -9.5s15.833 -8.66699 22.5 -11s12.667 -3.5 18 -3.5c14 0 25.333 4.66699 34 14s13.667 22.333 15 39h50
c-2.66699 -41.333 -13.334 -72.166 -32.001 -92.499s-42 -30.5 -70 -30.5c-13.333 0 -25.833 2.5 -37.5 7.5s-26.5 12.833 -44.5 23.5c-12 8 -22.167 14 -30.5 18s-16.5 6 -24.5 6c-14 0 -25.333 -4.5 -34 -13.5s-14 -21.833 -16 -38.5h-50
c2 40.667 12.333 71.334 31 92.001z" />
    <glyph glyph-name="hungarumlaut" unicode="&#x2dd;" horiz-adv-x="300" 
d="M135 552h-47l56 203h87zM261 552h-47l56 203h87z" />
    <glyph glyph-name="gravecomb" unicode="&#x300;" horiz-adv-x="0" 
d="M-159 552l-121 203h102l86 -203h-67z" />
    <glyph glyph-name="acutecomb" unicode="&#x301;" horiz-adv-x="0" 
d="M-92 552h-67l112 203h114z" />
    <glyph glyph-name="uni0302" unicode="&#x302;" horiz-adv-x="0" 
d="M-191 552h-89l137 203h67l105 -203h-85l-58 135z" />
    <glyph glyph-name="tildecomb" unicode="&#x303;" horiz-adv-x="0" 
d="M-256 687c18.667 20.667 42.334 30.998 71.001 30.998c13.333 0 25.833 -2.66699 37.5 -8s26.167 -13.333 43.5 -24c2.66699 -1.33301 8.16699 -4.5 16.5 -9.5s15.833 -8.66699 22.5 -11s12.667 -3.5 18 -3.5c14 0 25.333 4.66699 34 14s13.667 22.333 15 39h50
c-2.66699 -41.333 -13.334 -72.166 -32.001 -92.499s-42 -30.5 -70 -30.5c-13.333 0 -25.833 2.5 -37.5 7.5s-26.5 12.833 -44.5 23.5c-12 8 -22.167 14 -30.5 18s-16.5 6 -24.5 6c-14 0 -25.333 -4.5 -34 -13.5s-14 -21.833 -16 -38.5h-50
c2 40.667 12.333 71.334 31 92.001z" />
    <glyph glyph-name="uni0304" unicode="&#x304;" horiz-adv-x="0" 
d="M-272 618l6 70h303l-6 -70h-303z" />
    <glyph glyph-name="uni0306" unicode="&#x306;" horiz-adv-x="0" 
d="M-222.5 613.5c-29.667 22.333 -50.1689 55.168 -61.502 98.501l58 24c22.667 -57.333 59.334 -86 110.001 -86c23.333 0 44.833 6.66699 64.5 20s37.834 35.333 54.501 66l55 -24c-16 -44.667 -40 -77.834 -72 -99.501s-67.667 -32.5 -107 -32.5
c-38 0 -71.833 11.167 -101.5 33.5z" />
    <glyph glyph-name="uni0307" unicode="&#x307;" horiz-adv-x="0" 
d="M-172 706h117l-9 -105h-116z" />
    <glyph glyph-name="uni0308" unicode="&#x308;" horiz-adv-x="0" 
d="M-254 703h104l-8 -99h-103zM-77 703h103l-7 -99h-104z" />
    <glyph glyph-name="hookabovecomb" unicode="&#x309;" horiz-adv-x="0" 
d="M-94 552l-59.001 -0.00292969l2 26c0.666992 14 4.83398 25.833 12.501 35.5s18.167 20.167 31.5 31.5c10 8.66699 16.833 15.334 20.5 20.001s5.5 10 5.5 16c0 15.333 -12.333 23 -37 23c-16 0 -35 -3.66699 -57 -11l-13 50c25.333 10 54 15 86 15
c29.333 0 52.666 -6.16699 69.999 -18.5s26 -28.166 26 -47.499c0 -15.333 -4.16699 -28.166 -12.5 -38.499s-20.166 -21.166 -35.499 -32.499c-13.333 -10.667 -23 -19.334 -29 -26.001s-9.33301 -15 -10 -25z" />
    <glyph glyph-name="uni030A" unicode="&#x30a;" horiz-adv-x="0" 
d="M-191 581.5c-20 19.667 -30 43.834 -30 72.501s10 52.667 30 72s44.333 29 73 29c29.333 0 54 -9.66699 74 -29s30 -43.333 30 -72s-10 -52.834 -30 -72.501s-44.667 -29.5 -74 -29.5c-28.667 0 -53 9.83301 -73 29.5zM-84 619c8.66699 9.33301 13 20.999 13 34.999
s-4.33301 25.5 -13 34.5s-20 13.5 -34 13.5c-13.333 0 -24.333 -4.66699 -33 -14s-13 -20.666 -13 -33.999c0 -14 4.33301 -25.667 13 -35s19.667 -14 33 -14c14 0 25.333 4.66699 34 14z" />
    <glyph glyph-name="uni030B" unicode="&#x30b;" horiz-adv-x="0" 
d="M-165 552h-47l56 203h87zM-39 552h-47l56 203h87z" />
    <glyph glyph-name="uni030C" unicode="&#x30c;" horiz-adv-x="0" 
d="M-44 755h89l-137 -203h-67l-105 203h85l58 -135z" />
    <glyph glyph-name="uni030F" unicode="&#x30f;" horiz-adv-x="0" 
d="M-212 552l-61 203h81l27 -203h-47zM-86 552l-61 203h81l27 -203h-47z" />
    <glyph glyph-name="uni0311" unicode="&#x311;" horiz-adv-x="0" 
d="M-12.5 700c29.667 -22 50.1689 -54.668 61.502 -98.001l-58 -24c-22.667 57.333 -59.334 86 -110.001 86c-23.333 0 -44.833 -6.66699 -64.5 -20s-37.834 -35.333 -54.501 -66l-55 23c16 44.667 40 77.834 72 99.501s67.667 32.5 107 32.5c38 0 71.833 -11 101.5 -33z
" />
    <glyph glyph-name="uni0312" unicode="&#x312;" horiz-adv-x="0" 
d="M-60 673l-7 -92h-113l5 60c2 28 7.83301 52.667 17.5 74s25.167 41.333 46.5 60l39 -30c-22.667 -22 -36.667 -46 -42 -72h54z" />
    <glyph glyph-name="uni031B" unicode="&#x31b;" horiz-adv-x="0" 
d="M-132 472l1.00195 20c39.333 0.666992 67.166 9.16699 83.499 25.5s26.166 43.833 29.499 82.5l1 16h89l-2 -30c-3.33301 -43.333 -18.333 -78.333 -45 -105s-62 -41.667 -106 -45z" />
    <glyph glyph-name="dotbelowcomb" unicode="&#x323;" horiz-adv-x="0" 
d="M-228 -86h105l-8 -101h-106z" />
    <glyph glyph-name="uni0324" unicode="&#x324;" horiz-adv-x="0" 
d="M-316 -87h104l-9 -99h-103zM-139 -87h103l-8 -99h-103z" />
    <glyph glyph-name="uni0326" unicode="&#x326;" horiz-adv-x="0" 
d="M-118 -70l-5 -60c-2 -28 -7.83301 -52.667 -17.5 -74s-25.167 -41.333 -46.5 -60l-39 30c23.333 22.667 37 46.667 41 72h-53l7 92h113z" />
    <glyph glyph-name="uni0327" unicode="&#x327;" horiz-adv-x="0" 
d="M-81 -58.5c14 -11.667 20.999 -28.167 20.999 -49.5c0 -25.333 -10.667 -46 -32 -62s-51.333 -24 -90 -24c-15.333 0 -31.5 1.66699 -48.5 5s-31.833 8 -44.5 14l15 47c27.333 -9.33301 53 -14 77 -14c16.667 0 29.834 2.66699 39.501 8s14.5 13.333 14.5 24
c0 16.667 -11.333 25 -34 25c-10.667 0 -24.667 -2.66699 -42 -8l-18 17l19 96h64l-13 -62c4 0.666992 9.33301 1 16 1c23.333 0 42 -5.83301 56 -17.5z" />
    <glyph glyph-name="uni0328" unicode="&#x328;" horiz-adv-x="0" 
d="M-298.5 -166c-21 18.667 -31.5 43.001 -31.5 73.001c0 35.333 13 65.166 39 89.499s63 39.833 111 46.5l12 -33c-30 -7.33301 -52.167 -18.5 -66.5 -33.5s-21.5 -32.833 -21.5 -53.5c0 -18 5.16699 -32 15.5 -42s24.5 -15 42.5 -15s37.667 5.33301 59 16l12 -54
c-27.333 -14.667 -56.333 -22 -87 -22c-35.333 0 -63.5 9.33301 -84.5 28z" />
    <glyph glyph-name="uni032E" unicode="&#x32e;" horiz-adv-x="0" 
d="M-285 -182.5c-29.333 22.333 -49.668 55.168 -61.001 98.501l58 24c22.667 -57.333 59.334 -86 110.001 -86c23.333 0 44.833 6.66699 64.5 20s37.5 35.333 53.5 66l55 -24c-16 -44.667 -39.833 -77.834 -71.5 -99.501s-67.167 -32.5 -106.5 -32.5
c-38.667 0 -72.667 11.167 -102 33.5z" />
    <glyph glyph-name="uni0331" unicode="&#x331;" horiz-adv-x="0" 
d="M-334 -170l5 67h304l-6 -67h-303z" />
    <glyph glyph-name="uni0335" unicode="&#x335;" horiz-adv-x="0" 
d="M-304 215l5 63h304l-5 -63h-304z" />
    <glyph glyph-name="uni0394" unicode="&#x394;" horiz-adv-x="734" 
d="M575 340l108 -288l-353 -52l-317 15l194 417l178 273zM132 87h444l-181 500z" />
    <glyph glyph-name="Sigma" unicode="&#x3a3;" horiz-adv-x="589" 
d="M581 705l-7 -85h-382l203 -323l-6 -68l-252 -324h382l-7 -85h-503l6 75l289 374l-231 361l5 75h503z" />
    <glyph glyph-name="uni03A9" unicode="&#x3a9;" horiz-adv-x="788" 
d="M730.5 359.5c-14.333 -34.333 -36.1641 -72.332 -65.4971 -113.999s-71 -95.167 -125 -160.5h173l-6 -85h-269l6 82c54.667 74.667 96.334 134.667 125.001 180s48.834 83 60.501 113s17.5 58 17.5 84c0 54 -19.833 95.833 -59.5 125.5s-94.834 44.5 -165.501 44.5
c-80.667 0 -142.334 -17 -185.001 -51s-64 -81.333 -64 -142c0 -38.667 10.5 -83.334 31.5 -134.001s59.167 -124 114.5 -220l-7 -82h-268l6 85h173c-41.333 64.667 -73 117.167 -95 157.5s-37.5 75.333 -46.5 105s-13.5 59.5 -13.5 89.5
c0 55.333 14.167 103.833 42.5 145.5s69.166 74 122.499 97s116.666 34.5 189.999 34.5c67.333 0 125.666 -10 174.999 -30s87.333 -49 114 -87s40 -83 40 -135c0 -34 -7.16699 -68.167 -21.5 -102.5z" />
    <glyph glyph-name="uni03BC" unicode="&#x3bc;" horiz-adv-x="569" 
d="M517 488l-37.9971 -488h-99l6 74c-16.667 -26 -38.834 -46 -66.501 -60s-58.5 -21 -92.5 -21c-31.333 0 -57 6 -77 18l-14 -191h-101l52 668h101l-24 -291l-1 -18c0 -69.333 32.333 -104 97 -104c39.333 0 70.666 12.5 93.999 37.5s36.666 58.833 39.999 101.5l22 274
h101z" />
    <glyph glyph-name="pi" unicode="&#x3c0;" horiz-adv-x="590" 
d="M432 170c0 -32 8 -55.4971 24 -70.4971s41.333 -24.167 76 -27.5l34 -2l-7 -77l-39 2c-64.667 3.33301 -112.167 18.666 -142.5 45.999s-45.5 69.666 -45.5 126.999c0 13.333 0.333008 23.666 1 30.999l16 211h-131c-7.33301 -77.333 -18.833 -149.5 -34.5 -216.5
s-37.167 -131.5 -64.5 -193.5h-106c55.333 135.333 90.333 272 105 410h-100l6 78h547l-7 -78h-114l-17 -221z" />
    </font>
</defs>
</svg>
