<svg xmlns="http://www.w3.org/2000/svg" width="116" height="117" viewBox="0 0 116 117">
    <g fill="#DEDEDE" fill-rule="nonzero">
        <path d="M102.668 39.178l12.835-12.834a1.692 1.692 0 0 0-.4-2.691L72.963.997a1.723 1.723 0 0 0-2.027.292L57.999 14.122 45.063 1.29a1.704 1.704 0 0 0-2.026-.292L29.502 8.272a1.694 1.694 0 0 0-.69 2.305 1.72 1.72 0 0 0 2.323.684l12.41-6.672 11.618 11.525L16.06 37.08 4.539 25.559l20.571-11.06a1.68 1.68 0 0 0 .827-1.009c.13-.435.082-.895-.137-1.293a1.714 1.714 0 0 0-2.32-.685L.896 23.654A1.698 1.698 0 0 0 .018 24.9c-.078.525.1 1.064.48 1.443L13.33 39.18.497 52.013a1.692 1.692 0 0 0 .4 2.69l13.136 7.063V92.43c0 .058.003.117.009.175.002.024.007.048.01.073.005.03.008.06.014.088.007.037.018.073.027.11l.013.049c.011.037.025.072.038.108.006.016.011.032.018.047.013.033.028.063.043.094.01.02.018.039.028.057.014.026.03.05.044.074l.043.07c.012.019.026.037.04.055.02.027.038.054.06.08.011.014.024.027.036.04.024.028.049.056.075.082l.042.04c.026.023.052.048.08.07.026.022.054.042.082.063l.049.036c.049.033.1.063.152.091l42.24 22.649c.061.033.125.061.19.087l.043.016c.047.017.096.033.145.045l.053.014c.048.011.097.02.146.027l.05.008a1.75 1.75 0 0 0 .393 0l.05-.008a1.703 1.703 0 0 0 .344-.086 1.744 1.744 0 0 0 .232-.103l42.24-22.649c.053-.028.104-.058.153-.091l.049-.036c.028-.02.056-.04.083-.063.027-.022.053-.047.08-.07l.041-.04c.026-.026.05-.054.075-.081l.037-.041.06-.08.04-.055.042-.07c.015-.024.03-.048.044-.074.01-.018.018-.038.028-.057.015-.03.03-.061.043-.094.007-.015.012-.031.018-.047.013-.036.027-.071.038-.108l.013-.05c.01-.036.02-.072.027-.109.006-.029.01-.058.014-.088.003-.025.008-.049.01-.073.006-.058.01-.117.009-.175V61.766l13.136-7.062c.472-.254.801-.72.879-1.246a1.704 1.704 0 0 0-.477-1.446l-12.836-12.834zM72.454 4.59l39.007 20.971-11.52 11.52-39.104-20.967L72.454 4.59zm-55.9 54.667L4.54 52.796l11.52-11.52 39.104 20.967-11.618 11.524L16.57 59.264a.297.297 0 0 0-.014-.008zm39.733 52.984L17.459 91.421V63.608l25.578 13.751a1.722 1.722 0 0 0 2.027-.292l11.223-11.132v46.305zM58 59.9L19.352 39.18l38.649-20.723 38.648 20.722L58 59.901zm41.452-.647l-.028.015-8.534 4.588a1.683 1.683 0 0 0-.827 1.01c-.13.436-.082.896.135 1.295.301.548.879.888 1.507.888.283 0 .567-.07.816-.204l6.02-3.237v27.814L59.713 112.24V65.934l11.224 11.133c.324.322.753.498 1.21.498.283 0 .564-.072.816-.206l13.535-7.277c.402-.215.694-.575.824-1.01.13-.435.082-.893-.134-1.292a1.717 1.717 0 0 0-2.323-.684l-12.41 6.67-11.618-11.523L99.94 41.275l11.521 11.52-12.01 6.458z"/>
        <path d="M71.643 87.863l-1.782.908c-.98.5-1.373 1.71-.874 2.69.5.98 1.71 1.373 2.69.874l1.782-.908c.98-.5 1.373-1.71.874-2.69a2.006 2.006 0 0 0-2.69-.874zM89.68 78.673L78.554 84.34c-.37.19-.265 1.146.234 2.126.5.98 1.211 1.627 1.582 1.438l11.126-5.668c.37-.19.266-1.146-.234-2.126s-1.211-1.627-1.582-1.438z"/>
    </g>
</svg>
