<svg xmlns="http://www.w3.org/2000/svg" width="122" height="92" viewBox="0 0 122 92">
    <g fill="none" fill-rule="nonzero">
        <path fill="#128BDD" d="M27.74 57.283h3.631l-7.118 19.094h-3.25l-7.06-19.094h3.877l4.909 13.305 5.011-13.305zm26.273 19.094h-3.47v-18.61h3.47v2.631c.588-.81 1.23-1.465 1.926-1.96a6.092 6.092 0 0 1 3.61-1.155c.95 0 1.9.17 2.848.51l.346.124v7.297h-3.377v-4.067a3.537 3.537 0 0 0-.5-.046c-.808 0-1.612.378-2.421 1.153-.82.784-1.632 1.97-2.432 3.558v10.565zM39.703 75.202c-1.342.78-2.595 1.175-3.762 1.175-1.644 0-3.12-.693-4.398-2.05-1.285-1.362-1.914-3.385-1.914-6.046 0-2.079.408-3.946 1.226-5.594.82-1.652 1.925-2.966 3.312-3.933 1.41-.983 3.143-1.471 5.185-1.471.582 0 1.442.058 2.6.174.16.02.408.045.686.073h3.532v12.742c0 2.022.213 3.652.633 4.883l.254.744h-4.323l-.106-.434c-.16-.656-.298-1.465-.413-2.427a9.295 9.295 0 0 1-2.512 2.164zm2.126-14.157a11.917 11.917 0 0 0-2.51-.29c-1.77 0-3.224.636-4.406 1.93-1.194 1.31-1.799 3.11-1.799 5.43 0 1.662.324 2.883.942 3.672.6.765 1.233 1.119 1.926 1.119.82 0 1.779-.415 2.868-1.276 1.098-.867 2.091-2.036 2.979-3.509v-7.076z"/>
        <path fill="#0F1B27" d="M109.8 0H12.2C5.49 0 0 5.447 0 12.105v67.79C0 86.553 5.49 92 12.2 92h97.6c6.71 0 12.2-5.447 12.2-12.105v-67.79C122 5.447 116.51 0 109.8 0zM78.429 86.792h-65.88c-4.026 0-7.32-3.239-7.32-7.198V12.406c0-3.96 3.294-7.198 7.32-7.198h65.88v81.584zm38.342-7.198c0 3.96-3.36 7.198-7.469 7.198H81.914V5.208h27.388c4.108 0 7.47 3.239 7.47 7.198v67.188z"/>
        <path fill="#0F1B27" d="M16.267 19.094h2.323c1.279 0 2.324-1.171 2.324-2.603 0-1.433-1.045-2.604-2.324-2.604h-2.323c-1.278 0-2.324 1.171-2.324 2.604 0 1.432 1.046 2.603 2.324 2.603zM24.981 19.094h2.324c1.278 0 2.324-1.171 2.324-2.603 0-1.433-1.046-2.604-2.324-2.604H24.98c-1.278 0-2.324 1.171-2.324 2.604 0 1.432 1.046 2.603 2.324 2.603zM37.181 19.094h2.324c1.278 0 2.324-1.171 2.324-2.603 0-1.433-1.046-2.604-2.324-2.604H37.18c-1.278 0-2.324 1.171-2.324 2.604 0 1.432 1.046 2.603 2.324 2.603zM105.522 19.094H96.65c-1.394 0-2.535 1.172-2.535 2.604 0 1.432 1.141 2.604 2.535 2.604h8.873c1.394 0 2.535-1.172 2.535-2.604 0-1.432-1.14-2.604-2.535-2.604zM105.522 31.245H96.65c-1.394 0-2.535 1.172-2.535 2.604 0 1.432 1.141 2.604 2.535 2.604h8.873c1.394 0 2.535-1.172 2.535-2.604 0-1.432-1.14-2.604-2.535-2.604zM105.522 43.396H96.65c-1.394 0-2.535 1.172-2.535 2.604 0 1.432 1.141 2.604 2.535 2.604h8.873c1.394 0 2.535-1.172 2.535-2.604 0-1.432-1.14-2.604-2.535-2.604z"/>
    </g>
</svg>
